<svg width="847" height="606" viewBox="0 0 847 606" fill="none" xmlns="http://www.w3.org/2000/svg">
<path d="M846.444 297.832V111.465C846.444 105.797 843.443 100.574 838.553 97.7957L677.066 4.66752C672.176 1.88923 666.175 1.88923 661.284 4.66752L499.909 97.7957C495.019 100.574 492.018 105.797 492.018 111.465V297.832C492.018 303.5 495.019 308.723 499.909 311.502L661.284 404.741C666.175 407.519 672.176 407.519 677.066 404.741L838.442 311.613C843.443 308.723 846.444 303.5 846.444 297.832Z" stroke="#2E273F" stroke-miterlimit="10"/>
<path d="M336.533 323.393C346.757 345.73 355.093 368.845 361.761 392.405C362.095 393.628 363.984 393.072 363.651 391.85C356.982 368.068 348.536 344.841 338.2 322.281C337.755 321.17 335.977 322.17 336.533 323.393Z" fill="#307776"/>
<path d="M332.198 231.376C333.421 230.153 334.532 228.82 335.643 227.597C330.753 217.373 323.863 207.927 314.416 199.926C312.193 203.815 310.081 207.705 308.192 211.817C304.969 219.04 293.744 214.262 296.967 207.149C299.189 202.259 301.746 197.481 304.524 192.813C297.745 188.701 289.854 185.145 280.851 182.589C280.518 184.812 280.184 187.034 279.74 189.257C278.184 196.925 266.07 195.258 267.626 187.59C268.181 185.034 268.515 182.478 268.959 179.811C264.069 178.922 258.846 178.255 253.289 177.922C241.063 177.032 232.283 185.923 232.172 198.814C232.172 206.482 232.505 215.706 233.506 225.597C239.285 228.486 244.731 232.043 250.732 234.599C257.956 237.821 253.177 249.046 246.064 245.823C242.508 244.267 239.063 242.267 235.617 240.377C237.062 248.935 239.174 257.603 242.063 266.049L250.732 267.271C254.067 267.716 256.289 270.827 255.956 274.161C255.622 277.495 252.288 279.829 249.065 279.385L247.287 279.162C251.844 288.831 257.734 297.944 265.292 305.389C267.626 303.722 270.071 302.278 272.627 300.833C275.739 299.055 279.184 299.166 281.629 302.055C283.63 304.5 283.296 309.39 280.407 311.057C278.851 311.946 277.184 312.946 275.628 313.946C282.074 318.281 289.409 321.726 297.745 323.948L297.967 322.17C298.189 320.281 299.189 318.725 300.412 317.503C300.634 317.28 300.968 316.947 301.301 316.725C308.192 311.502 316.083 319.948 313.082 326.282V326.504C317.528 326.838 322.196 326.949 327.197 326.615C336.977 326.06 344.09 319.281 345.424 309.168C346.535 300.5 347.424 288.942 346.869 276.273C342.423 276.384 337.866 276.606 333.421 276.051C332.865 276.051 332.309 275.828 331.754 275.717C330.642 275.384 329.642 274.717 328.864 273.939C325.641 270.939 324.529 265.382 329.086 261.937C331.087 260.381 333.198 260.048 335.199 260.492C335.31 260.492 335.421 260.492 335.532 260.492C338.867 260.937 342.09 260.937 345.424 260.826C344.424 254.047 342.979 247.156 340.756 240.377C338.533 241.822 335.643 242.156 333.31 240.266C330.864 238.377 329.864 233.932 332.198 231.376ZM274.294 277.606C267.959 282.385 260.402 272.494 266.848 267.716C273.183 262.826 280.629 272.828 274.294 277.606ZM245.509 213.15C241.841 215.928 237.507 210.261 241.174 207.482C244.842 204.593 249.176 210.372 245.509 213.15ZM297.856 235.043C289.854 241.155 280.407 228.597 288.409 222.596C296.411 216.595 305.858 229.042 297.856 235.043ZM311.971 239.266C308.97 241.6 305.302 236.821 308.414 234.487C311.415 232.265 315.083 236.932 311.971 239.266Z" fill="#44A2A0"/>
<path d="M232.172 198.703C232.172 206.371 232.505 215.595 233.506 225.486C239.285 228.375 244.731 231.931 250.732 234.487C257.956 237.71 253.289 248.935 246.064 245.823C242.508 244.267 239.063 242.267 235.617 240.377C237.062 248.935 239.174 257.603 242.063 266.049L250.732 267.271C254.067 267.716 256.289 270.827 255.956 274.161C255.622 277.495 252.288 279.829 249.065 279.385L247.287 279.162C251.844 288.942 257.734 297.943 265.292 305.5C267.626 303.833 270.071 302.389 272.627 300.944C275.739 299.166 279.184 299.277 281.629 302.166C283.63 304.611 283.296 309.501 280.407 311.168C278.851 312.057 277.295 313.057 275.739 313.946C282.185 318.281 289.52 321.726 297.856 323.837L298.078 322.059C298.3 320.17 299.301 318.614 300.523 317.392C300.745 317.169 301.079 316.836 301.412 316.614C308.303 311.39 316.194 319.836 313.193 326.171V326.393C317.639 326.727 322.307 326.838 327.197 326.504C330.753 326.282 333.976 325.282 336.644 323.504L237.618 183.589C234.172 187.368 232.172 192.591 232.172 198.703ZM274.294 277.606C267.959 282.385 260.402 272.494 266.848 267.716C273.183 262.826 280.629 272.828 274.294 277.606ZM245.509 213.15C241.841 215.928 237.507 210.261 241.174 207.482C244.842 204.593 249.176 210.372 245.509 213.15Z" fill="#44A2A0"/>
<path d="M246.62 192.813C253.844 200.703 260.179 209.261 265.625 218.485C270.071 226.041 273.961 233.821 278.295 241.378C283.185 249.935 288.742 257.936 295.077 265.382C300.746 272.05 306.858 278.273 312.638 284.941C319.306 292.72 325.974 300.944 330.753 310.168C330.865 310.501 331.309 310.168 331.198 309.946C327.086 301.944 321.418 294.721 315.638 287.831C310.304 281.385 304.524 275.273 298.967 269.049C291.854 261.27 285.63 252.824 280.296 243.711C275.85 236.154 271.849 228.264 267.515 220.596C261.735 210.483 254.845 201.037 246.954 192.48C246.843 192.257 246.398 192.591 246.62 192.813Z" fill="#2E273F"/>
<path opacity="0.1" d="M440.338 388.293V243.822C440.338 240.6 438.67 237.599 435.781 236.043L310.637 163.808C307.858 162.141 304.413 162.141 301.635 163.808L176.491 236.043C173.712 237.71 171.934 240.6 171.934 243.822V388.293C171.934 391.516 173.601 394.517 176.491 396.073L301.635 468.308C304.413 469.975 307.858 469.975 310.637 468.308L435.781 396.073C438.67 394.517 440.338 391.516 440.338 388.293Z" fill="#00AA69"/>
<path opacity="0.1" d="M809.212 297.721V111.687C809.212 105.019 805.656 98.907 799.877 95.5731L638.723 2.55603C632.944 -0.777914 625.831 -0.777914 620.052 2.55603L459.009 95.4619C453.23 98.7959 449.674 104.908 449.674 111.576V297.61C449.674 304.278 453.23 310.39 459.009 313.724L620.163 406.741C625.942 410.075 633.055 410.075 638.834 406.741L799.988 313.724C805.656 310.501 809.212 304.389 809.212 297.721Z" fill="#00AA69"/>
<path d="M353.537 533.32C336.199 543.322 284.741 566.437 265.959 573.883C259.068 576.55 250.399 566.326 262.513 558.436C265.959 556.213 272.405 552.101 275.961 549.99C282.63 545.878 280.407 536.765 271.516 540.321C241.174 552.324 173.379 579.995 139.926 590.108C130.256 592.998 123.477 576.884 135.591 571.438C200.052 542.322 261.735 514.761 270.293 509.538C279.073 504.315 278.962 492.868 269.404 493.424C260.624 493.979 239.063 504.204 218.279 509.982C203.053 514.205 196.829 497.313 210.277 489.757C229.949 478.754 268.848 463.307 291.076 451.305C296.3 448.527 299.412 436.969 288.742 436.858C285.63 436.858 278.629 439.636 275.406 441.081C264.958 445.971 258.512 433.079 269.737 426.856C279.518 421.411 305.636 410.297 316.972 405.63C318.973 457.751 338.644 503.537 353.537 533.32Z" fill="#44A2A0" stroke="#3F9798" stroke-miterlimit="10"/>
<path d="M682.401 448.971C658.506 415.854 645.058 365.845 646.28 343.285C646.28 342.952 646.169 342.507 646.169 342.174C644.391 322.392 643.502 308.39 643.502 308.39C835.997 332.172 682.401 448.971 682.401 448.971Z" fill="#57C9BE"/>
<path d="M363.762 490.09L340.089 513.205C338.978 511.094 337.755 508.871 336.644 506.648C324.085 481.977 312.082 447.304 313.082 405.408C313.193 398.073 313.86 390.516 314.86 382.848L344.312 378.958C344.312 378.958 344.312 378.958 344.312 379.07C343.09 386.182 344.09 392.739 344.09 398.74C344.313 440.192 361.762 486.089 361.762 486.089C362.428 487.423 363.095 488.756 363.762 490.09Z" fill="#1F2125"/>
<path d="M473.124 309.835L453.452 340.951C441.449 359.399 431.891 369.068 431.891 369.068L423.889 362.622C423.889 362.622 417.998 377.847 418.776 383.181C419.11 385.182 420.444 385.515 422 386.96C424.778 389.627 470.346 417.41 473.124 419.633L466.011 439.414L460.454 463.085L364.318 489.423C341.089 439.081 344.09 382.403 344.201 378.958C344.201 378.847 344.201 378.847 344.201 378.847C346.202 366.623 351.759 353.843 366.652 344.952C388.769 331.95 426.667 318.281 473.124 309.835Z" fill="white" stroke="#3F9798" stroke-width="2" stroke-miterlimit="10"/>
<path d="M671.732 115.132C671.732 115.132 665.73 123.912 653.06 126.023L607.381 204.037C606.715 205.26 605.825 206.26 604.825 207.26C601.38 210.483 593.044 216.706 581.263 212.372C581.263 212.372 569.927 210.039 557.702 193.591L595.489 156.584L598.268 158.807L641.057 116.132C641.057 116.132 616.939 78.57 653.505 72.2355C653.505 72.2355 663.618 70.7908 656.283 79.1256L642.724 89.2386L671.732 115.132Z" fill="#1F2125"/>
<path d="M404.328 127.468L401.661 182.7C389.436 173.699 377.21 158.918 370.431 146.36C363.206 133.024 356.205 114.799 352.648 100.129C351.092 93.6839 346.535 78.0143 345.869 71.4576C336.755 62.2336 339.2 64.7897 335.088 58.7886C330.865 52.8986 328.086 46.0084 326.086 39.0072C325.419 36.4511 324.418 32.4504 324.641 29.7832C324.752 28.6719 324.974 26.8938 326.864 26.6716C329.42 26.3382 332.532 35.1176 333.087 37.4513C333.199 38.1181 335.31 44.0081 336.644 42.4522C336.866 42.23 336.866 40.0073 336.866 39.674C336.866 37.4513 336.533 37.3402 336.088 35.1176C334.754 29.3387 333.865 23.4488 333.643 17.5588C333.643 16.5586 334.088 14.1137 335.199 13.8914C336.866 13.558 338.089 15.7807 338.422 17.0031C339.645 22.1152 340.867 27.2272 342.09 32.4504C342.423 33.6728 342.979 35.0064 343.201 36.2289C343.535 37.3402 345.646 38.6738 345.535 36.5623C345.424 35.3398 345.313 33.4506 345.091 32.2281C344.646 28.5608 344.424 24.8935 344.09 21.2261C343.979 19.448 343.979 17.5588 344.09 16.2252C344.201 15.0028 343.979 12.2245 345.313 11.5577C347.536 10.3352 348.869 12.7801 349.092 14.2248C349.87 18.7812 350.759 22.8931 351.092 27.3384C351.314 30.8946 351.759 33.1172 352.204 36.8957C352.204 37.3402 352.537 39.5628 352.982 39.5628C353.315 39.5628 354.76 39.7851 355.093 39.674C359.094 37.5625 366.541 35.7843 367.985 39.5628C368.097 40.0073 367.652 41.0075 367.541 41.5632C367.319 42.4522 364.651 43.4524 363.762 43.6747C360.984 44.3415 358.094 45.3417 356.427 47.7865C354.76 50.1203 355.204 53.232 357.983 54.0099C360.094 54.6767 362.317 53.0097 363.651 51.2316C364.651 49.898 366.096 48.1199 367.763 47.6754C369.875 47.1198 370.986 47.7865 371.209 49.898C371.542 52.0095 369.875 54.7878 368.541 56.4548C367.207 58.1218 365.54 59.5665 364.429 61.2335C363.206 63.0116 364.096 67.2346 364.762 69.2349L365.429 71.7909C370.875 90.1276 385.323 111.243 399.438 124.245C401.328 126.245 402.105 125.801 404.328 127.468Z" fill="#1F2125"/>
<path d="M534.473 84.2377C534.029 85.4601 533.473 86.5714 532.806 87.6828C531.361 89.9054 529.361 91.9058 526.805 92.9059C524.249 93.795 520.692 94.2395 518.136 93.3505C514.802 92.2391 508.8 86.3492 507.911 78.1255C507.911 78.0143 508.8 78.2366 508.8 78.2366H511.356C514.69 78.1255 517.691 76.014 518.692 72.7911C518.803 72.2355 519.025 71.5687 519.247 70.7908C517.136 69.1238 515.357 66.79 514.468 64.234C513.69 62.1225 513.246 59.8999 513.134 57.6773C510.689 58.4552 508.355 56.1214 508.244 53.4543C508.244 50.8982 511.579 48.5645 514.135 49.1201C514.246 48.6756 514.357 48.2311 514.468 47.8977C514.69 47.1198 514.913 46.3418 515.246 45.4528C515.246 45.4528 535.918 15.5584 546.365 53.1209C546.032 54.0099 545.587 54.899 545.143 55.788C546.921 56.0103 548.588 57.8995 548.477 59.6776C548.366 61.5669 547.81 64.0117 545.254 64.9008C544.587 65.1231 544.031 65.1231 543.476 65.1231C542.364 65.1231 541.142 64.7897 539.919 64.4563C537.252 68.2347 534.362 71.4576 530.25 72.68C530.25 72.68 529.694 75.9028 529.694 76.903C529.806 80.1258 532.806 80.7926 536.807 80.7926" fill="#1F2125"/>
<path d="M682.401 448.971C682.401 448.971 622.608 511.094 461.788 552.546C443.116 557.324 420.221 554.213 398.438 535.876C450.674 524.763 491.018 510.316 522.026 494.535L565.148 503.759C565.148 503.759 584.153 496.758 572.372 475.198C570.927 472.531 568.705 469.864 565.815 467.197C629.276 418.299 625.942 367.734 625.942 367.734L559.147 380.514C569.927 359.177 583.597 330.172 593.156 302.5C610.16 303.5 627.498 305.5 644.947 308.612C644.502 308.612 643.947 322.17 646.058 342.063C646.058 342.396 646.169 342.841 646.169 343.174C649.059 373.291 657.506 416.854 682.401 448.971Z" fill="white" stroke="#3F9798" stroke-width="2" stroke-miterlimit="10"/>
<path d="M389.213 537.765L363.873 547.323C363.873 547.323 362.428 545.878 360.206 542.989C370.319 541.322 379.877 539.655 389.213 537.765Z" fill="#1F2125"/>
<path d="M570.594 471.42C550.033 451.972 496.13 430.968 496.13 430.968L498.686 415.965C514.357 415.854 522.137 414.52 529.917 411.853C529.917 411.853 532.028 411.298 532.14 411.298C532.918 411.075 532.806 411.186 533.473 410.964C533.807 410.853 536.252 410.186 536.585 409.964C541.698 408.075 548.033 407.408 552.034 404.519C553.145 403.741 555.701 401.518 556.702 400.629C558.035 399.518 560.258 389.294 560.925 387.627C562.925 382.515 561.925 384.07 562.814 381.403C559.591 383.181 562.259 381.737 559.147 382.959C559.702 381.848 560.258 380.848 560.814 379.736L629.276 366.623C629.165 366.512 635.611 421.299 570.594 471.42Z" fill="#57C9BE"/>
<path d="M535.918 493.09C503.354 509.649 456.787 523.763 401.883 535.32C398.771 535.987 395.548 536.654 392.325 537.321C382.545 539.321 372.431 541.099 361.873 542.877C357.761 543.544 353.537 544.211 349.314 544.767C343.979 545.545 337.422 546.322 332.754 543.544C326.53 539.877 322.751 531.209 334.31 517.873L340.867 511.427L365.652 487.2L366.207 486.645L421.111 432.968L450.674 402.518L535.918 493.09Z" fill="#57C9BE"/>
<path d="M236.951 440.303L180.492 461.418C178.491 462.196 177.491 464.307 178.269 466.308L179.936 470.753C180.714 472.753 182.826 473.754 184.826 472.976L241.285 451.861C243.286 451.083 244.286 448.971 243.508 446.971L241.841 442.526C241.174 440.636 238.952 439.636 236.951 440.303Z" fill="#3F9798"/>
<path d="M180.158 501.759L139.814 515.206C137.814 515.872 136.702 517.984 137.369 519.984L138.925 524.541C139.592 526.541 141.704 527.652 143.704 526.986L184.159 513.427C186.049 512.761 187.049 510.76 186.493 508.871L184.937 504.092C184.381 502.092 182.159 501.092 180.158 501.759Z" fill="#3F9798"/>
<path d="M104.805 585.996L80.7989 593.998C78.7983 594.665 77.6869 596.776 78.3538 598.777L79.9097 603.333C80.5766 605.333 82.6882 606.445 84.6888 605.778L108.917 597.665C110.807 596.998 111.807 594.998 111.251 593.109L109.695 588.33C108.917 586.441 106.806 585.33 104.805 585.996Z" fill="#3F9798"/>
<path d="M502.354 78.2366C505.133 77.7921 508.022 78.4588 508.022 78.4588L508.245 79.2368C509.022 84.5711 511.468 88.9052 515.246 91.239C519.025 93.5727 523.582 93.5727 527.472 91.5724C531.362 89.572 534.585 85.5712 536.585 80.7926C536.585 80.7926 546.588 80.9037 553.034 82.5707C560.925 84.5711 568.038 89.3497 571.039 95.9065L598.713 148.361C599.268 149.583 598.935 151.806 597.49 153.361L595.934 155.028L556.146 196.036L551.478 200.815C550.033 202.37 547.588 201.926 546.699 199.926L540.809 187.59L521.915 216.484L433.225 228.153C403.106 223.819 377.321 218.262 385.879 212.595C425.334 186.59 440.894 140.692 438.004 146.36C408.107 205.26 398.216 187.145 398.216 187.145L398.66 177.588L401.216 127.023L401.439 123.134C401.55 121.244 403.217 120.8 404.773 119.8C422.444 108.242 461.899 88.2384 472.791 83.9043C481.904 80.1258 497.686 78.7922 502.354 78.2366Z" fill="white"/>
<path d="M502.576 79.0145C504.243 78.7922 506.133 78.7922 507.8 79.2368C507.578 79.0145 507.466 78.9034 507.244 78.6811C508.133 82.015 508.689 85.2379 510.801 88.1273C512.912 91.1278 516.135 93.2393 519.803 93.795C528.027 95.0174 534.362 88.2384 537.363 81.2371C537.141 81.3483 536.919 81.4594 536.696 81.6816C546.588 81.7928 557.48 82.793 565.371 89.572C569.149 92.9059 571.15 97.5735 573.484 101.908C580.152 114.577 586.821 127.246 593.489 139.915C594.6 142.137 595.823 144.249 596.934 146.471C597.49 147.471 598.268 148.583 598.268 149.805C598.157 152.028 596.268 153.473 594.823 154.917C593.489 156.251 592.155 157.696 590.822 159.029C580.93 169.253 570.928 179.477 561.036 189.701C558.702 192.146 556.368 194.48 554.034 196.925C553.034 197.925 552.145 199.037 551.033 200.037C549.366 201.481 547.922 200.259 547.144 198.592C545.699 195.48 544.143 192.369 542.698 189.257C542.365 188.479 541.92 187.701 541.587 186.923C541.253 186.368 540.475 186.479 540.142 186.923C534.585 195.369 529.139 203.815 523.582 212.261C522.804 213.484 522.026 214.595 521.248 215.817C521.47 215.706 521.692 215.595 521.915 215.373C511.134 216.818 500.465 218.151 489.684 219.596C473.569 221.707 457.453 223.819 441.338 225.93C439.226 226.264 437.115 226.486 435.003 226.819C434.558 226.931 434.003 226.931 433.558 227.042C432.002 227.153 430.224 226.597 428.668 226.375C420.666 225.152 412.664 223.819 404.773 222.152C399.327 220.929 393.659 219.818 388.658 217.484C387.546 216.929 385.879 216.262 385.323 215.151C384.879 214.373 385.546 213.706 386.212 213.15C388.991 211.15 391.769 209.261 394.437 207.149C396.993 205.149 399.549 202.926 401.994 200.703C410.886 192.48 418.665 183.145 425.223 173.032C429.779 166.142 433.892 158.807 437.226 151.25C437.893 149.694 438.782 147.916 439.115 146.249C439.226 145.693 439.338 145.027 438.56 144.804C437.67 144.582 437.337 145.582 437.004 146.138C431.224 157.473 425 169.142 416.776 178.922C413.664 182.7 409.552 187.257 404.551 188.479C402.55 188.924 400.772 188.479 399.438 187.145C399.216 186.923 398.994 186.368 398.882 186.368C399.327 186.256 398.882 186.923 398.994 186.701C399.105 186.59 398.994 186.145 398.994 186.034C398.994 185.145 399.105 184.256 399.105 183.367C399.216 181.478 399.327 179.477 399.438 177.588C400.105 164.363 400.772 151.25 401.439 138.025C401.661 133.247 401.883 128.579 402.106 123.8C402.106 122.8 402.217 122.022 403.106 121.356C404.217 120.578 405.44 119.911 406.662 119.133C408.774 117.799 410.997 116.466 413.22 115.132C418.332 112.132 423.444 109.242 428.557 106.464C439.004 100.796 449.562 95.3508 460.232 90.1276C463.9 88.3495 467.567 86.5714 471.346 85.0156C476.458 82.793 481.904 81.6816 487.461 80.7926C492.463 80.0147 497.353 79.459 502.354 78.9034C503.465 78.7922 503.465 77.1253 502.354 77.2364C491.018 78.4588 479.57 79.5702 469.123 84.2377C458.565 88.9052 448.34 94.2395 438.115 99.5738C426.89 105.464 415.554 111.576 404.884 118.466C403.661 119.244 402.106 119.8 401.328 121.022C400.661 121.911 400.661 122.8 400.661 123.8C400.661 124.912 400.55 126.023 400.55 127.023C400.438 129.357 400.327 131.802 400.216 134.136C399.772 143.471 399.327 152.917 398.771 162.252C398.549 167.586 398.216 172.809 397.993 178.144C397.882 180.366 397.771 182.7 397.66 184.923C397.66 185.701 397.438 186.59 397.66 187.257C397.882 187.701 398.327 188.257 398.771 188.59C400.883 190.479 403.662 190.591 406.218 189.701C412.553 187.479 417.332 181.255 421.111 176.143C425.223 170.698 428.779 164.919 432.113 159.029C434.336 155.14 436.448 151.139 438.56 147.027C438.671 146.805 439.004 146.36 439.004 146.027C439.004 145.805 439.004 145.916 439.004 146.027C439.004 146.36 437.337 145.693 437.67 145.36C437.782 145.249 437.67 145.36 437.67 145.471C436.892 147.249 436.337 149.25 435.448 151.028C433.781 154.806 431.891 158.474 429.891 162.03C423.889 172.809 416.665 182.922 408.218 191.924C403.106 197.37 397.549 202.482 391.658 207.038C390.102 208.149 388.546 209.261 386.99 210.372C386.101 211.039 384.99 211.594 384.323 212.372C383.545 213.261 383.212 214.484 383.879 215.595C384.657 216.929 386.212 217.707 387.435 218.373C389.769 219.485 392.214 220.263 394.77 221.041C402.217 223.263 409.996 224.597 417.665 225.93C422.444 226.708 427.223 227.486 432.113 228.153C432.891 228.264 433.336 228.375 434.003 228.264C435.892 228.042 437.67 227.82 439.56 227.486C447.34 226.486 455.008 225.486 462.788 224.486C472.568 223.152 482.46 221.93 492.24 220.596C500.02 219.596 507.911 218.596 515.691 217.484C517.58 217.262 519.47 217.04 521.359 216.706C521.692 216.706 522.248 216.706 522.582 216.484C523.026 216.151 523.471 215.262 523.804 214.817C528.583 207.483 533.362 200.259 538.141 192.924C539.364 191.035 540.586 189.257 541.809 187.368C541.364 187.368 540.809 187.368 540.364 187.368C541.587 190.035 542.92 192.702 544.143 195.369C545.365 197.814 546.477 202.148 549.922 201.926C551.589 201.815 552.589 200.481 553.59 199.481C554.701 198.37 555.813 197.258 556.924 196.036C557.591 195.258 558.369 194.591 559.036 193.813C569.038 183.589 578.93 173.254 588.932 163.03C591.6 160.363 594.156 157.584 596.823 154.917C598.824 152.806 601.158 150.139 599.602 147.138C598.935 145.693 598.157 144.36 597.379 143.026C590.488 130.024 583.709 117.021 576.818 104.019C574.929 100.574 573.262 97.0178 571.261 93.5727C568.371 88.4607 563.148 84.7933 557.702 82.6818C552.256 80.5703 546.366 80.0147 540.586 79.6813C539.253 79.5701 537.919 79.5701 536.696 79.5701C536.474 79.5701 536.141 79.6813 536.03 80.0147C533.362 86.3492 527.583 93.0171 519.914 91.6835C516.58 91.1278 513.801 89.0163 511.912 86.238C510.245 83.5709 509.8 80.7926 509.022 77.9032C508.911 77.6809 508.689 77.3475 508.467 77.3475C506.466 76.903 504.355 76.903 502.354 77.1253C501.132 77.5698 501.576 79.2368 502.576 79.0145Z" fill="#3F9798"/>
<path d="M436.781 317.836C436.781 317.836 440.115 333.506 458.454 333.061L436.781 317.836Z" fill="white"/>
<path d="M436.781 317.836C436.781 317.836 440.115 333.506 458.454 333.061" stroke="#3F9798" stroke-width="2" stroke-miterlimit="10"/>
<path d="M583.264 328.616C583.264 328.616 605.381 325.615 616.94 304.723L583.264 328.616Z" fill="white"/>
<path d="M583.264 328.616C583.264 328.616 605.381 325.615 616.94 304.723" stroke="#3F9798" stroke-width="2" stroke-miterlimit="10"/>
<path d="M578.707 511.094L535.918 499.758L424.111 470.086L433.225 438.414L438.893 418.855L511.579 438.08C511.579 438.08 562.148 454.639 581.375 474.531C584.042 477.31 586.154 480.088 587.488 482.866C598.046 505.093 578.707 511.094 578.707 511.094Z" fill="#3F9798"/>
<path d="M518.358 413.409L511.356 438.191L438.782 418.966L446.784 392.072C470.123 413.298 497.242 412.631 518.358 413.409Z" fill="#1F2125"/>
<path d="M603.714 262.048C601.936 274.384 598.157 288.275 593.156 302.611C583.598 330.283 569.927 359.177 559.147 380.625C558.591 381.737 558.035 382.737 557.48 383.848C548.811 387.293 541.031 388.849 534.14 391.183C530.361 392.516 519.247 393.294 515.913 393.739C510.578 394.406 505.132 394.406 499.798 393.961C497.464 393.739 495.241 393.517 493.129 393.183C466.122 389.849 445.228 380.959 423.889 362.622L431.891 369.068C431.891 369.068 441.894 354.287 453.897 335.839L473.124 309.723L474.347 307.834L420.221 312.502C416.443 312.835 412.664 311.946 409.441 309.835C402.217 305.278 390.88 294.832 388.991 274.384C387.546 258.825 394.326 243.267 404.55 231.265C405.995 229.598 407.996 228.486 410.219 228.153L426.667 226.153L519.803 214.484L539.141 212.039C539.03 212.15 611.827 204.26 603.714 262.048Z" fill="white"/>
<path d="M602.936 261.826C600.157 281.163 593.711 300.055 586.598 318.169C579.596 336.062 571.594 353.509 563.148 370.735C561.258 374.513 559.369 378.292 557.48 382.07C557.257 382.626 557.035 383.07 556.59 383.293C556.035 383.626 555.368 383.737 554.812 383.959C553.59 384.404 552.367 384.848 551.145 385.182C548.922 385.96 546.588 386.626 544.365 387.182C540.586 388.293 536.807 389.627 533.029 390.627C529.917 391.405 526.694 391.739 523.471 392.072C520.581 392.405 517.691 392.628 514.802 392.961C509.578 393.517 504.355 393.517 499.242 393.072C490.573 392.294 481.904 390.961 473.569 388.738C457.453 384.515 442.672 376.736 429.668 366.401C427.89 364.956 426.112 363.511 424.445 362.066C424 362.511 423.667 362.844 423.222 363.289C425.889 365.4 428.557 367.512 431.224 369.735C431.669 370.068 432.224 370.068 432.558 369.512C434.781 366.289 437.003 362.955 439.115 359.622C444.339 351.842 449.229 343.952 454.564 336.284C459.343 329.505 464.455 322.948 469.345 316.169C471.235 313.502 473.235 310.946 475.013 308.168C475.347 307.612 474.902 306.834 474.347 306.945C463.121 307.945 451.896 308.834 440.671 309.835C434.67 310.39 428.668 310.835 422.666 311.39C421.11 311.502 419.443 311.724 417.776 311.613C412.775 311.39 408.663 308.723 405.106 305.5C397.438 298.833 392.436 289.609 390.547 279.607C387.879 266.16 391.325 252.713 398.327 241.044C400.105 238.155 401.994 235.377 404.106 232.709C405.773 230.598 407.551 229.153 410.33 228.709C413.331 228.264 416.331 227.931 419.443 227.597C422.444 227.264 425.556 226.819 428.557 226.486C439.893 225.041 451.118 223.708 462.455 222.263C477.014 220.485 491.573 218.596 506.133 216.818C513.468 215.929 520.803 215.039 528.139 214.039C534.918 213.15 541.586 212.261 548.366 212.261C559.369 212.372 570.816 213.817 580.93 218.373C586.598 220.929 591.822 224.374 595.712 229.153C600.269 234.599 602.714 241.489 603.38 248.49C603.714 253.158 603.492 257.492 602.936 261.826C602.825 262.826 604.381 263.382 604.492 262.27C605.603 254.047 605.492 245.489 602.38 237.71C599.935 231.598 595.823 226.375 590.488 222.374C580.708 215.039 568.149 212.261 556.257 211.261C550.255 210.816 544.143 210.594 538.141 211.372C529.806 212.372 521.47 213.484 513.246 214.484C499.575 216.151 486.016 217.929 472.346 219.596C459.009 221.263 445.561 222.93 432.224 224.597C430.113 224.819 428.112 225.152 426.001 225.375C422.778 225.819 419.443 226.153 416.22 226.597C413.442 226.931 410.219 226.931 407.662 228.042C404.662 229.264 402.772 232.043 400.994 234.599C398.994 237.266 397.104 240.155 395.548 243.156C392.325 249.046 389.991 255.38 388.88 261.937C386.879 273.828 389.213 286.719 395.548 296.943C397.882 300.722 400.772 304.056 404.106 306.945C407.551 309.946 411.33 312.502 415.887 313.28C420.332 313.946 425.223 313.057 429.668 312.613C443.561 311.39 457.564 310.279 471.457 309.057C472.457 308.946 473.457 308.834 474.458 308.834C474.235 308.39 474.013 307.945 473.791 307.612C469.568 314.28 464.455 320.503 459.787 326.838C457.676 329.727 455.564 332.505 453.452 335.395C448.562 342.285 444.116 349.509 439.449 356.51C436.67 360.622 434.003 364.622 431.224 368.734C431.669 368.623 432.113 368.623 432.558 368.512C429.891 366.401 427.223 364.289 424.556 362.066C423.778 361.4 422.555 362.511 423.333 363.289C436.226 374.402 450.674 383.293 466.9 388.516C475.013 391.183 483.349 392.85 491.796 393.961C496.686 394.628 501.687 395.184 506.688 395.184C510.801 395.184 514.802 394.739 518.914 394.295C522.137 393.961 525.471 393.628 528.694 393.183C532.028 392.739 535.029 391.739 538.252 390.849C542.587 389.516 547.032 388.405 551.478 386.96C552.589 386.626 553.812 386.182 554.923 385.849C555.924 385.515 557.591 385.182 558.258 384.515C558.924 383.848 559.369 382.403 559.813 381.626C560.258 380.625 560.814 379.736 561.258 378.736C569.705 361.844 577.818 344.619 584.931 327.171C592.6 308.39 599.713 289.053 603.492 269.16C603.936 266.938 604.27 264.715 604.603 262.493C604.714 261.159 603.047 260.715 602.936 261.826Z" fill="#3F9798"/>
<path d="M566.926 376.625C566.371 382.181 563.259 391.961 559.702 396.628C558.813 397.851 557.146 399.74 555.812 400.74C554.812 401.407 552.367 403.296 551.256 403.852C547.366 406.297 540.475 408.519 535.474 410.075C535.14 410.186 534.807 410.297 534.474 410.409C533.696 410.631 533.029 410.853 532.473 411.075C532.362 411.075 532.362 411.075 532.251 411.187C524.582 413.409 511.912 415.965 496.686 416.076C475.68 416.299 449.673 411.742 425.334 395.072C422.555 393.183 419.777 391.072 416.998 388.849C415.553 387.627 414.553 386.071 414.22 384.404C413.331 379.959 423.778 362.844 423.778 362.844C445.006 378.18 466.011 385.626 493.018 388.405C495.241 388.627 497.464 388.849 499.687 388.96C505.021 389.405 510.467 389.405 515.802 388.738C519.136 388.405 530.361 387.627 534.029 386.626C540.92 384.626 548.811 383.292 557.368 380.514C560.591 379.292 563.703 378.18 566.926 376.625Z" fill="white"/>
<path d="M566.037 376.625C565.704 379.736 564.926 382.848 563.926 385.737C562.925 388.849 561.592 392.072 559.814 394.85C556.368 400.296 550.367 403.741 544.587 406.074C531.584 411.075 517.802 413.965 503.91 414.854C489.351 415.743 474.68 414.409 460.565 410.409C452.785 408.186 445.339 405.297 438.226 401.629C434.447 399.629 430.78 397.517 427.223 395.072C425.445 393.85 423.667 392.628 422 391.405C420.332 390.072 418.332 388.849 416.887 387.293C415.109 385.404 414.998 383.515 415.776 381.181C416.443 378.958 417.443 376.736 418.443 374.624C420.221 370.957 422.222 367.401 424.333 363.844C424.445 363.622 424.556 363.4 424.667 363.178C424.333 363.289 423.889 363.4 423.555 363.511C439.671 375.069 457.787 383.07 477.236 386.849C487.906 388.849 499.02 390.294 509.8 389.96C513.913 389.849 517.914 389.405 521.915 388.96C525.693 388.627 529.472 388.405 533.14 387.627C535.474 387.182 537.697 386.404 540.031 385.849C542.92 385.182 545.921 384.515 548.811 383.737C555.146 382.181 561.369 380.181 567.26 377.403C568.26 376.958 567.371 375.513 566.371 375.958C561.036 378.403 555.368 380.181 549.7 381.737C544.698 383.07 539.697 384.07 534.696 385.404C531.25 386.404 527.805 386.626 524.249 386.96C520.692 387.293 517.136 387.627 513.69 387.96C502.687 388.849 491.462 387.516 480.57 385.626C471.124 383.959 461.788 381.514 452.785 377.958C442.56 373.846 433.002 368.401 424.111 361.955C423.778 361.733 423.222 361.844 423 362.289C421.222 365.178 419.554 368.179 418.11 371.068C416.887 373.402 415.776 375.736 414.775 378.069C414.109 379.736 413.331 381.737 413.331 383.626C413.442 387.071 416.442 389.294 418.888 391.183C422.444 393.961 426.112 396.517 429.89 398.851C437.226 403.296 445.006 407.075 453.119 409.853C467.345 414.743 482.349 416.965 497.353 416.743C512.357 416.521 527.027 413.854 541.253 408.964C547.477 406.852 554.034 404.074 558.591 398.962C563.037 393.961 565.482 387.182 566.815 380.736C567.149 379.292 567.371 377.958 567.482 376.513C567.816 375.624 566.148 375.624 566.037 376.625Z" fill="#3F9798"/>
<path d="M551.812 32.6727C548.811 28.0051 546.699 28.8942 543.587 28.7831C542.031 28.7831 542.698 19.6703 529.917 19.3369C527.472 19.3369 524.36 19.7814 522.137 21.115C513.135 26.8938 512.912 30.1166 506.466 35.2287C506.133 35.5621 505.688 35.8955 505.688 36.4511C505.688 36.8957 506.022 37.2291 506.244 37.6736C507.578 39.7851 508.911 41.5632 510.356 43.0079L510.245 49.4535L514.468 50.3426L514.913 46.453C518.914 48.4533 523.36 48.2311 527.916 46.3418C534.585 43.5636 535.918 42.7856 538.252 43.3413C538.586 43.4524 539.808 43.6747 540.142 44.0081L540.697 44.4526C541.142 44.8971 541.587 45.6751 541.809 46.3418C542.253 47.6754 542.698 49.4535 543.365 51.1205L542.365 55.788L546.588 56.3437V56.2325H546.699C548.7 56.5659 549.7 53.3431 550.811 51.1205C553.367 45.8973 554.812 37.3402 551.812 32.6727Z" fill="#57C9BE"/>
<path d="M484.683 252.268C474.347 252.491 464.011 252.935 453.675 253.491C452.563 253.602 452.563 255.269 453.675 255.158C464.011 254.491 474.347 254.158 484.683 253.935C485.794 253.935 485.794 252.268 484.683 252.268Z" fill="#3F9798"/>
<path d="M507.911 254.602C513.579 255.714 518.469 258.381 522.804 262.27C526.249 265.271 528.25 269.049 529.139 273.606C531.25 285.052 528.694 297.277 525.693 308.279C521.025 325.393 514.024 341.84 507.466 358.177C503.354 368.401 499.464 378.736 495.797 389.183C495.463 390.183 497.019 390.627 497.353 389.627C500.909 379.847 504.465 370.179 508.355 360.511C510.912 354.176 513.468 347.842 515.913 341.507C519.914 331.061 524.026 320.503 527.027 309.724C530.139 298.499 532.584 286.608 531.028 274.939C530.361 269.827 528.361 265.271 524.582 261.715C520.025 257.492 514.579 254.38 508.467 253.158C507.355 252.824 506.911 254.38 507.911 254.602Z" fill="#3F9798"/>
<path d="M491.462 253.824C494.797 253.713 498.02 253.713 501.354 253.824C502.465 253.824 502.465 252.157 501.354 252.157C498.02 252.046 494.797 252.046 491.462 252.157C490.462 252.268 490.462 253.935 491.462 253.824Z" fill="#3F9798"/>
<path d="M391.102 262.159C409.663 259.27 428.223 257.047 446.895 255.714C448.006 255.602 448.006 253.935 446.895 254.047C428.112 255.38 409.33 257.603 390.658 260.603C389.547 260.715 389.991 262.381 391.102 262.159Z" fill="#3F9798"/>
<g opacity="0.5">
<path opacity="0.5" d="M512.69 172.254C512.69 168.809 511.356 165.808 509.022 163.363C508.244 162.474 508.355 162.141 509.467 161.807C510.245 161.585 511.134 161.474 511.801 161.03C516.246 158.807 518.469 154.917 519.358 150.361C520.47 145.138 517.914 139.025 512.801 136.692C510.801 135.803 510.801 135.692 511.579 133.58C511.69 133.358 511.69 133.247 511.801 133.024C512.134 132.246 511.912 131.691 511.023 131.357C510.134 131.024 509.356 130.691 508.467 130.357C505.91 129.357 505.91 129.357 505.021 131.913C504.688 132.913 504.243 132.913 503.465 132.58C502.354 132.135 501.131 131.58 500.02 131.135C496.908 129.913 497.353 130.135 498.242 127.468C498.464 126.69 498.353 126.357 497.575 126.023C496.241 125.579 494.907 125.023 493.574 124.467C492.462 124.023 491.907 124.134 491.462 125.245C491.351 125.467 491.24 125.801 491.129 126.023C490.906 127.023 490.24 127.134 489.35 126.801C487.906 126.245 486.461 125.69 485.016 125.023C484.016 124.578 483.349 124.801 482.904 125.912C482.237 127.912 481.348 129.913 480.57 131.913C480.126 133.024 480.459 133.58 481.459 133.802C482.126 134.025 482.793 134.247 483.46 134.58C484.905 135.136 484.905 135.136 484.349 136.581C482.349 141.915 480.237 147.249 478.236 152.472C478.236 152.472 474.124 163.141 472.124 168.586C471.679 169.698 471.123 169.92 470.123 169.476C469.345 169.142 468.456 168.92 467.678 168.586C466.9 168.253 466.567 168.586 466.233 169.253C465.344 171.254 464.566 173.254 463.677 175.254C463.121 176.699 463.232 176.921 464.566 177.477C466.122 178.033 467.678 178.588 469.234 179.033C470.123 179.366 470.345 179.811 470.012 180.7C469.567 181.589 469.234 182.589 468.789 183.589C468.345 184.478 468.567 185.034 469.567 185.256C471.123 185.812 472.791 186.368 474.346 186.812C474.68 186.923 475.347 186.59 475.458 186.256C475.902 185.367 476.236 184.478 476.569 183.478C476.903 182.478 477.458 182.145 478.57 182.589C480.015 183.256 481.459 183.7 482.793 184.256C483.793 184.589 484.016 185.256 483.682 186.145C483.349 187.034 483.015 187.923 482.682 188.812C482.349 189.479 482.571 190.035 483.349 190.257C484.238 190.59 485.127 190.924 486.016 191.257C489.239 192.48 488.684 192.813 489.906 189.479C490.795 187.145 490.795 187.145 493.24 187.923C495.352 188.59 497.353 189.035 499.575 188.59C503.688 187.812 506.911 185.478 509.245 182.145C511.579 179.366 512.801 176.032 512.69 172.254ZM493.574 140.137C494.018 139.025 494.574 138.692 495.685 139.248C497.464 140.026 504.577 142.693 506.244 143.36C511.023 145.027 511.245 149.805 508.911 153.361C507.355 155.695 504.577 156.695 501.909 155.806C498.131 154.473 494.352 153.028 490.573 151.583C489.684 151.25 489.462 150.805 489.795 149.916C491.129 146.582 492.351 143.36 493.574 140.137ZM500.353 177.81C498.353 179.811 495.908 179.366 493.463 178.588C491.462 177.922 483.905 174.921 482.015 174.254C481.015 173.921 480.681 173.476 481.126 172.365C482.682 168.475 484.127 164.586 485.572 160.696C485.905 159.696 486.461 159.474 487.461 159.807C491.462 161.252 495.908 162.697 499.909 164.586C503.243 166.142 504.354 169.92 503.021 173.476C502.354 175.032 501.465 176.588 500.353 177.81Z" fill="#44A2A0"/>
</g>
<path d="M713.883 44.7114L659.3 31.1819L629.538 151.235L684.121 164.764L713.883 44.7114Z" fill="white"/>
<path d="M714.965 49.4535C715.743 46.2307 713.854 43.0079 710.631 42.23L663.285 30.45C660.062 29.6721 656.839 31.5613 656.061 34.7842L628.498 146.027C627.72 149.25 629.61 152.472 632.833 153.25L680.179 165.03C683.402 165.808 686.625 163.919 687.403 160.696L714.965 49.4535ZM680.179 162.696L634.055 151.25C631.721 150.694 630.277 148.249 630.832 145.916L658.062 36.2289C658.617 33.8951 661.062 32.4504 663.396 33.0061L709.52 44.4526C711.854 45.0083 713.298 47.4531 712.743 49.7869L685.513 159.474C684.958 161.807 682.512 163.252 680.179 162.696Z" fill="#44A2A0"/>
<path d="M699.295 47.6754L670.843 40.6741C669.287 40.3407 668.398 38.7849 668.731 37.2291L669.398 34.673C669.62 34.0062 670.287 33.5617 670.954 33.784L702.407 41.5632C703.073 41.7855 703.518 42.4522 703.296 43.119L702.629 45.6751C702.407 47.1198 700.851 48.0088 699.295 47.6754Z" fill="#44A2A0"/>
<path d="M679.734 140.804L645.058 132.246C643.724 131.913 642.946 130.58 643.28 129.357L644.058 126.357C644.391 125.023 645.725 124.245 646.947 124.578L681.623 133.136C682.957 133.469 683.735 134.802 683.401 136.025L682.623 139.025C682.401 140.359 681.067 141.137 679.734 140.804Z" fill="#44A2A0"/>
<path d="M657.173 94.684C657.909 94.684 658.506 94.087 658.506 93.3504C658.506 92.6139 657.909 92.0169 657.173 92.0169C656.436 92.0169 655.839 92.6139 655.839 93.3504C655.839 94.087 656.436 94.684 657.173 94.684Z" fill="#B5B5B5"/>
<path d="M662.285 95.9065C663.022 95.9065 663.619 95.3094 663.619 94.5729C663.619 93.8364 663.022 93.2393 662.285 93.2393C661.549 93.2393 660.951 93.8364 660.951 94.5729C660.951 95.3094 661.549 95.9065 662.285 95.9065Z" fill="#B5B5B5"/>
<path d="M667.397 97.24C668.134 97.24 668.731 96.643 668.731 95.9065C668.731 95.17 668.134 94.5729 667.397 94.5729C666.661 94.5729 666.064 95.17 666.064 95.9065C666.064 96.643 666.661 97.24 667.397 97.24Z" fill="#B5B5B5"/>
<path d="M652.616 112.687C653.352 112.687 653.949 112.09 653.949 111.354C653.949 110.617 653.352 110.02 652.616 110.02C651.879 110.02 651.282 110.617 651.282 111.354C651.282 112.09 651.879 112.687 652.616 112.687Z" fill="#B5B5B5"/>
<path d="M657.839 113.91C658.576 113.91 659.173 113.313 659.173 112.576C659.173 111.84 658.576 111.243 657.839 111.243C657.103 111.243 656.506 111.84 656.506 112.576C656.506 113.313 657.103 113.91 657.839 113.91Z" fill="#B5B5B5"/>
<path d="M662.952 115.243C663.688 115.243 664.286 114.646 664.286 113.91C664.286 113.173 663.688 112.576 662.952 112.576C662.215 112.576 661.618 113.173 661.618 113.91C661.618 114.646 662.215 115.243 662.952 115.243Z" fill="#B5B5B5"/>
<path d="M667.953 116.466C668.69 116.466 669.287 115.869 669.287 115.132C669.287 114.396 668.69 113.799 667.953 113.799C667.217 113.799 666.619 114.396 666.619 115.132C666.619 115.869 667.217 116.466 667.953 116.466Z" fill="#B5B5B5"/>
<path d="M672.954 117.688C673.691 117.688 674.288 117.091 674.288 116.355C674.288 115.618 673.691 115.021 672.954 115.021C672.218 115.021 671.621 115.618 671.621 116.355C671.621 117.091 672.218 117.688 672.954 117.688Z" fill="#B5B5B5"/>
<path d="M684.18 95.3508L682.512 94.9063" stroke="#2E273F" stroke-width="0.75" stroke-miterlimit="10"/>
<path d="M681.512 94.684L676.622 93.4616" stroke="#2E273F" stroke-width="0.5" stroke-miterlimit="10"/>
<path d="M685.18 95.5731L690.292 96.7955C691.626 97.1289 692.515 98.5736 692.182 99.9072L691.292 103.352C690.959 104.686 689.514 105.575 688.181 105.242L653.727 96.6844C652.393 96.351 651.504 94.9063 651.838 93.5727L652.727 90.1276C653.06 88.7941 654.505 87.905 655.839 88.2384L675.622 93.1282" stroke="#2E273F" stroke-width="0.5" stroke-miterlimit="10"/>
<path d="M659.173 108.242L657.506 107.798" stroke="#2E273F" stroke-width="0.75" stroke-miterlimit="10"/>
<path d="M665.063 109.687L660.173 108.464" stroke="#2E273F" stroke-width="0.5" stroke-miterlimit="10"/>
<path d="M666.064 109.909L685.847 114.799C687.18 115.132 688.069 116.577 687.736 117.911L686.847 121.356C686.513 122.689 685.069 123.578 683.735 123.245L649.281 114.688C647.948 114.354 647.059 112.91 647.392 111.576L648.281 108.131C648.615 106.797 650.059 105.908 651.393 106.242L656.506 107.464" stroke="#2E273F" stroke-width="0.5" stroke-miterlimit="10"/>
<path d="M643.391 75.236C643.391 75.236 648.948 72.7911 650.726 72.0132C652.504 71.2353 655.172 70.7908 657.061 71.1242C659.284 71.5687 660.284 74.0136 657.395 77.5698C652.171 84.0154 639.834 93.4616 639.834 93.4616L643.391 75.236Z" fill="#1F2125"/>
<path opacity="0.1" d="M123.921 388.516L106.25 341.285C104.694 337.062 101.026 334.061 96.5808 333.283L46.6788 324.948C42.2332 324.171 37.7876 325.838 34.8979 329.394L2.88954 368.401C-0.000109843 371.846 -0.778092 376.625 0.777872 380.736L18.4492 427.967C20.0051 432.19 23.6728 435.191 28.1184 435.969L77.9092 444.304C82.3548 445.082 86.8004 443.415 89.6901 439.858L121.81 400.851C124.699 397.406 125.477 392.739 123.921 388.516Z" fill="#00AA69"/>
<path opacity="0.1" d="M117.475 279.496L133.146 259.492C134.813 257.381 135.147 254.713 134.146 252.268L124.699 228.709C123.699 226.264 121.476 224.597 118.92 224.152L93.6912 220.485C91.135 220.151 88.4676 221.152 86.9117 223.152L71.2409 243.156C69.5738 245.267 69.2404 247.934 70.2406 250.379L79.6875 273.939C80.6878 276.384 82.9106 278.051 85.4668 278.496L110.696 282.163C113.252 282.607 115.919 281.496 117.475 279.496Z" fill="#00AA69"/>
<path d="M352.759 593.442C360.002 593.442 365.874 587.571 365.874 580.329C365.874 573.086 360.002 567.215 352.759 567.215C345.516 567.215 339.645 573.086 339.645 580.329C339.645 587.571 345.516 593.442 352.759 593.442Z" stroke="#2E273F" stroke-miterlimit="10"/>
<path d="M317.528 603.333C322.684 603.333 326.863 599.153 326.863 593.998C326.863 588.842 322.684 584.663 317.528 584.663C312.372 584.663 308.192 588.842 308.192 593.998C308.192 599.153 312.372 603.333 317.528 603.333Z" stroke="#2E273F" stroke-miterlimit="10"/>
<path d="M529.695 61.7891C529.361 63.0116 528.917 64.4563 527.805 65.1231C526.583 65.7898 524.915 65.3453 524.137 64.234C523.359 63.1227 523.359 61.9002 523.804 60.5667" fill="#F4F4F4"/>
<path fill-rule="evenodd" clip-rule="evenodd" d="M683.179 70.9019L678.956 72.2355L680.734 74.0136L684.957 72.68L687.402 63.0116L680.845 56.2325L671.843 59.122C670.62 64.0117 669.398 69.0127 668.175 73.9024L669.953 75.6805C671.176 70.7908 672.398 65.7898 673.621 60.9001L680.289 58.7886L685.18 63.7895L683.179 70.9019ZM672.176 74.9026L671.509 77.4586L674.621 80.6815L676.955 79.9035L672.176 74.9026ZM686.624 74.4581L679.956 76.5696L673.399 69.7906L672.732 72.3466C674.955 74.5692 677.066 76.903 679.289 79.1256C682.29 78.1254 685.291 77.1252 688.291 76.2362L691.959 61.4557L681.956 51.1205L668.286 55.5657L664.619 70.3462L666.397 72.1243L670.065 57.3438L681.401 53.6765L689.736 62.2336L686.624 74.4581Z" fill="#5AD1D3"/>
<path d="M227.393 68.2348L254.289 78.6811C254.289 78.6811 265.625 74.5693 274.627 62.9004C284.074 50.676 291.298 49.1201 293.966 48.4534C297.411 47.6754 273.294 39.3406 273.294 39.3406C273.294 39.3406 266.181 38.1181 254.622 50.676C242.841 63.7895 227.393 68.2348 227.393 68.2348Z" fill="#3F9798"/>
<path d="M263.069 65.0119C267.673 65.0119 271.404 62.2257 271.404 58.7886C271.404 55.3515 267.673 52.5652 263.069 52.5652C258.465 52.5652 254.733 55.3515 254.733 58.7886C254.733 62.2257 258.465 65.0119 263.069 65.0119Z" fill="white"/>
<path d="M233.95 129.357L211.5 138.136C211.5 138.136 202.053 134.691 194.495 124.912C186.604 114.688 180.492 113.354 178.269 112.798C175.379 112.132 195.496 105.242 195.496 105.242C195.496 105.242 201.497 104.241 211.055 114.799C220.947 125.579 233.95 129.357 233.95 129.357Z" fill="#3F9798"/>
<path d="M204.053 126.579C207.92 126.579 211.055 124.24 211.055 121.356C211.055 118.471 207.92 116.132 204.053 116.132C200.186 116.132 197.052 118.471 197.052 121.356C197.052 124.24 200.186 126.579 204.053 126.579Z" fill="white"/>
</svg>
