<svg width="680" height="543" viewBox="0 0 680 543" fill="none" xmlns="http://www.w3.org/2000/svg">
<path opacity="0.1" d="M280 118.6V46.3999C280 42.7154 278.036 39.3287 274.886 37.4679L212.632 1.36771C209.445 -0.455904 205.555 -0.455904 202.368 1.36771L140.114 37.4679C136.927 39.2915 135 42.7154 135 46.3999V118.6C135 122.285 136.964 125.671 140.114 127.532L202.368 163.632C205.555 165.456 209.445 165.456 212.632 163.632L274.886 127.532C278.036 125.671 280 122.285 280 118.6Z" fill="#17BFBF"/>
<path opacity="0.1" d="M679.364 428.219V280.781C679.364 275.473 676.443 270.43 671.929 267.776L544.21 193.991C539.563 191.336 533.855 191.336 529.208 193.991L401.356 267.776C396.709 270.43 393.921 275.34 393.921 280.781V428.219C393.921 433.527 396.842 438.57 401.356 441.224L529.075 515.009C533.722 517.664 539.431 517.664 544.077 515.009L671.797 441.224C676.443 438.57 679.364 433.66 679.364 428.219Z" fill="#17BFBF"/>
<path opacity="0.1" d="M228.071 449.74V331.937C228.071 327.695 225.737 323.666 222.131 321.545L120.082 262.591C116.369 260.47 111.808 260.47 108.095 262.591L5.94046 321.545C2.22768 323.666 0 327.589 0 331.937V449.74C0 453.982 2.33376 458.011 5.94046 460.132L107.989 519.087C111.702 521.207 116.263 521.207 119.976 519.087L222.024 460.132C225.737 458.011 228.071 454.088 228.071 449.74Z" fill="#17BFBF"/>
<path d="M254.987 302.574C248.907 317.294 240.035 330.666 234.166 345.489C228.49 359.832 226.205 375.339 231.136 390.226C240.17 417.521 265.147 435.766 288.066 451.003C301.869 460.166 315.776 469.195 329.633 478.277C341.421 486.001 354.767 495.169 369.584 494.026C376.022 493.51 382.139 491 387.085 486.847C391.581 483.106 396.216 477.323 395.709 471.13C395.208 464.839 390.697 459.072 388.298 453.391C385.695 447.23 382.768 441.161 378.817 435.739C374.306 429.557 368.495 425.223 362.814 420.216C356.521 414.597 350.66 408.513 345.281 402.014C339.756 395.432 334.549 388.539 329.59 381.532C327.332 378.33 324.939 375.139 322.88 371.797C321.349 369.313 318.993 364.941 321.467 362.359C323.623 360.112 320.346 356.867 318.061 358.953C313.614 363.017 315.544 369.135 318.271 373.608C321.899 379.537 326.496 385.105 330.668 390.7C339.163 402.159 348.218 413.338 358.869 422.857C363.919 427.384 369.449 431.222 373.697 436.59C377.701 441.652 380.704 447.468 383.258 453.359C384.487 456.167 385.609 459.002 387.031 461.729C388.454 464.457 390.222 467.243 390.804 470.316C391.974 476.487 385.582 482.373 380.817 485.262C367.784 493.159 353.042 486.879 341.265 479.727C327.569 471.415 314.315 462.268 300.91 453.52C278.105 438.655 253.095 423.25 239.814 398.542C235.901 391.266 233.206 383.278 232.807 374.977C232.409 366.585 234.058 358.231 236.58 350.259C241.76 333.889 250.896 319.099 257.132 303.145C257.671 301.808 255.515 301.264 254.976 302.557L254.987 302.574Z" fill="#051128"/>
<path d="M234.597 347.392C250.389 367.82 269.395 382.028 292.324 393.902C294.14 394.845 296.01 395.778 297.482 397.201C298.781 398.456 299.713 400.041 300.764 401.513C302.289 403.628 304.089 405.532 306.117 407.172C307.368 408.28 308.856 409.09 310.466 409.538C313.161 410.153 316.072 408.999 318.088 407.075C321.365 403.981 322.572 399.265 322.82 394.764C323.068 390.264 322.502 385.741 322.923 381.257C323.564 374.665 326.259 367.825 323.92 361.632C322.815 358.705 320.686 356.296 318.616 353.957C308.375 342.454 297.056 330.294 281.964 327.362" fill="#051128"/>
<path d="M233.643 347.947C242.062 359.3 252.042 369.407 263.288 377.969C269.017 382.345 274.994 386.387 281.188 390.075C283.973 391.746 286.799 393.363 289.666 394.926C291.213 395.767 292.846 396.543 294.312 397.508C296.334 398.861 297.487 400.71 298.888 402.645C302.527 407.668 308.316 413.646 315.129 411.414C321.78 409.258 324.432 402.019 324.971 395.654C325.316 391.563 324.847 387.461 325.008 383.37C325.17 379.279 326.2 375.436 326.739 371.447C327.208 367.976 327.321 364.403 326.124 361.055C324.928 357.708 322.604 354.965 320.298 352.313C310.11 340.6 298.673 327.772 282.718 324.646C279.15 323.945 277.603 329.357 281.204 330.138C293.854 332.876 303.583 341.457 312.261 350.62C316.729 355.315 322.502 360.182 322.621 367.135C322.696 370.606 321.812 374.013 321.246 377.414C320.681 381.11 320.469 384.851 320.616 388.588C320.761 394.689 321.117 404.596 313.959 407.205C307.114 409.695 302.85 399.367 299.023 395.708C296.959 393.73 294.318 392.576 291.806 391.288C288.647 389.671 285.527 387.984 282.444 386.227C277.054 383.154 271.831 379.84 266.786 376.25C255.054 367.82 244.495 357.869 235.384 346.659C234.597 345.699 232.899 346.982 233.648 347.995L233.643 347.947Z" fill="#051128"/>
<path d="M294.587 119.411C260.355 138.276 236.704 171.818 218.265 206.297C206.197 228.865 199.68 245.068 194.872 270.201C192.889 280.55 191.881 291.222 193.622 301.614C195.363 312.006 200.09 322.15 208.045 329.033C209.706 330.461 211.5 331.755 212.934 333.415C214.368 335.075 215.387 337.037 216.912 338.595C222.755 344.524 232.764 342.077 240.31 338.525C242.261 337.609 244.266 336.579 245.522 334.822C246.778 333.065 246.983 330.381 245.409 328.893C250.287 324.295 250.476 316.787 251.284 310.13C252.5 300.207 255.807 290.654 260.986 282.102" fill="#051128"/>
<path d="M294.043 118.473C257.316 137.208 233.195 173.618 214.557 209.165C204.93 227.491 197.621 246.464 193.476 266.8C189.256 287.514 188.361 311.769 204.132 328.133C206.229 330.289 208.773 331.987 210.859 334.164C212.945 336.342 214.223 339.107 216.578 341.026C220.259 344.017 225.089 344.589 229.654 343.969C234.68 343.282 239.513 341.577 243.857 338.956C247.862 336.461 250.325 331.491 246.843 327.47V330.343C252.589 324.57 252.475 316.404 253.645 308.875C255.076 299.82 258.277 291.137 263.067 283.321C264.684 280.669 260.48 278.216 258.911 280.89C254.511 288.315 251.449 296.455 249.867 304.94C248.541 312.222 249.603 321.827 243.975 327.47C243.606 327.857 243.4 328.371 243.4 328.906C243.4 329.441 243.606 329.956 243.975 330.343C247.371 334.283 237.028 337.835 234.699 338.611C230.818 339.894 226.35 340.859 222.345 339.581C217.618 338.072 215.877 333.113 212.374 330.003C208.725 326.769 205.291 323.805 202.602 319.671C191.062 301.927 194.517 279.564 199.066 260.154C203.34 241.974 210.536 225.038 219.251 208.572C227.919 192.192 237.55 176.205 249.096 161.679C261.951 145.509 277.41 131.064 295.137 120.348C296.339 119.621 295.283 117.842 294.059 118.473H294.043Z" fill="#051128"/>
<path d="M279.781 194.984C280.32 183.994 277.668 173.176 276.547 162.256C275.426 151.336 276.062 139.472 282.293 130.519C289.16 120.64 301.158 116.505 312.331 112.932C319.592 110.62 326.884 108.307 334.274 106.62C364.413 99.8443 395.969 103.716 423.576 117.578C428.879 120.273 434.151 123.415 437.751 128.261C444.305 137.068 444.004 149.331 443.4 160.52C442.735 172.809 442.074 185.099 441.416 197.388C440.791 208.987 444.699 221.519 441.772 233.215C438.269 247.229 426.017 251.757 413.669 253.864C380.305 259.556 344.828 263.852 313.954 249.994" fill="#051128"/>
<path d="M280.843 194.984C281.716 178.814 276.024 162.892 278.148 146.733C279.107 139.494 281.845 132.6 287.144 127.447C292.135 122.596 298.63 119.578 305.103 117.233C319.893 111.881 335.373 107.251 351.091 105.828C366.643 104.419 382.322 105.744 397.418 109.741C404.883 111.713 412.156 114.351 419.15 117.621C426.033 120.855 433.385 124.58 437.385 131.371C440.98 137.484 441.589 144.846 441.546 151.778C441.497 159.96 440.748 168.153 440.311 176.318C439.869 184.565 438.98 192.925 439.131 201.177C439.282 209.316 440.953 217.374 440.586 225.529C440.284 232.277 438.328 238.848 433.229 243.516C428.847 247.531 422.988 249.536 417.296 250.819C409.281 252.625 401.002 253.681 392.858 254.727C384.009 255.922 375.103 256.642 366.177 256.883C348.768 257.239 331.191 255.039 315.155 247.941C312.347 246.696 309.895 250.841 312.725 252.096C343.636 265.787 378.121 262.16 410.51 256.732C422.799 254.678 436.447 251.283 442.138 238.848C445.523 231.458 445.378 223.158 444.65 215.288C444.273 211.073 443.761 206.869 443.572 202.638C443.4 198.083 443.804 193.523 444.047 188.98C444.553 179.676 445.06 170.373 445.513 161.07C445.879 153.524 446.181 145.773 444.435 138.346C442.799 131.213 438.605 124.927 432.647 120.678C426.222 115.988 418.493 112.77 411.087 109.995C395.533 104.181 379.04 101.287 362.437 101.457C344.924 101.651 328.415 105.898 311.846 111.218C298.743 115.428 284.459 120.748 278.272 134.126C271.356 149.088 275.701 165.506 277.824 180.992C278.502 185.631 278.801 190.318 278.719 195.006C278.681 196.38 280.773 196.364 280.843 195.006V194.984Z" fill="#051128"/>
<path d="M302.915 55.9487C302.279 67.3917 303.211 83.9767 304.812 95.3389C305.184 97.9422 305.621 100.578 306.731 102.96C310.321 110.679 319.931 113.697 328.442 113.395L330.221 126.272C330.393 127.544 330.593 128.875 331.358 129.916C332.533 131.533 334.711 131.969 336.694 132.131C345.019 132.776 353.297 130.403 360.017 125.447C363.305 123 366.264 119.745 367.088 115.745C368.166 110.469 365.407 105.283 363.768 100.152C358.917 84.9254 363.477 63.0635 360.308 47.4002C359.602 43.9237 358.416 40.3932 355.942 37.8545C353.295 35.1595 349.506 33.8713 345.809 33.0035C337.661 31.1299 329.24 30.7645 320.961 31.9255C317.15 32.4645 313.237 33.3916 310.24 35.8063C305.087 39.9674 303.998 47.2547 303.276 53.8359" fill="white"/>
<path d="M301.891 55.9486C300.864 69.2481 301.26 82.6191 303.071 95.8346C303.961 102.303 306.187 107.763 311.878 111.385C316.756 114.489 322.739 115.535 328.442 115.39L326.534 113.934C327.105 118.063 327.666 122.192 328.248 126.331C328.695 129.49 329.709 132.104 332.856 133.338C338.942 135.748 347.409 133.877 353.236 131.484C359.219 129.026 365.687 124.822 368.231 118.591C371.255 111.18 366.614 104.135 364.916 97.0312C361.472 82.8878 364.377 67.9952 363.1 53.6363C362.523 47.0659 361.359 39.4821 355.807 35.1863C350.067 30.7449 341.437 29.8771 334.436 29.4729C326.469 29.0094 315.916 29.0417 309.281 34.1622C303.271 38.803 302.338 46.791 301.735 53.8357C301.584 55.5497 304.532 55.9917 304.769 54.2453C305.529 48.7422 306.386 42.3873 310.434 38.2101C315.107 33.3591 323.683 33.2297 329.94 33.1812C336.71 33.1273 344.466 33.7202 350.708 36.5661C357.117 39.5037 358.545 46.4298 359.181 52.8278C360.372 64.9068 358.755 77.0828 359.806 89.151C360.345 95.1393 361.887 100.47 363.843 106.113C364.921 109.261 366 112.695 365.029 116.015C364.102 119.249 361.644 121.793 359.036 123.766C353.352 128.01 346.445 130.296 339.351 130.282C337.734 130.282 335.772 130.325 334.252 129.668C332.242 128.8 332.253 126.633 331.989 124.757C331.45 120.796 330.911 116.834 330.372 112.872C330.258 112.042 329.245 111.401 328.458 111.417C323.219 111.546 317.678 110.609 313.253 107.644C307.734 103.925 306.893 97.7157 306.117 91.5711C304.629 79.7939 303.659 67.8551 303.961 55.9701C303.993 54.6388 302.02 54.6765 301.918 55.9701L301.891 55.9486Z" fill="#051128"/>
<path d="M336.424 108.41C332.846 110.959 329.094 111.029 324.933 111.838C323.181 112.177 323.693 114.754 325.343 114.829C329.936 114.946 334.395 113.281 337.788 110.183C338.726 109.337 337.476 107.666 336.424 108.41Z" fill="#051128"/>
<path d="M322.373 361.917C386.946 361.917 439.293 309.571 439.293 244.997C439.293 180.424 386.946 128.078 322.373 128.078C257.8 128.078 205.453 180.424 205.453 244.997C205.453 309.571 257.8 361.917 322.373 361.917Z" fill="white"/>
<path d="M230.576 155.529C183.012 195.109 176.541 265.753 216.121 313.316C255.702 360.879 326.345 367.35 373.909 327.77C421.472 288.19 427.943 217.546 388.363 169.983C348.782 122.42 278.139 115.948 230.576 155.529Z" fill="#5BD3D4"/>
<path d="M264.81 289.07L241.203 333.901C240.755 334.579 240.582 335.402 240.719 336.204C240.857 337.005 241.294 337.724 241.943 338.214C242.614 338.683 243.444 338.869 244.252 338.731C245.059 338.592 245.779 338.14 246.256 337.474L269.779 292.713C270.232 292.036 270.408 291.211 270.27 290.409C270.132 289.606 269.691 288.887 269.039 288.4C268.367 287.93 267.537 287.744 266.73 287.883C265.922 288.022 265.202 288.473 264.726 289.14L264.81 289.07Z" fill="white"/>
<path d="M278.137 302.964L260.504 342.169C258.867 345.782 264.661 347.883 266.298 344.27L283.932 305.066C285.569 301.453 279.775 299.351 278.137 302.964Z" fill="white"/>
<path d="M365.368 158.577L341.606 224.961C341.385 225.715 341.46 226.525 341.815 227.226C342.169 227.926 342.778 228.466 343.517 228.733C344.255 229.001 345.068 228.977 345.789 228.667C346.511 228.357 347.087 227.783 347.401 227.063L371.163 160.678C371.384 159.924 371.309 159.115 370.954 158.414C370.6 157.713 369.991 157.174 369.252 156.906C368.514 156.638 367.701 156.662 366.98 156.972C366.258 157.283 365.682 157.856 365.368 158.577Z" fill="white"/>
<path d="M346.671 149.633C340.781 165.494 334.488 181.178 327.79 196.685C326.243 200.338 332.023 202.422 333.585 198.787C340.254 183.246 346.548 167.562 352.466 151.735C352.687 150.981 352.612 150.171 352.257 149.471C351.903 148.77 351.294 148.231 350.555 147.963C349.817 147.695 349.004 147.719 348.283 148.029C347.561 148.339 346.985 148.913 346.671 149.633Z" fill="white"/>
<path d="M410.911 233.474C412.976 261.582 404.078 289.399 386.081 311.09C368.085 332.78 342.388 346.66 314.381 349.818C286.374 352.975 258.232 345.166 235.858 328.027C213.483 310.888 198.614 285.751 194.369 257.888C190.124 230.025 196.833 201.601 213.088 178.576C229.344 155.552 253.883 139.716 281.56 134.39C309.237 129.064 337.9 134.662 361.54 150.009C385.179 165.356 401.958 189.261 408.357 216.71C409.605 222.23 410.459 227.832 410.911 233.474C411.301 237.366 417.299 236.391 416.974 232.474C414.563 202.864 400.778 175.338 378.511 155.672C356.245 136.006 327.227 125.727 297.545 126.994C267.864 128.26 239.827 140.973 219.317 162.465C198.806 183.956 187.416 212.556 187.537 242.264C187.657 271.972 199.279 300.479 219.963 321.803C240.647 343.127 268.787 355.612 298.477 356.638C328.167 357.664 357.101 347.15 379.208 327.304C401.314 307.458 414.875 279.821 417.045 250.192C417.451 244.292 417.427 238.371 416.974 232.474C416.685 228.498 410.602 229.542 410.911 233.474Z" fill="#051128"/>
<path d="M378.319 236.007C379.777 255.666 373.568 275.126 360.993 290.307C348.419 305.489 330.455 315.212 310.868 317.439C291.281 319.666 271.593 314.223 255.931 302.252C240.269 290.281 229.85 272.712 226.858 253.227C223.866 233.743 228.533 213.857 239.882 197.738C251.23 181.619 268.378 170.52 287.731 166.768C307.083 163.015 327.137 166.901 343.688 177.609C360.238 188.318 372 205.019 376.508 224.209C377.393 228.093 377.998 232.036 378.319 236.007C378.709 239.899 384.707 238.925 384.399 234.993C382.636 213.83 372.752 194.17 356.817 180.132C340.882 166.093 320.133 158.765 298.916 159.684C277.7 160.602 257.661 169.694 242.999 185.057C228.336 200.419 220.188 220.86 220.259 242.096C220.331 263.333 228.618 283.718 243.383 298.981C258.149 314.244 278.249 323.201 299.471 323.976C320.694 324.751 341.393 317.283 357.232 303.138C373.072 288.992 382.823 269.265 384.443 248.091C384.748 243.73 384.733 239.352 384.399 234.993C384.093 231.031 378.025 232.092 378.319 236.007Z" fill="#051128"/>
<path d="M314.159 128.368C310.682 128.641 307.246 129.077 303.853 129.679C331.778 130.08 358.545 140.897 378.908 160.01C399.271 179.123 411.759 205.153 413.926 232.996C416.092 260.84 407.779 288.488 390.618 310.52C373.456 332.553 348.684 347.38 321.157 352.095C324.561 352.111 328.049 352.057 331.496 351.782C346.3 350.823 360.766 346.934 374.055 340.34C387.344 333.746 399.191 324.578 408.909 313.369C418.627 302.16 426.022 289.133 430.665 275.043C435.308 260.953 437.107 246.081 435.957 231.291C434.807 216.5 430.731 202.086 423.965 188.883C417.2 175.68 407.88 163.953 396.546 154.38C385.212 144.808 372.09 137.582 357.942 133.122C343.793 128.661 328.899 127.055 314.125 128.396L314.159 128.368Z" fill="#051128"/>
<path d="M313.646 125.32C310.208 125.617 306.777 126.059 303.354 126.648C299.992 127.195 300.002 132.685 303.588 132.749C330.773 133.069 356.855 143.543 376.711 162.113C396.567 180.683 408.762 206.006 410.899 233.108C413.036 260.211 404.961 287.133 388.261 308.585C371.561 330.038 347.443 344.47 320.644 349.046C317.31 349.627 317.205 355.185 320.878 355.148C336.443 355.385 351.894 352.462 366.296 346.555C380.699 340.648 393.753 331.881 404.67 320.784C415.586 309.687 424.138 296.491 429.808 281.994C435.477 267.496 438.147 251.999 437.655 236.441C437.163 220.882 433.52 205.585 426.946 191.475C420.371 177.365 411.003 164.735 399.407 154.35C387.811 143.964 374.229 136.04 359.482 131.055C344.736 126.07 329.131 124.128 313.612 125.348C309.667 125.64 310.711 131.722 314.626 131.428C329.298 130.316 344.043 132.188 357.971 136.931C371.9 141.673 384.724 149.188 395.67 159.021C406.615 168.855 415.455 180.803 421.657 194.146C427.859 207.49 431.293 221.951 431.754 236.657C432.215 251.364 429.691 266.012 424.337 279.717C418.982 293.422 410.907 305.9 400.599 316.4C390.29 326.899 377.962 335.201 364.357 340.806C350.752 346.411 336.153 349.202 321.441 349.011L321.675 355.112C349.934 350.273 375.37 335.06 393.002 312.451C410.633 289.842 419.19 261.467 416.998 232.88C414.805 204.293 402.021 177.553 381.149 157.897C360.276 138.242 332.818 127.085 304.151 126.612L304.368 132.727C307.764 132.152 311.18 131.703 314.659 131.4C318.611 131.046 317.58 124.981 313.646 125.32Z" fill="#051128"/>
<path d="M267.654 209.946C276.833 235.083 284.16 260.857 289.576 287.063C290.369 290.961 296.421 289.913 295.639 286.063C290.111 259.332 282.64 233.041 273.284 207.399C271.915 203.665 266.314 206.247 267.654 209.946Z" fill="#051128"/>
<path d="M271.188 226.551C278.6 220.799 287.111 216.625 296.197 214.287C303.932 212.352 315.264 210.187 321.131 217.271C328.135 225.688 316.955 233.823 310.277 237.13C301.347 241.541 292.071 245.211 282.54 248.102C279.245 249.107 280.982 254.926 284.323 253.941C292.173 251.597 300.309 249.186 308.591 249.416C315.147 249.659 323.336 251.762 326.778 257.986C330.892 265.361 321.159 269.414 315.76 271.656C308.299 274.737 300.309 276.335 292.237 276.359C288.3 276.387 287.707 282.522 291.672 282.528C301.424 282.548 311.073 280.517 319.99 276.569C327.653 273.041 336.616 267.207 333.25 257.444C330.345 249.091 321.212 244.896 313.051 243.682C302.941 242.18 292.915 245.025 283.306 247.892L285.088 253.732C294.11 250.974 302.913 247.544 311.422 243.47C319.054 239.769 327.06 234.873 329.026 225.972C330.717 218.04 325.582 210.946 318.383 208.047C310.705 204.949 301.541 206.535 293.764 208.591C284.127 211.206 275.096 215.683 267.179 221.768C264.034 224.186 267.97 228.916 271.115 226.498L271.188 226.551Z" fill="#051128"/>
<path d="M286.148 195.467L290.652 211.15C290.807 211.945 291.262 212.65 291.922 213.119C292.583 213.588 293.398 213.784 294.2 213.668C295.002 213.531 295.718 213.084 296.192 212.423C296.666 211.762 296.86 210.94 296.732 210.136L292.228 194.453C292.073 193.658 291.618 192.954 290.958 192.485C290.297 192.016 289.482 191.82 288.68 191.936C287.881 192.078 287.168 192.526 286.695 193.186C286.222 193.846 286.026 194.665 286.148 195.467Z" fill="#051128"/>
<path d="M309.938 278.837L312.529 287.564C312.693 288.378 313.153 289.102 313.82 289.595C314.48 290.043 315.284 290.228 316.074 290.113C316.481 290.042 316.87 289.892 317.218 289.67C317.567 289.449 317.868 289.16 318.105 288.822C318.339 288.497 318.505 288.129 318.591 287.738C318.678 287.348 318.684 286.944 318.608 286.551L316.018 277.823C315.854 277.009 315.394 276.286 314.727 275.792C314.066 275.344 313.262 275.16 312.473 275.274C311.655 275.428 310.928 275.891 310.442 276.566C310.212 276.892 310.049 277.261 309.963 277.651C309.876 278.041 309.868 278.444 309.938 278.837Z" fill="#051128"/>
<path d="M266.055 228.428C273.515 247.492 278.268 267.412 282.976 287.312C283.884 291.143 289.922 290.079 289.055 286.299C284.221 265.905 279.315 245.457 271.668 225.894C270.218 222.2 264.619 224.751 266.055 228.428Z" fill="white"/>
<path d="M308.171 215.461C308.935 215.484 309.697 215.554 310.453 215.67C310.899 215.726 310.06 215.541 310.453 215.67C310.845 215.799 310.817 215.766 310.983 215.827C311.148 215.889 311.661 216.061 311.992 216.184L312.499 216.417C312.83 216.541 312.132 216.181 312.583 216.518L313.494 217.099C313.718 217.369 314.074 217.557 314.349 217.784C314.167 217.565 314.125 217.515 314.349 217.784C314.573 218.053 314.643 218.138 314.783 218.306C315.046 218.571 315.285 218.858 315.498 219.164C315.498 219.164 315.904 219.653 315.68 219.383C315.456 219.114 315.82 219.552 315.848 219.585C316.035 219.911 316.202 220.248 316.346 220.595C316.486 220.763 316.525 221.016 316.598 221.24C316.671 221.465 316.808 221.493 316.598 221.24C316.801 221.955 316.942 222.686 317.02 223.425C317.079 223.974 317.104 223.355 317.118 223.543L317.098 224.101C317.086 224.519 317.042 224.936 316.968 225.348C316.897 226.166 317.151 226.978 317.676 227.608C318.201 228.239 318.953 228.637 319.77 228.715C320.586 228.781 321.395 228.524 322.025 228.001C322.654 227.477 323.053 226.728 323.137 225.913C323.424 223.86 323.27 221.768 322.684 219.779C322.098 217.79 321.094 215.949 319.739 214.379C318.384 212.81 316.709 211.547 314.827 210.677C312.945 209.806 310.899 209.348 308.825 209.332C308.011 209.272 307.204 209.53 306.576 210.053C305.948 210.575 305.548 211.321 305.459 212.134C305.387 212.951 305.641 213.763 306.166 214.394C306.691 215.024 307.444 215.422 308.26 215.5L308.171 215.461Z" fill="white"/>
<path d="M317.379 256.689C317.838 256.935 318.275 257.219 318.685 257.54C318.783 257.658 318.867 257.759 318.951 257.86C319.035 257.961 318.783 257.658 318.741 257.607C318.917 257.783 319.076 257.975 319.217 258.18C319.578 258.562 319.915 258.967 320.226 259.392C320.562 259.796 319.904 258.833 320.072 259.206L320.282 259.459L320.648 260.208C320.789 260.376 320.842 260.645 320.928 260.887C320.959 260.991 320.997 261.093 321.04 261.192C321.236 261.77 320.903 260.651 320.914 261.041C321.056 261.545 321.16 262.058 321.224 262.578C321.322 262.695 321.291 263.548 321.277 263.018C321.264 262.488 321.252 263.295 321.255 263.436L321.178 264.268C321.139 264.529 320.931 265.443 321.159 264.484C320.921 265.246 320.95 266.066 321.241 266.809C321.502 267.373 321.925 267.846 322.456 268.167C322.988 268.488 323.604 268.642 324.224 268.611C324.844 268.579 325.441 268.362 325.937 267.988C326.432 267.614 326.805 267.1 327.006 266.513C327.743 263.609 327.504 260.544 326.328 257.789C325.234 255.208 323.331 253.052 320.904 251.647C320.241 251.206 319.439 251.021 318.65 251.13C318.045 251.232 317.485 251.511 317.039 251.932C316.594 252.353 316.284 252.898 316.149 253.496C316.014 254.094 316.061 254.719 316.282 255.29C316.504 255.862 316.89 256.355 317.393 256.706L317.379 256.689Z" fill="white"/>
<path d="M280.444 199.843L280.528 199.944L280.094 199.251C281.074 200.834 281.849 202.535 282.399 204.314L282.172 203.562C282.421 204.408 282.622 205.268 282.776 206.137C282.819 206.556 282.948 206.962 283.154 207.33C283.36 207.698 283.64 208.02 283.975 208.276C284.31 208.531 284.695 208.716 285.104 208.817C285.513 208.919 285.939 208.935 286.355 208.866C286.771 208.797 287.169 208.643 287.523 208.414C287.877 208.185 288.181 207.886 288.415 207.535C288.649 207.185 288.809 206.79 288.885 206.375C288.961 205.96 288.951 205.534 288.856 205.123C288.548 203.485 288.097 201.877 287.507 200.319C286.886 198.769 286.11 197.287 285.191 195.892C284.935 195.577 284.617 195.317 284.258 195.126C283.899 194.936 283.505 194.819 283.101 194.783C282.696 194.748 282.288 194.792 281.901 194.914C281.513 195.036 281.154 195.233 280.843 195.494C280.219 196.023 279.822 196.772 279.734 197.585L279.77 198.381C279.855 198.922 280.089 199.427 280.444 199.843Z" fill="white"/>
<path d="M304.869 286.131C304.791 286.802 304.792 287.481 304.87 288.152C304.946 288.823 305.094 289.483 305.312 290.121C305.446 290.528 305.613 290.922 305.81 291.302C306.165 291.946 306.584 292.552 307.06 293.111C307.317 293.426 307.635 293.685 307.994 293.876C308.353 294.066 308.746 294.183 309.151 294.22C309.555 294.257 309.963 294.214 310.351 294.092C310.738 293.97 311.098 293.772 311.408 293.51C312.034 292.982 312.431 292.233 312.517 291.419C312.556 291.014 312.513 290.606 312.39 290.218C312.268 289.83 312.07 289.471 311.807 289.161L311.176 288.404L311.61 289.096C311.349 288.65 311.137 288.177 310.978 287.686L311.218 288.454C311.086 287.974 311.001 287.482 310.964 286.985L311 287.781C310.997 287.45 311.017 287.119 311.06 286.791C311.098 286.386 311.056 285.977 310.936 285.588C310.815 285.199 310.62 284.838 310.359 284.525C310.099 284.212 309.779 283.954 309.418 283.765C309.058 283.576 308.664 283.46 308.258 283.424C307.853 283.386 307.445 283.429 307.057 283.551C306.67 283.673 306.31 283.872 306 284.135C305.379 284.666 304.982 285.414 304.891 286.226L304.869 286.131Z" fill="white"/>
<path d="M243.716 208.811C243.087 209.335 242.691 210.087 242.616 210.903C242.542 211.718 242.794 212.53 243.318 213.159C243.842 213.789 244.594 214.184 245.41 214.259C246.225 214.334 247.037 214.082 247.666 213.558C248.296 213.034 248.692 212.281 248.766 211.466C248.841 210.65 248.589 209.838 248.065 209.209C247.541 208.579 246.788 208.184 245.973 208.109C245.157 208.035 244.346 208.287 243.716 208.811Z" fill="white"/>
<path d="M258.187 188.848C257.636 189.391 257.309 190.122 257.271 190.895C257.233 191.668 257.487 192.427 257.982 193.022C258.477 193.617 259.177 194.004 259.944 194.107C260.711 194.21 261.489 194.021 262.124 193.578C262.675 193.035 263.002 192.304 263.04 191.531C263.078 190.758 262.824 189.999 262.329 189.404C261.834 188.809 261.134 188.422 260.367 188.319C259.599 188.216 258.822 188.404 258.187 188.848Z" fill="white"/>
<path d="M360.829 242.584C360.278 243.127 359.951 243.858 359.913 244.631C359.875 245.404 360.128 246.163 360.623 246.758C361.118 247.353 361.819 247.74 362.586 247.843C363.353 247.946 364.131 247.757 364.765 247.314C365.316 246.771 365.643 246.04 365.681 245.267C365.719 244.494 365.466 243.735 364.971 243.14C364.476 242.545 363.775 242.158 363.008 242.055C362.241 241.952 361.463 242.14 360.829 242.584Z" fill="white"/>
<path d="M356.573 266.469C356.022 267.013 355.695 267.743 355.657 268.516C355.619 269.289 355.872 270.049 356.367 270.644C356.862 271.238 357.563 271.626 358.33 271.729C359.097 271.832 359.875 271.643 360.509 271.2C361.06 270.656 361.387 269.926 361.426 269.153C361.464 268.38 361.21 267.62 360.715 267.026C360.22 266.431 359.519 266.043 358.752 265.94C357.985 265.837 357.207 266.026 356.573 266.469Z" fill="white"/>
<path d="M221.164 190.198C228.064 178.02 237.874 167.742 249.718 160.283C250.449 159.923 251.013 159.295 251.294 158.531C251.576 157.767 251.552 156.924 251.23 156.176C251.06 155.806 250.819 155.474 250.52 155.198C250.222 154.922 249.872 154.708 249.49 154.567C249.109 154.427 248.703 154.363 248.297 154.38C247.891 154.396 247.492 154.493 247.123 154.665C234.266 162.58 223.589 173.58 216.061 186.667C214.101 190.064 219.056 193.691 221.102 190.193L221.164 190.198Z" fill="white"/>
<path d="M257.924 149.295C257.373 149.838 257.046 150.569 257.008 151.342C256.97 152.115 257.224 152.874 257.719 153.469C258.214 154.064 258.914 154.451 259.682 154.554C260.449 154.657 261.226 154.469 261.861 154.025C262.412 153.482 262.739 152.751 262.777 151.978C262.815 151.205 262.562 150.446 262.066 149.851C261.571 149.256 260.871 148.869 260.104 148.766C259.337 148.663 258.559 148.852 257.924 149.295Z" fill="white"/>
<path d="M209.234 201.608C208.683 202.151 208.356 202.882 208.318 203.655C208.28 204.428 208.533 205.187 209.028 205.782C209.524 206.377 210.224 206.764 210.991 206.867C211.758 206.97 212.536 206.782 213.17 206.338C213.722 205.795 214.049 205.064 214.087 204.291C214.125 203.518 213.871 202.759 213.376 202.164C212.881 201.569 212.181 201.182 211.413 201.079C210.646 200.976 209.869 201.165 209.234 201.608Z" fill="white"/>
<path d="M237.719 225.91C231.99 239.225 233.951 254.147 238.195 267.567C238.543 268.309 239.169 268.884 239.938 269.167C240.707 269.45 241.557 269.418 242.302 269.078C243.033 268.718 243.597 268.091 243.878 267.326C244.16 266.562 244.136 265.719 243.814 264.971C240.003 253.099 238.377 239.779 243.483 228.009C245.058 224.39 239.264 222.288 237.689 225.907L237.719 225.91Z" fill="white"/>
<path d="M246.129 276.007C245.577 276.55 245.25 277.281 245.212 278.054C245.174 278.827 245.428 279.586 245.923 280.181C246.418 280.776 247.119 281.163 247.886 281.266C248.653 281.369 249.431 281.18 250.065 280.737C250.616 280.194 250.943 279.463 250.981 278.69C251.019 277.917 250.766 277.158 250.271 276.563C249.776 275.968 249.075 275.581 248.308 275.478C247.541 275.375 246.763 275.564 246.129 276.007Z" fill="white"/>
<path d="M367.967 263.798C363.94 260.025 359.612 256.408 354.492 254.382C349.371 252.355 343.264 252.123 338.532 254.959C338.005 255.231 337.554 255.631 337.222 256.123C336.505 257.341 337.222 258.909 338.144 259.971C339.35 261.309 340.892 262.301 342.61 262.844C344.328 263.387 346.159 263.461 347.916 263.06C340.79 263.152 333.782 264.884 327.434 268.121C325.375 269.199 323.122 270.934 323.44 273.225C323.817 275.818 327.213 276.696 329.784 276.174C332.355 275.651 334.888 274.341 337.448 274.864C333.643 276.106 330.004 277.811 326.614 279.941C325.439 280.68 324.254 281.51 323.558 282.712C322.863 283.914 322.798 285.59 323.763 286.587C324.502 287.352 325.634 287.563 326.69 287.665C331.264 288.064 335.854 287.116 339.895 284.938C337.987 286.188 335.643 286.555 333.578 287.509C331.514 288.463 329.579 290.516 330.01 292.753C330.414 294.834 332.705 296.046 334.861 296.1C337.017 296.154 339.017 295.373 341.092 294.936C343.879 294.349 346.752 294.397 349.587 294.133C358.717 293.314 368.215 288.619 371.605 280.119" fill="white"/>
<path d="M368.63 263.135C362.016 255.309 351.446 248.345 340.812 251.94C336.753 253.32 333.266 256.419 336.441 260.656C339.2 264.353 344.035 265.647 348.412 264.779C350.422 264.38 349.948 261.184 347.932 261.227C342.926 261.31 337.961 262.151 333.207 263.722C329.542 264.962 324.367 266.579 322.324 270.19C320.626 273.176 322.26 276.491 325.332 277.612C329.574 279.159 333.277 276.119 337.47 276.658L336.99 273.117C333.029 274.404 329.243 276.178 325.72 278.399C323.192 280.016 320.551 282.533 321.408 285.881C322.319 289.368 326.453 289.611 329.418 289.519C333.397 289.374 337.292 288.331 340.812 286.468L339.017 283.401C336.322 284.959 333.088 285.169 330.619 287.207C328.652 288.824 327.456 291.395 328.361 293.923C330.76 300.628 339.141 296.963 343.911 296.477C350.18 295.836 355.926 295.556 361.741 292.828C366.867 290.424 371.26 286.457 373.486 281.197C374.564 278.647 370.791 276.427 369.713 279.003C366.291 287.088 358.011 291.335 349.576 292.171C347.199 292.403 344.806 292.408 342.434 292.737C340.063 293.066 337.308 294.354 334.851 294.144C333.552 294.025 331.832 293.497 331.929 291.81C331.999 290.575 333.546 289.6 334.527 289.115C336.57 288.08 338.807 287.643 340.796 286.463C342.785 285.282 341.028 282.345 339.001 283.396C337.088 284.382 324.41 288.463 324.96 284.161C325.23 282.059 329.056 280.512 330.722 279.639C333.041 278.435 335.452 277.418 337.934 276.599C339.977 275.92 339.421 273.317 337.454 273.058C334.516 272.67 332.139 274.023 329.31 274.416C328.28 274.562 326.205 274.599 325.537 273.565C324.41 271.856 327.208 270.304 328.372 269.678C334.333 266.493 341.216 265.016 347.932 264.86L347.447 261.308C345.65 261.685 343.78 261.475 342.111 260.709C341.146 260.262 338.834 258.877 338.818 257.621C338.818 255.88 342.564 255.12 343.847 254.877C345.612 254.572 347.416 254.552 349.188 254.818C356.281 255.799 361.925 260.521 367.514 264.601C368.43 265.269 369.287 263.89 368.651 263.13L368.63 263.135Z" fill="#051128"/>
<path d="M464.728 249.584C481.701 262.44 490.735 284.743 488.315 305.899C485.894 327.055 472.436 346.454 453.872 356.883C444.769 361.993 434.673 365.033 424.599 367.782C411.958 371.239 399.221 374.293 386.39 376.945C371.476 380.049 356.206 382.631 341.06 380.933C336.063 380.394 330.927 379.268 326.938 376.206C320.33 371.161 318.438 362.058 318.174 353.735C318.071 350.334 318.174 346.793 319.732 343.753C321.915 339.441 326.474 336.951 330.786 334.773C355.616 322.24 381.175 311.205 407.324 301.727C414.024 299.296 420.902 296.876 426.47 292.44C432.038 288.004 436.139 280.992 435.094 273.936" fill="white"/>
<path d="M464.739 251.234C484.482 267.625 491.834 295.664 483.011 319.687C478.729 331.255 471.378 341.438 461.747 349.143C450.606 358.069 436.899 362.241 423.284 365.755C407.923 369.728 392.405 373.264 376.769 375.953C368.781 377.328 360.717 378.341 352.605 378.427C345.598 378.497 337.589 378.389 331.088 375.441C325.014 372.692 322.038 366.92 320.799 360.64C319.661 354.851 318.718 346.459 322.842 341.673C324.82 339.366 327.606 337.9 330.274 336.515C333.81 334.709 337.416 333.027 341.006 331.335C347.833 328.101 354.714 324.994 361.65 322.015C377.771 315.052 394.173 308.848 410.736 303.01C423.343 298.564 439.567 290.338 437.826 274.33C437.525 271.587 433.196 271.533 433.471 274.33C435.164 291.373 414.342 296.909 402.037 301.28C386.654 306.749 371.474 312.761 356.497 319.315C348.951 322.603 341.46 326.017 334.026 329.556C328.221 332.332 321.278 334.995 317.77 340.762C314.368 346.346 315.042 354.129 316.012 360.322C316.945 366.251 319.246 372.331 323.893 376.363C329.25 381.009 336.462 382.184 343.297 382.788C351.57 383.515 359.898 383.041 368.123 381.99C384.686 379.877 401.131 376.136 417.35 372.137C432.178 368.477 447.615 364.71 460.378 355.967C471.106 348.62 479.65 338.512 485.108 326.71C497.262 300.094 489.824 267.102 466.243 249.353C465.165 248.534 463.72 250.377 464.776 251.256L464.739 251.234Z" fill="#051128"/>
<path d="M310.973 74.3987C310.601 74.2532 311.431 74.6305 311.221 74.5281C311.447 74.6359 311.145 74.4796 311.119 74.458C311.259 74.5551 311.156 74.458 311.092 74.3772C311.027 74.2963 311.065 74.2963 311.092 74.4041C311.07 74.3357 311.07 74.2623 311.092 74.1939C311.092 74.1023 311.216 73.8975 311.092 74.0753C311.189 73.9568 311.205 73.9352 311.14 73.9999C311.075 74.0646 311.092 74.0484 311.216 73.9406C311.011 74.0753 311.345 73.849 311.437 73.9406L311.081 73.9891C310.946 74.0388 310.815 74.0964 310.687 74.1616C310.493 74.2757 310.331 74.4387 310.219 74.6344C310.107 74.8302 310.048 75.0518 310.048 75.2773C310.048 75.5029 310.107 75.7245 310.219 75.9202C310.331 76.1159 310.493 76.2789 310.687 76.393C311.051 76.5673 311.461 76.622 311.858 76.5494C312.255 76.4768 312.619 76.2806 312.897 75.9888C313.123 75.7691 313.299 75.5043 313.415 75.2118C313.531 74.9192 313.584 74.6054 313.571 74.2909C313.469 73.0081 311.954 71.6822 310.703 72.5554C310.536 72.6618 310.403 72.8138 310.319 72.9935C310.235 73.1732 310.205 73.3731 310.231 73.5696C310.257 73.7661 310.339 73.9511 310.466 74.1028C310.594 74.2545 310.762 74.3665 310.951 74.4257L310.973 74.3987Z" fill="#051128"/>
<path d="M329.396 73.6494C329.024 73.5039 329.854 73.8758 329.644 73.7788C329.865 73.8812 329.569 73.7303 329.542 73.7087C329.682 73.8057 329.579 73.7087 329.542 73.6279C329.504 73.547 329.515 73.547 329.542 73.6279C329.52 73.5594 329.52 73.4861 329.542 73.4176C329.542 73.326 329.666 73.1212 329.569 73.2991C329.666 73.1805 329.682 73.1535 329.617 73.2236C329.552 73.2937 329.569 73.2721 329.693 73.1643C329.488 73.2991 329.817 73.0727 329.914 73.1374L329.558 73.1859C329.423 73.2346 329.292 73.2922 329.164 73.3584C328.97 73.4725 328.809 73.6355 328.696 73.8312C328.584 74.0269 328.525 74.2486 328.525 74.4741C328.525 74.6996 328.584 74.9212 328.696 75.117C328.809 75.3127 328.97 75.4757 329.164 75.5898C329.528 75.764 329.938 75.8188 330.335 75.7462C330.732 75.6736 331.096 75.4773 331.374 75.1856C331.6 74.9659 331.776 74.7011 331.892 74.4085C332.008 74.116 332.061 73.8022 332.048 73.4877C331.946 72.2049 330.431 70.879 329.181 71.7521C329.013 71.8586 328.88 72.0106 328.796 72.1903C328.713 72.37 328.682 72.5699 328.708 72.7664C328.734 72.9629 328.816 73.1479 328.943 73.2996C329.071 73.4512 329.239 73.5633 329.428 73.6225L329.396 73.6494Z" fill="#051128"/>
<path d="M316.918 72.2372C317.182 75.5359 316.978 78.7807 316.978 82.0794C316.978 83.9066 317.306 85.3727 319.069 86.1111C320.341 86.6501 321.052 84.8337 320.303 83.9874C319.112 82.6345 319.764 79.6754 319.646 77.956C319.496 75.9479 319.24 73.949 318.88 71.9677C318.692 70.8897 316.827 71.1107 316.918 72.2372Z" fill="#051128"/>
<path d="M309.593 68.0442C310.213 67.7883 310.881 67.6724 311.55 67.7046C312 67.7888 312.442 67.9133 312.87 68.0766C313.393 68.2433 313.951 68.2711 314.487 68.1574C314.75 68.0847 314.992 67.9532 315.196 67.7728C315.4 67.5924 315.56 67.3678 315.664 67.1163C315.767 66.8647 315.813 66.5928 315.796 66.3211C315.779 66.0495 315.7 65.7853 315.565 65.5486C314.59 64.1418 312.693 63.8238 311.07 64.0071C310.313 64.0432 309.585 64.3158 308.991 64.7866C308.396 65.2575 307.964 65.9029 307.755 66.632C307.394 67.7532 308.677 68.4808 309.593 68.0442Z" fill="#051128"/>
<path d="M324.96 66.5238C327.439 66.3244 329.951 66.4753 332.431 66.3837C335.002 66.2866 335.708 62.4328 333.056 61.7752C331.462 61.3694 329.788 61.4059 328.213 61.8808C326.638 62.3557 325.223 63.2509 324.119 64.4702C323.467 65.1655 323.882 66.5885 324.96 66.5022V66.5238Z" fill="#051128"/>
<path d="M347.038 70.2969C346.43 66.1251 346.001 61.9298 345.749 57.7113C342.358 55.8677 339.56 53.0997 337.679 49.7288C335.798 46.3579 334.913 42.5225 335.126 38.6684C332.134 42.2805 328.632 45.4364 324.728 48.0362C323.171 49.0711 321.408 50.0521 319.549 49.8688C317.689 49.6856 315.916 47.8206 316.557 46.0419L305.777 53.0489C302.678 55.0594 298.603 57.0806 295.536 55.0055C294.843 54.4916 294.272 53.8318 293.862 53.0727C293.452 52.3136 293.214 51.4738 293.165 50.6126C293.068 49.3551 293.283 48.0932 293.791 46.9387C294.299 45.7842 295.083 44.7726 296.075 43.9937C293.224 44.8507 290.103 42.3767 289.677 39.4014C289.251 36.4262 291.003 33.5048 293.45 31.7854C295.897 30.066 298.889 29.3653 301.837 28.9556C301.206 30.0767 299.239 29.1874 299.142 27.9046C299.045 26.6218 300.096 25.5599 301.12 24.7838C304.007 22.6502 307.409 21.3206 310.978 20.9305C314.547 20.5403 318.155 21.1037 321.435 22.5631C319.931 21.8354 320.131 19.3938 321.435 18.3643C322.739 17.3348 324.642 17.3725 326.259 17.6258C330.647 18.3025 334.766 20.1665 338.171 23.0158C339.109 23.7974 340.009 24.6706 341.141 25.1179C342.105 25.4408 343.115 25.6064 344.132 25.6084C350.234 25.9372 356.82 26.6325 361.326 30.7613C364.561 33.7204 366.226 38.0863 366.781 42.4414C367.406 47.3786 366.754 52.3806 365.994 57.2962C364.557 66.5239 362.76 75.6869 360.604 84.7852L357.839 79.3952C357.519 78.8633 357.307 78.2736 357.214 77.6597C357.144 76.8027 357.532 75.9834 357.801 75.1641C358.254 73.7165 358.34 72.1791 358.053 70.6899C357.765 69.2008 357.112 67.8063 356.152 66.6317C355.476 65.7598 354.548 65.1163 353.495 64.7883C351.695 64.3248 349.754 65.295 348.644 66.7611C347.534 68.2272 347.065 70.1137 346.849 71.957" fill="#051128"/>
<path d="M347.932 70.2971C347.716 66.8043 347.425 63.29 347.301 59.8189C347.269 58.8163 347.49 57.4958 346.789 56.6711C345.965 55.6848 344.229 55.0541 343.243 54.1648C341.063 52.2362 339.345 49.8421 338.216 47.1597C337.087 44.4773 336.576 41.5753 336.721 38.6685C336.785 37.3426 334.888 36.4856 333.993 37.542C332.096 39.8198 329.998 41.9231 327.725 43.8268C326.513 44.8418 325.242 45.7849 323.92 46.6511C322.842 47.3356 317.452 49.8204 318.093 46.4733C318.335 45.1904 317.015 43.8429 315.732 44.6568C311.339 47.5027 306.984 50.9254 302.257 53.1838C299.665 54.4235 296.161 55.0272 294.991 51.6207C294.151 49.1629 295.369 46.7104 297.223 45.1527C298.549 44.0154 297.093 42.1451 295.638 42.4577C293.757 42.8404 291.962 41.5037 291.402 39.725C290.803 37.8169 291.806 35.7148 293.056 34.335C295.363 31.7747 298.985 31.0632 302.252 30.562L300.635 27.8238C302.16 26.2068 303.373 25.0588 305.443 24.1155C307.006 23.4223 308.656 22.9436 310.348 22.6926C313.818 22.1624 317.368 22.622 320.589 24.0185C320.964 24.2056 321.397 24.2429 321.799 24.1228C322.202 24.0028 322.543 23.7343 322.755 23.3718C322.967 23.0094 323.033 22.58 322.94 22.1706C322.847 21.7613 322.602 21.4026 322.254 21.1672C320.637 19.9976 324.372 19.1837 324.992 19.2052C326 19.2817 326.997 19.4623 327.967 19.7442C329.967 20.2488 331.89 21.0231 333.681 22.0458C336.559 23.6628 338.764 26.638 342.143 27.2309C349.344 28.4868 357.488 27.5382 362.086 34.5398C366.684 41.5414 365.131 50.6667 363.881 58.3798C362.501 67.063 360.755 75.6871 358.836 84.3111L362.259 83.8637C361.245 81.9341 359.531 79.6595 359.359 77.4981C359.224 75.7787 360.049 74.1293 360.027 72.3506C359.984 69.3215 358.674 66.1575 356.254 64.2656C355.213 63.4527 353.935 63.0013 352.614 62.9799C351.293 62.9585 350.002 63.3682 348.935 64.1471C346.337 65.915 345.587 69.0358 345.253 71.9733C345.048 73.7844 348.169 74.221 348.455 72.4045C348.8 70.2 349.845 65.8072 353.074 66.4755C355.742 67.0577 356.707 71.0624 356.427 73.3047C356.168 75.3367 355.068 76.9268 355.742 79.0235C356.486 81.325 357.947 83.5565 359.035 85.7125C359.758 87.157 362.086 86.7905 362.458 85.2651C364.614 76.5441 366.333 67.6991 367.703 58.8217C368.861 51.2757 370.02 43.1907 366.991 35.8981C364.199 29.1929 358.335 25.6571 351.36 24.5306C347.479 23.8999 342.962 24.606 339.788 22.0727C337.056 19.8103 333.932 18.0692 330.571 16.936C327.536 15.9551 322.944 14.8124 320.26 17.2163C319.761 17.644 319.367 18.18 319.107 18.7834C318.847 19.3868 318.728 20.0416 318.76 20.6979C318.791 21.3541 318.973 21.9945 319.29 22.57C319.607 23.1455 320.051 23.6409 320.589 24.0185L322.254 21.1672C319.032 19.7277 315.515 19.0748 311.991 19.2622C308.467 19.4497 305.038 20.4721 301.988 22.2452C299.832 23.5388 296.598 25.9158 297.676 28.8857C298.473 31.074 301.341 31.8448 302.952 30.1415C304.16 28.8641 302.909 27.1717 301.362 27.4034C295.773 28.2443 289.267 30.6967 288.119 37.003C287.214 42.0049 291.353 46.6242 296.484 45.5839L294.9 42.8889C290.62 46.5487 289.866 55.0218 296.166 57.1562C299.347 58.2342 302.704 56.7843 305.426 55.1727C309.485 52.7795 313.377 50.0522 317.328 47.4866L314.967 45.6755C314.077 50.3433 319.004 52.4777 322.842 50.9254C328.027 48.8395 332.7 44.037 336.225 39.8489L333.503 38.7224C333.317 42.8388 334.297 46.9241 336.331 50.5078C338.365 54.0914 341.37 57.0275 345 58.9781L344.272 57.7006C344.606 62.0229 345.251 66.3155 346.202 70.545C346.423 71.5206 348.024 71.3265 347.959 70.3078L347.932 70.2971Z" fill="#051128"/>
<path d="M322.664 95.4522C326.386 95.0681 329.807 93.2345 332.188 90.3479C333.207 89.1028 331.423 87.3241 330.42 88.5746C328.43 91.1104 325.585 92.8348 322.416 93.4256C321.3 93.6358 321.538 95.5816 322.686 95.4307L322.664 95.4522Z" fill="#051128"/>
<path d="M352.492 70.604C352.132 70.8006 351.824 71.0795 351.592 71.4179C351.431 71.6556 351.294 71.9083 351.182 72.1725C351.032 72.4705 350.988 72.811 351.058 73.1373C351.107 73.3198 351.198 73.4885 351.323 73.6298C351.449 73.7711 351.605 73.8812 351.781 73.9512C351.944 74.0206 352.121 74.0543 352.298 74.0501C352.476 74.046 352.651 74.004 352.811 73.9269C352.971 73.8499 353.113 73.7397 353.227 73.6035C353.341 73.4673 353.425 73.3084 353.473 73.1373C353.473 73.0187 353.527 72.9001 353.559 72.787C353.592 72.6738 353.597 72.6684 353.613 72.6091C353.629 72.5498 353.71 72.3396 353.651 72.4959C353.592 72.6522 353.743 72.2911 353.721 72.3288C353.764 72.2449 353.796 72.1562 353.818 72.0647C353.85 71.9407 353.867 71.8114 353.899 71.6874C353.943 71.505 353.932 71.3139 353.87 71.1373C353.807 70.9606 353.694 70.8058 353.545 70.6918C353.397 70.5778 353.218 70.5093 353.031 70.4947C352.844 70.48 352.657 70.5199 352.492 70.6094V70.604Z" fill="#051128"/>
<path d="M413.038 112.83C432.108 118.22 447.205 132.309 456.799 149.331C465.962 165.635 471.293 184.587 474.02 203.026C475.799 215.035 477.427 227.949 473.74 239.931C470.355 250.911 461.882 258.564 453.765 266.191C444.521 274.88 432.997 280.798 421.155 285.347C413.609 288.247 405.81 290.651 397.779 291.573C392.109 292.225 386.379 292.112 380.671 292.042C376.316 291.972 370.694 290.856 370.063 286.549C367.638 288.102 364.221 286.851 362.437 284.587C360.653 282.324 360.087 279.364 359.58 276.502C358.955 273.004 358.335 269.361 359.305 265.943C360.275 262.526 363.358 259.421 366.9 259.669C366.301 257.583 367.401 255.303 369.056 253.881C370.71 252.458 372.796 251.725 374.834 250.943C390.59 245.052 405.508 237.126 419.209 227.367C422.986 224.664 426.245 221.302 428.831 217.444C434.706 208.739 427.817 193.367 423.796 185.066C419.554 176.291 416.18 173.278 414.45 163.69C412.72 154.101 413.162 143.919 417.107 135.015" fill="#051128"/>
<path d="M412.801 113.692C446.645 124.903 463.284 159.113 470.07 191.782C471.994 201.042 473.503 210.555 473.902 220.015C474.285 229.216 473.271 238.702 468.48 246.749C464.265 253.832 457.985 259.518 451.981 265.075C445.276 271.268 437.39 275.99 429.133 279.811C419.49 284.274 409.098 288.101 398.518 289.465C393.128 290.166 387.635 290.123 382.186 290.079C378.866 290.052 372.813 290.241 371.902 286.064C371.627 284.819 370.134 284.377 369.11 284.927C366.7 286.22 364.259 284.307 363.116 282.232C361.882 279.968 361.548 277.122 361.143 274.616C360.405 270.056 360.259 261.577 366.905 261.609C367.195 261.605 367.479 261.535 367.738 261.404C367.996 261.273 368.222 261.086 368.397 260.855C368.573 260.625 368.693 260.358 368.751 260.074C368.808 259.79 368.8 259.497 368.727 259.216C368.086 255.767 372.004 254.101 374.57 253.109C377.313 252.031 380.057 251.013 382.768 249.875C388.205 247.59 393.534 245.075 398.755 242.329C404.037 239.534 409.179 236.494 414.181 233.21C418.773 230.197 423.344 227.135 427.02 222.969C429.92 219.686 432.291 216.242 432.873 211.817C433.466 207.289 432.588 202.654 431.294 198.309C428.675 189.518 424.093 181.767 419.9 173.688C414.105 162.53 413.917 147.525 418.822 136.039C419.83 133.689 416.369 131.64 415.356 134.007C410.85 144.539 410.322 156.699 413.286 167.743C414.472 172.162 416.628 176.097 418.865 180.053C421.267 184.268 423.4 188.63 425.252 193.113C427.111 197.684 428.782 202.573 429.079 207.532C429.408 213.008 427.311 216.889 423.689 220.861C419.63 225.27 414.413 228.499 409.384 231.684C404.199 234.968 398.864 237.999 393.381 240.777C387.184 243.904 380.826 246.7 374.333 249.153C369.368 251.04 363.919 254.004 365.094 260.213L366.911 257.826C363.359 257.826 360.335 259.852 358.588 262.908C356.373 266.789 356.831 271.387 357.51 275.607C358.157 279.488 358.836 283.876 361.849 286.711C364.372 289.082 367.908 289.815 371.012 288.209L368.22 287.072C369.875 295.157 381.647 294.181 387.716 294.149C398.353 294.043 408.891 292.09 418.859 288.376C427.963 285.077 436.921 281.067 445.001 275.688C452.585 270.632 459.554 264.18 465.585 257.362C471.908 250.253 476.02 242.27 477.346 232.778C478.753 222.683 477.416 212.496 475.907 202.497C472.943 182.851 467.353 163.016 456.967 145.902C447.114 129.695 431.909 116.575 413.308 111.945C413.079 111.882 412.834 111.912 412.628 112.028C412.421 112.145 412.269 112.339 412.205 112.568C412.142 112.797 412.172 113.041 412.288 113.248C412.405 113.455 412.599 113.607 412.828 113.67L412.801 113.692Z" fill="#051128"/>
<path d="M226.124 327.298C222.696 335.49 228.091 342.789 234.597 347.392C244.633 354.496 258.501 359.25 268.333 348.965C270.659 346.532 272.739 343.874 274.542 341.031C275.173 340.04 275.793 338.843 275.399 337.733C275.006 336.622 273.556 336.024 272.332 336.202C271.109 336.38 270.036 337.113 269.017 337.819L260.027 344.055L266.263 336.509C267.244 335.318 268.279 333.69 267.503 332.359C266.937 331.383 265.6 331.108 264.511 331.41C263.451 331.796 262.477 332.385 261.644 333.146C258.986 335.217 256.121 337.009 253.095 338.493C255.984 335.523 258.884 332.531 261.25 329.13C261.789 328.327 262.361 327.427 262.296 326.435C262.199 324.948 260.647 323.891 259.159 323.832C257.671 323.773 256.259 324.452 254.949 325.169C251.954 326.808 249.11 328.709 246.449 330.85C247.366 328.155 251.839 328.182 252.68 325.46C253.257 323.579 251.602 321.773 249.958 320.69C246.35 318.25 241.985 317.186 237.658 317.693C233.384 318.291 229.336 320.803 227.245 324.576" fill="white"/>
<path d="M225.293 326.813C218.799 340.412 233.955 351.213 245.199 355.229C251.128 357.352 257.79 357.713 263.589 354.959C266.926 353.342 269.578 350.825 271.906 348.006C273.933 345.554 277.226 342.163 277.426 338.843C277.625 335.523 274.337 333.723 271.378 334.499C269.222 335.065 267.422 336.655 265.638 337.938C263.482 339.468 261.308 340.988 259.116 342.498L261.304 345.338C263.633 342.535 266.284 339.819 268.338 336.811C269.669 334.86 270.305 332.116 268.198 330.413C266.09 328.71 263.347 329.594 261.374 331.022C258.459 333.215 255.371 335.169 252.141 336.865L254.432 339.835C257.284 337.046 259.932 334.056 262.355 330.887C264.015 328.613 265.179 325.826 262.894 323.498C257.919 318.458 248.956 326.381 245.048 329.427L248.179 331.847C249.446 329.109 253.634 329.367 254.647 326.004C255.936 321.692 251.079 318.534 247.813 317.078C239.787 313.505 229.994 315.763 225.385 323.487C223.946 325.896 227.697 328.085 229.158 325.681C232.624 319.903 239.696 318.566 245.711 320.916C247.188 321.498 249.349 322.328 250.26 323.713C251.171 325.099 250.357 325.481 249.15 326.155C247.398 327.131 245.63 327.907 244.757 329.831C244.527 330.25 244.454 330.738 244.552 331.206C244.649 331.674 244.911 332.091 245.29 332.383C245.668 332.675 246.139 332.823 246.616 332.798C247.094 332.774 247.547 332.58 247.894 332.251C249.698 330.804 251.59 329.47 253.559 328.257C254.351 327.772 255.176 327.282 255.973 326.85C257.218 326.193 259.067 324.899 259.719 326.662C260.372 328.424 257.563 330.877 256.367 332.246C254.895 333.922 253.338 335.528 251.791 337.134C250.244 338.741 252.184 341.064 254.081 340.104C257.66 338.299 260.598 335.792 263.972 333.712C265.465 332.796 265.729 333.803 265.196 334.93C264.781 335.814 263.773 336.682 263.131 337.458L258.782 342.756C257.585 344.212 259.153 346.858 260.97 345.591C264.161 343.365 267.357 340.74 270.769 338.892C271.588 338.439 273.669 337.161 273.345 339.247C273.248 339.84 272.192 341.058 271.852 341.543C270.719 343.154 269.488 344.693 268.166 346.152C263.697 351.1 258.199 353.606 251.457 352.62C240.466 351.003 223.116 340.864 227.051 327.551C227.352 326.532 225.779 325.815 225.299 326.813H225.293Z" fill="#051128"/>
<path d="M320.432 340.719C309.771 344.308 298.868 347.138 287.807 349.186C286.19 349.488 284.524 349.79 283.166 350.712C280.385 352.609 279.792 356.393 279.474 359.745C278.735 367.502 278.126 375.344 279.172 383.062C280.217 390.781 283.053 398.467 288.405 404.127C290.356 406.18 292.976 408.056 295.778 407.641C298.355 407.258 300.247 405.07 301.707 402.908C304.271 399.085 306.224 394.887 307.496 390.463C307.976 388.797 308.386 387.051 309.442 385.682C310.498 384.313 311.889 383.569 313.339 382.841C318.033 380.484 323.027 378.779 328.183 377.775C329.676 377.484 331.309 377.182 332.296 376.023C332.915 375.144 333.287 374.114 333.374 373.042C334.198 367.673 333.912 362.191 332.534 356.936C331.155 351.681 328.713 346.765 325.359 342.492C324.281 341.15 322.561 339.759 321.047 340.573" fill="#5BD3D4"/>
<path d="M320.357 340.455C312.563 342.927 304.67 345.054 296.679 346.837C292.906 347.672 288.922 348.065 285.246 349.192C284.109 349.509 283.06 350.084 282.18 350.872C281.301 351.66 280.614 352.64 280.174 353.736C279.242 355.946 279.059 358.398 278.838 360.743C278.428 365.13 278.083 369.534 278.072 373.943C278.072 380.794 278.902 387.704 281.49 394.096C283.5 399.049 287.095 405.582 292.393 407.673C298.366 410.029 302.155 403.626 304.489 399.206C305.928 396.451 307.096 393.563 307.976 390.582C308.693 388.189 309.307 386.011 311.469 384.47C313.393 383.106 315.781 382.163 317.937 381.295C321.297 379.986 324.763 378.965 328.296 378.244C330.625 377.748 332.635 377.166 333.503 374.746C334.732 371.35 334.506 366.92 334.177 363.4C333.846 359.85 333.052 356.358 331.816 353.014C330.587 349.669 328.909 346.507 326.83 343.613C325.44 341.684 323.596 339.167 320.901 340.078C320.314 340.282 320.562 341.215 321.16 341.015C324.394 339.937 327.331 346.001 328.533 348.206C331.446 353.553 333.081 359.503 333.309 365.588C333.422 368.639 333.708 373.091 331.692 375.484C329.822 377.705 325.504 377.764 322.772 378.567C319.904 379.42 317.105 380.49 314.401 381.769C312.466 382.68 310.375 383.645 309.038 385.38C307.475 387.402 307.119 390.161 306.305 392.522C304.688 397.244 300.581 407.921 294.188 407.075C288.006 406.24 283.737 397.4 281.888 392.226C279.802 386.378 279.129 380.163 279.139 373.981C279.139 370.93 279.312 367.879 279.555 364.818C279.797 361.756 279.846 358.501 280.692 355.531C281.834 351.515 284.632 350.351 288.437 349.602C291.952 348.933 295.45 348.186 298.932 347.359C306.224 345.605 313.421 343.471 320.492 340.967C320.826 340.854 320.691 340.325 320.346 340.428L320.357 340.455Z" fill="#5BD3D4"/>
<path d="M320.136 339.652C312.245 341.775 304.257 343.619 296.264 345.333C290.222 346.626 281.668 346.33 278.773 352.916C277.695 355.385 277.463 358.101 277.216 360.759C276.806 365.146 276.461 369.55 276.456 373.959C276.456 380.966 277.313 388.021 279.938 394.538C282.147 400.014 286.077 407.043 291.968 409.231C298.77 411.748 303.082 405.14 305.777 399.976C307.268 397.105 308.486 394.101 309.415 391.002C310.014 389.002 310.44 387.089 312.224 385.779C314.008 384.469 316.304 383.575 318.352 382.75C321.711 381.432 325.177 380.406 328.712 379.683C331.525 379.079 333.999 378.066 334.959 375.139C337.206 368.245 335.735 359.25 333.272 352.614C332.006 349.148 330.278 345.868 328.135 342.864C326.356 340.401 323.92 337.474 320.54 338.671C318.217 339.511 319.155 343.182 321.575 342.444C323.731 341.775 326.502 347.559 327.272 348.976C330.05 354.098 331.616 359.788 331.849 365.61C331.94 368.084 332.35 372.757 330.625 374.665C329.655 375.743 328.049 375.775 326.69 376.066C325.253 376.375 323.816 376.735 322.378 377.144C319.385 378.032 316.464 379.147 313.641 380.481C311.512 381.489 309.329 382.577 307.863 384.475C306.16 386.663 305.75 389.568 304.866 392.123C303.866 395.002 302.544 397.76 300.926 400.343C299.514 402.607 297.509 405.943 294.399 405.496C291.499 405.075 289.101 401.944 287.516 399.707C285.804 397.261 284.433 394.594 283.441 391.778C281.404 386.054 280.746 380.006 280.746 373.959C280.746 370.908 280.924 367.857 281.166 364.796C281.393 361.88 281.436 358.77 282.244 355.94C283.236 352.485 285.608 351.806 288.853 351.17C292.361 350.485 295.86 349.704 299.325 348.847C306.605 346.995 313.745 344.63 320.691 341.77C321.98 341.231 321.516 339.258 320.104 339.614L320.136 339.652Z" fill="#051128"/>
<path d="M386.773 457.455C395.267 464.827 404.273 471.587 413.723 477.684C415.103 478.573 416.531 479.49 417.437 480.859C419.291 483.672 418.396 487.397 417.437 490.62C415.167 498.074 412.753 505.556 408.85 512.304C404.948 519.052 399.412 525.073 392.308 528.275C389.721 529.433 386.584 530.172 384.153 528.722C381.916 527.391 380.995 524.647 380.472 522.098C379.554 517.585 379.341 512.958 379.841 508.38C380.03 506.661 380.316 504.887 379.841 503.216C379.415 501.653 378.381 500.338 377.319 499.115C373.876 495.148 369.904 491.673 365.515 488.787C364.243 487.952 362.82 487.046 362.378 485.602C362.126 484.553 362.165 483.455 362.491 482.427C363.77 477.143 366.121 472.179 369.398 467.841C372.674 463.502 376.807 459.883 381.539 457.207C383.038 456.372 385.167 455.741 386.25 457.067" fill="#5BD3D4"/>
<path d="M386.573 457.649C391.295 461.854 396.167 465.875 401.228 469.664C403.616 471.448 406.042 473.167 408.499 474.854C411.151 476.665 415.172 478.412 416.973 481.134C418.999 484.206 417.587 488.216 416.617 491.407C415.647 494.598 414.687 497.616 413.566 500.667C411.367 506.65 408.623 512.493 404.673 517.527C401.05 522.141 396.21 526.518 390.545 528.388C386.233 529.811 382.822 528.248 381.442 523.882C380.5 520.6 380.037 517.2 380.067 513.786C380.003 508.526 381.77 503.815 378.197 499.384C374.494 494.787 369.88 491.332 365.126 487.931C362.83 486.287 362.501 484.47 363.17 481.77C363.572 480.194 364.082 478.647 364.695 477.14C367.066 471.292 370.799 466.094 375.583 461.978C377.512 460.318 383.29 455.165 385.91 457.412C386.379 457.817 387.069 457.137 386.595 456.722C384.978 455.299 383.075 455.86 381.296 456.776C378.394 458.349 375.727 460.321 373.373 462.635C368.987 466.832 365.596 471.957 363.45 477.636C362.658 479.743 361.439 482.632 361.757 484.955C362.156 487.887 365.439 489.267 367.562 490.798C370.517 492.959 373.257 495.399 375.744 498.085C377.167 499.621 378.806 501.276 379.377 503.351C379.992 505.588 379.318 508.084 379.172 510.358C378.938 514.012 379.148 517.681 379.798 521.284C380.272 523.909 380.973 526.895 383.15 528.668C387.656 532.35 394.469 528.194 398.28 525.364C409.475 517.02 414.569 502.915 418.196 489.963C419.042 486.944 419.748 483.419 417.921 480.605C416.094 477.792 412.499 476.293 409.869 474.509C401.937 469.172 394.295 463.414 386.977 457.261C386.708 457.04 386.32 457.418 386.584 457.655L386.573 457.649Z" fill="#5BD3D4"/>
<path d="M385.991 458.237C390.683 462.864 395.643 467.21 400.846 471.254C403.083 472.973 405.384 474.612 407.702 476.223C410.02 477.835 413.949 479.511 415.566 481.958C417.312 484.6 415.879 488.249 415.027 490.976C414.084 494.086 413.103 497.185 411.982 500.241C409.863 506.014 407.201 511.695 403.358 516.551C399.957 520.863 395.386 525.068 390.071 526.846C386.611 528.005 384.045 527.035 382.881 523.472C381.943 520.325 381.481 517.054 381.512 513.77C381.474 510.806 382.132 507.841 382.024 504.898C381.932 502.333 380.8 500.257 379.205 498.312C375.335 493.585 370.581 490.318 365.832 486.626C364.129 485.311 364.043 484.195 364.56 482.147C364.959 480.572 365.467 479.027 366.08 477.522C368.384 471.923 371.987 466.951 376.591 463.018C377.642 462.107 383.318 457.17 384.832 458.426C386.724 460.005 389.462 457.38 387.581 455.677C382.946 451.483 375.599 458.372 372.273 461.568C367.706 465.939 364.181 471.281 361.957 477.199C360.976 479.797 359.564 483.29 360.415 486.093C361.299 488.987 364.496 490.405 366.749 492.022C369.866 494.315 372.735 496.929 375.308 499.821C376.645 501.314 378.003 502.818 378.105 504.914C378.213 506.715 377.793 508.553 377.68 510.342C377.445 514.127 377.662 517.927 378.326 521.661C378.865 524.755 379.803 528.129 382.455 530.08C387.845 534.074 395.289 529.665 399.746 526.221C410.995 517.532 416.563 502.893 419.986 489.537C420.891 486.001 421.193 482.147 418.832 479.102C416.612 476.245 412.806 474.536 409.842 472.558C402.177 467.454 394.642 462.086 387.333 456.491C386.325 455.72 385.112 457.369 385.996 458.226L385.991 458.237Z" fill="#051128"/>
<path d="M306.316 374.503C305.82 377.796 305.664 382.157 307.394 385.154C308.79 387.612 312.089 388.469 313.862 385.946C315.075 384.205 312.568 382.777 311.167 383.871C310.272 384.566 309.011 379.764 308.941 379.5C308.564 377.85 308.483 376.163 308.154 374.503C307.981 373.63 306.483 373.587 306.348 374.503H306.316Z" fill="#051128"/>
<path d="M312.299 372.191C311.431 375.366 310.935 380.422 313.463 383.014C315.134 384.728 320.201 385.1 319.112 381.489C318.573 379.667 315.986 380.087 315.878 381.931V382.276L316.379 381.068C316.051 381.43 314.978 377.985 314.908 377.538C314.681 375.864 314.558 374.177 314.541 372.488C314.531 372.221 314.426 371.968 314.247 371.771C314.068 371.574 313.825 371.447 313.561 371.411C313.297 371.376 313.029 371.435 312.804 371.577C312.579 371.72 312.412 371.937 312.331 372.191H312.299Z" fill="#051128"/>
<path d="M318.427 370.267C317.921 373.759 316.557 380.093 321.338 381.327C323.057 381.769 324.34 379.122 322.594 378.346C319.565 376.999 321.715 372.46 320.103 370.046C319.715 369.469 318.551 369.42 318.427 370.267Z" fill="#051128"/>
<path d="M388.654 526.975C385.285 523.935 387.462 518.626 388.772 515.058C390.439 510.499 392.547 506.114 395.068 501.966C397.548 497.865 400.437 494.025 403.692 490.507C405.143 488.911 406.752 487.467 408.494 486.195C409.033 485.817 415.27 482.486 415.237 483.904C415.257 484.242 415.383 484.566 415.596 484.829C415.81 485.092 416.101 485.281 416.428 485.37C416.755 485.459 417.102 485.442 417.419 485.323C417.736 485.204 418.008 484.989 418.196 484.707C419.237 482.815 418.169 480.783 416.137 480.19C413.577 479.436 410.343 481.015 408.187 482.287C402.797 485.483 398.749 491.046 395.332 496.193C391.573 501.853 388.528 507.956 386.266 514.363C384.714 518.783 382.886 524.97 387.123 528.512C388.201 529.39 389.705 527.924 388.654 526.975Z" fill="#051128"/>
<path d="M386.029 521.855C388.131 522.545 390.249 523.133 392.384 523.715C394.001 524.157 395.478 524.663 397.165 524.308C398.577 524.011 397.978 521.807 396.561 522.152C394.944 522.534 392.928 521.613 391.354 521.235C389.78 520.858 388.12 520.465 386.503 520.157C386.277 520.102 386.038 520.136 385.837 520.254C385.635 520.372 385.488 520.564 385.427 520.789C385.365 521.014 385.393 521.254 385.506 521.458C385.618 521.662 385.806 521.814 386.029 521.882V521.855Z" fill="#051128"/>
<path d="M387.473 513.495C392.238 515.915 397.083 518.147 402.058 520.098C403.675 520.728 404.435 518.06 402.781 517.484C397.93 515.775 393.079 513.975 388.373 511.948C387.344 511.506 386.422 512.961 387.473 513.495Z" fill="#051128"/>
<path d="M392.351 505.75C396.841 508.234 401.369 510.628 405.929 512.983L406.635 510.38L405.519 510.482C403.778 510.638 403.729 513.333 405.519 513.236L406.635 513.177C407.901 513.107 408.694 511.199 407.341 510.568C402.668 508.385 397.984 506.256 393.251 504.203C392.222 503.761 391.311 505.178 392.351 505.75Z" fill="#051128"/>
<path d="M396.135 498.101C401.145 500.401 405.99 503.045 410.634 506.014C412.165 507.011 413.631 504.515 412.068 503.561C407.286 500.602 402.203 498.157 396.906 496.269C395.828 495.902 395.106 497.616 396.135 498.101Z" fill="#051128"/>
<path d="M403.74 492.167C404.969 490.776 411.938 499.034 413.879 498.936C414.198 498.931 414.506 498.823 414.759 498.629C415.013 498.435 415.197 498.165 415.286 497.859C415.375 497.555 415.375 497.233 415.287 496.929C415.2 496.626 415.027 496.353 414.79 496.144C414.509 495.883 414.141 495.738 413.757 495.738C413.374 495.738 413.006 495.883 412.725 496.144L412.634 496.225C411.216 497.46 413.302 499.556 414.698 498.295L414.79 498.214H412.725L412.871 498.333L412.499 496.915V497.082L413.906 496.004C413.545 496.004 411.211 493.708 410.726 493.342C409.431 492.278 408.052 491.321 406.602 490.48C405.104 489.698 403.368 489.434 402.36 491.067C401.821 491.924 403.077 492.927 403.767 492.145L403.74 492.167Z" fill="#051128"/>
<path d="M409.265 486.405C411.367 488.227 413.841 489.585 415.954 491.423C417.161 492.501 418.918 490.658 417.695 489.682C415.442 487.887 412.909 485.812 410.149 484.906C409.959 484.858 409.758 484.872 409.577 484.947C409.395 485.022 409.243 485.154 409.144 485.323C409.044 485.492 409.002 485.689 409.024 485.884C409.046 486.079 409.13 486.262 409.265 486.405Z" fill="#051128"/>
<path d="M378.488 492.334C375.314 494.797 371.794 502.009 377.227 504.192C378.343 504.639 379.539 503.071 378.844 502.106C377.858 500.764 377.173 499.88 377.518 498.107C377.863 496.333 379.081 494.98 379.911 493.412C380.008 493.224 380.036 493.008 379.99 492.802C379.944 492.596 379.827 492.412 379.659 492.284C379.492 492.155 379.284 492.09 379.073 492.099C378.862 492.108 378.66 492.191 378.505 492.334H378.488Z" fill="#051128"/>
<path d="M374.634 487.99C373.125 488.599 371.697 489.968 370.532 491.1C370.015 491.557 369.611 492.129 369.353 492.77C369.095 493.411 368.989 494.103 369.045 494.792C369.347 497.654 372.731 499.497 375.098 497.67C376.1 496.894 375.216 495.282 374.106 495.282C373.567 495.282 372.775 495.525 372.311 495.094C371.567 494.404 372.273 493.525 372.748 492.938C373.712 491.8 375.071 490.69 375.669 489.31C375.939 488.68 375.47 487.623 374.634 487.963V487.99Z" fill="#051128"/>
<path d="M371.724 482.497C369.848 484.616 366.754 485.235 365.703 488.119C365.283 489.322 365.209 490.619 365.489 491.863C365.77 493.106 366.393 494.246 367.288 495.153C368.764 496.716 371.185 494.307 369.654 492.787C365.956 489.127 371.81 486.551 373.13 483.581C373.502 482.729 372.457 481.667 371.724 482.503V482.497Z" fill="#051128"/>
<path d="M427.952 219.487C430.116 217.538 432.438 215.773 434.894 214.21C437.352 212.744 439.945 211.515 442.403 210.038C442.653 209.882 442.846 209.649 442.953 209.374C443.06 209.099 443.077 208.798 442.999 208.513C442.922 208.228 442.755 207.976 442.523 207.794C442.292 207.611 442.008 207.508 441.713 207.499C441.114 207.472 440.514 207.49 439.918 207.553C439.591 207.575 439.285 207.719 439.061 207.958C438.837 208.197 438.713 208.512 438.713 208.839C438.713 209.166 438.837 209.481 439.061 209.72C439.285 209.959 439.591 210.103 439.918 210.124C440.513 210.202 441.113 210.236 441.713 210.227L441.023 207.683C435.838 210.976 431.278 214.075 426.96 218.522C426.319 219.18 427.273 220.096 427.952 219.514V219.487Z" fill="#5BD3D4"/>
<path d="M433.358 209.769C434.21 208.92 435.264 208.301 436.42 207.968C437.535 207.656 437.007 205.845 435.945 206.249C434.49 206.766 433.222 207.704 432.302 208.944C431.838 209.569 432.841 210.27 433.38 209.758L433.358 209.769Z" fill="#5BD3D4"/>
<path d="M419.35 129.193C412.79 137.278 408.969 148.199 410.726 158.628C410.904 159.706 412.639 159.437 412.601 158.375C412.267 148.096 414.326 138.491 420.525 130.083C421.015 129.42 419.9 128.547 419.371 129.193H419.35Z" fill="#5BD3D4"/>
<path d="M333.686 345.759C355.171 338.87 376.51 331.502 397.908 324.333C408.437 320.805 418.969 317.285 429.504 313.774C431.951 312.96 434.625 312.346 436.959 311.23C437.897 310.777 438.996 310.12 439.325 309.031C439.864 307.166 438.155 305.377 436.36 306.185C436.235 306.262 436.144 306.385 436.107 306.528C436.07 306.67 436.089 306.822 436.161 306.951C438.63 312.195 447.555 299.943 448.633 297.944C452.194 291.453 453.065 283.823 451.059 276.696C451.02 276.561 450.929 276.446 450.806 276.376C450.683 276.306 450.538 276.288 450.401 276.325C449.765 276.443 449.135 276.567 448.499 276.696C447.863 276.826 448.121 277.807 448.774 277.694C450.768 277.343 450.585 278.928 450.822 280.593C451.031 282.062 451.114 283.546 451.07 285.029C450.857 290.973 448.752 296.693 445.06 301.356C444.241 302.38 438.312 308.902 437.126 306.385L436.921 307.15C437.956 309.015 437.65 310.122 436.005 310.47C435.617 310.61 435.223 310.75 434.824 310.88C433.644 311.289 432.453 311.688 431.267 312.093L425.16 314.173C420.751 315.672 416.342 317.181 411.928 318.668L385.964 327.449C368.484 333.378 350.929 339.134 333.552 345.273C333.255 345.381 333.374 345.856 333.686 345.759Z" fill="#5BD3D4"/>
<path d="M325.72 410.239C330.032 413.327 333.805 417.246 337.675 420.836C341.315 424.196 344.953 427.552 348.59 430.904C352.174 434.198 355.802 437.448 359.343 440.784C362.728 443.98 366.172 447.705 365.752 452.701C365.714 453.133 366.21 453.305 366.533 453.149L369.627 451.699L368.84 451.37C369.293 453.434 369.708 455.51 370.231 457.558C370.393 458.215 371.363 457.935 371.239 457.283C370.834 455.208 370.333 453.149 369.87 451.09C369.847 451.012 369.807 450.94 369.752 450.88C369.698 450.82 369.631 450.773 369.556 450.742C369.48 450.712 369.399 450.698 369.318 450.704C369.238 450.709 369.159 450.732 369.088 450.772L366.005 452.243L366.787 452.691C367.083 448.831 365.121 445.565 362.615 442.778C359.025 438.779 354.729 435.329 350.757 431.707C346.581 427.891 342.395 424.084 338.198 420.286C334.231 416.691 330.399 412.805 325.984 409.749C325.688 409.544 325.418 410.023 325.704 410.228L325.72 410.239Z" fill="#5BD3D4"/>
</svg>
