<svg width="679" height="581" viewBox="0 0 679 581" fill="none" xmlns="http://www.w3.org/2000/svg">
<path opacity="0.1" d="M414.291 417.366V215.509C414.291 205.208 408.769 195.739 399.913 190.537L224.878 89.608C215.918 84.5095 204.978 84.5095 196.018 89.608L20.9824 190.537C12.0222 195.635 6.60449 205.208 6.60449 215.509V417.366C6.60449 427.667 12.1264 437.136 20.9824 442.338L196.018 543.267C204.978 548.366 215.918 548.366 224.878 543.267L399.913 442.338C408.769 437.136 414.291 427.667 414.291 417.366Z" fill="#17BFBF"/>
<path opacity="0.1" d="M637.284 157.524V86.3896C637.284 82.7595 635.336 79.4228 632.211 77.5895L570.456 42.0223C567.294 40.2256 563.435 40.2256 560.273 42.0223L498.518 77.5895C495.356 79.3862 493.445 82.7595 493.445 86.3896V157.524C493.445 161.154 495.393 164.491 498.518 166.324L560.273 201.891C563.435 203.688 567.294 203.688 570.456 201.891L632.211 166.324C635.336 164.491 637.284 161.154 637.284 157.524Z" fill="#17BFBF"/>
<path d="M381.004 116.921C374.312 108.599 362.714 108.903 353.738 112.958C342.628 117.981 332.747 127.187 324.586 136.067C315.994 145.287 308.857 155.763 303.422 167.134C299.724 175.061 297.105 185.242 303.278 192.677C309.615 200.313 321.576 200.349 330.152 197.075C337.859 194.118 347.754 184.831 340.94 176.091C334.614 167.979 320.619 173.956 313.614 177.924C303.903 183.315 296.305 191.837 292.06 202.101C287.814 212.364 287.172 223.764 290.237 234.439C291.508 239.025 299.062 259.019 306.617 251.12C307.851 249.824 306.034 248.199 304.683 249.207C301.149 251.938 297.018 243.194 296.026 241.131C291.398 231.633 290.175 220.833 292.56 210.541C294.946 200.248 300.796 191.088 309.13 184.594C312.45 181.964 316.108 179.791 320.007 178.134C324.263 176.336 329.744 174.421 334.41 175.477C339.664 176.656 341.18 182.173 339.001 186.61C336.737 191.249 331.25 193.837 326.501 195.138C318.611 197.311 307.732 196.375 303.767 188.043C300.026 180.22 304.525 170.904 308.2 163.987C312.991 154.951 318.86 146.53 325.679 138.908C332.949 130.793 341.291 123.231 350.594 117.51C359.432 112.075 372.012 109.174 379.641 118.299C380.45 119.271 381.789 117.878 381.014 116.911L381.004 116.921Z" fill="#5BD3D4"/>
<path d="M282.918 97.8541C273.767 124.797 265.546 152.022 258.255 179.529C258.212 179.777 258.264 180.032 258.4 180.244C258.537 180.455 258.748 180.607 258.992 180.67C259.236 180.732 259.494 180.7 259.716 180.581C259.937 180.461 260.105 180.262 260.186 180.024C267.474 152.539 275.565 125.275 284.459 98.2304C284.785 97.2331 283.225 96.8473 282.889 97.8254L282.918 97.8541Z" fill="#5BD3D4"/>
<path d="M227.941 97.5148C229.774 107.364 226.263 116.987 224.671 126.614C223.101 136.262 222.849 146.079 223.922 155.795C224.059 157.107 226.127 157.105 225.98 155.784C224.771 145.071 225.169 134.238 227.161 123.642C228.844 114.833 231.355 106.085 229.613 97.0825C229.405 96.0064 227.782 96.4577 227.975 97.5195L227.941 97.5148Z" fill="#5BD3D4"/>
<path d="M535.466 370.496C510.364 377.187 485.141 383.432 459.863 389.451C459.59 389.517 459.355 389.688 459.208 389.928C459.062 390.167 459.017 390.454 459.082 390.727C459.148 391 459.319 391.235 459.558 391.382C459.798 391.528 460.085 391.574 460.358 391.508C485.675 385.63 510.815 379.066 535.839 372.092C536.842 371.812 536.47 370.247 535.461 370.515L535.466 370.496Z" fill="#5BD3D4"/>
<path d="M520.886 414.813C502.376 419.25 483.585 422.416 464.644 424.29C463.17 424.433 463.101 426.761 464.586 426.611C483.718 424.669 502.695 421.422 521.384 416.891C521.626 416.799 521.826 416.622 521.947 416.393C522.068 416.164 522.102 415.899 522.042 415.647C521.982 415.395 521.833 415.174 521.622 415.024C521.411 414.874 521.153 414.805 520.896 414.831L520.886 414.813Z" fill="#5BD3D4"/>
<path d="M340.76 313.996C332.059 330.636 309.535 333.925 290.849 331.8C272.163 329.675 252.556 324.401 235.111 331.432C243.889 334.588 251.853 339.663 258.421 346.287C241.301 346.102 224.501 350.925 210.086 360.164C217.547 360.512 224.907 362.037 231.892 364.681C199.354 371.649 169.039 386.541 143.637 408.036C159.827 404.523 176.593 404.63 192.737 408.348C171.178 418.465 152.892 434.302 134.918 449.936L42.8844 529.973C54.4353 530.019 65.6268 526.304 76.5718 522.607C125.641 505.989 174.549 488.901 223.297 471.344C213.247 481.941 201.704 491.015 189.033 498.277C211.52 496.558 233.458 490.487 253.629 480.402L245.526 494.222C259.84 490.232 273.136 483.229 284.523 473.682C295.91 464.135 305.125 452.264 311.55 438.865L308.447 453.63C326.652 447.522 333.81 426.377 342.684 409.356C354.593 386.643 373.079 368.054 395.725 356.019" fill="#051128"/>
<path d="M430.665 163.175C433.311 157.219 430.595 150.23 428.896 144.42C427.881 140.949 426.302 136.478 428.277 133.073C429.929 130.232 433.638 128.669 436.796 128.636C440.981 128.595 442.87 131.407 444.538 134.88C445.961 137.833 447.799 141.449 447.748 144.829C447.689 148.488 444.655 149.721 442.886 152.41C441.662 154.261 441.234 156.618 442.551 158.519C443.409 159.757 445.426 158.572 444.56 157.321C442.328 154.088 448.315 150.792 449.487 148.105C450.766 145.17 449.968 141.833 448.937 138.96C446.722 132.769 443.748 125.583 436.113 126.153C429.579 126.624 424.273 131.424 424.962 138.325C425.366 142.337 426.872 146.103 428.057 149.92C429.444 154.071 429.883 158.486 429.34 162.833C429.253 163.53 430.387 163.823 430.674 163.192L430.665 163.175Z" fill="#051128"/>
<path d="M441.044 127.231C439.343 131.768 436.482 135.779 432.747 138.864C432.678 138.558 432.547 138.269 432.361 138.016C432.174 137.763 431.938 137.552 431.665 137.395C431.393 137.239 431.091 137.141 430.779 137.107C430.467 137.074 430.151 137.106 429.852 137.201C428.655 137.652 426.754 138.884 427.531 141.265C427.857 142.261 429.098 143.049 429.298 144.063C429.366 144.658 429.306 145.261 429.121 145.83C427.797 151.143 426.471 156.013 421.56 158.511C420.346 159.137 419.019 159.508 417.787 160.098C411.92 162.912 409.448 169.986 404.386 174.077C402.248 175.8 399.703 176.945 396.996 177.402C394.855 177.763 392.614 177.69 390.582 178.466C389.184 178.998 387.971 179.901 386.712 180.715C384.606 182.063 382.298 183.207 379.817 183.586C377.336 183.966 374.656 183.532 372.657 182.014C371.538 181.139 370.681 179.973 370.181 178.644C369.68 177.315 369.555 175.874 369.819 174.479C370.083 173.194 370.678 171.931 370.472 170.64C370.079 168.154 367.039 166.962 366.101 164.63C365.235 162.491 366.457 159.969 368.317 158.604C370.177 157.238 372.519 156.76 374.78 156.315C373.378 155.481 371.759 155.084 370.13 155.172C369.343 155.215 368.525 155.37 367.786 155.095C367.164 154.829 366.645 154.37 366.306 153.785C364.544 151.058 365.439 147.223 367.64 144.836C369.842 142.45 373.044 141.241 376.208 140.528C378.558 139.984 381.498 139.106 381.781 136.713C381.859 136.055 381.696 135.371 381.725 134.727C381.824 132.263 384.395 130.662 386.808 130.1C390.543 129.22 392.767 131.015 396.058 132.247C401.781 134.383 408.808 134.955 414.601 132.695C420.188 130.516 424.484 125.824 430.354 124.199C432.258 123.674 436.924 124.177 438.896 124.171C440.868 124.164 442.923 124.739 444.305 126.161C445.026 126.915 445.504 127.868 445.677 128.896C445.85 129.925 445.711 130.982 445.276 131.931C445.125 130.772 444.534 129.715 443.626 128.978C442.719 128.242 441.563 127.881 440.398 127.971" fill="#051128"/>
<path d="M440.379 126.887C438.367 131.18 435.446 134.982 431.82 138.03L433.893 138.57C433.07 135.797 430.063 135.323 427.935 136.984C427.475 137.319 427.087 137.743 426.795 138.232C426.503 138.721 426.313 139.264 426.236 139.828C426.019 141.748 427.417 142.586 427.838 144.243C428.26 145.901 427.154 148.258 426.618 149.874C426.058 151.752 425.144 153.505 423.925 155.039C421.315 158.096 416.978 158.528 413.936 161.08C411.095 163.461 409.147 166.686 406.835 169.541C403.811 173.277 400.197 175.701 395.341 176.228C393.312 176.45 391.34 176.582 389.451 177.409C387.374 178.313 385.622 179.816 383.599 180.827C379.616 182.822 373.321 183.273 371.555 178.047C370.701 175.481 372.277 173.288 372.018 170.751C371.842 169.03 370.742 167.738 369.571 166.567C367.897 164.887 366.55 163.313 368.211 160.994C369.72 158.864 372.737 158.262 375.132 157.703C375.384 157.625 375.608 157.476 375.777 157.274C375.947 157.072 376.055 156.825 376.088 156.563C376.122 156.301 376.08 156.035 375.966 155.797C375.853 155.558 375.674 155.357 375.45 155.218C374.23 154.545 372.887 154.124 371.501 153.98C370.191 153.868 368.421 154.399 367.406 153.201C366.769 152.441 366.621 151.141 366.668 150.204C366.877 145.935 370.872 143.501 374.522 142.372C377.068 141.588 380.332 141.348 382.114 139.105C382.782 138.242 383.129 137.172 383.092 136.08C383.089 135.031 382.957 134.35 383.66 133.442C384.35 132.637 385.254 132.044 386.266 131.734C390.032 130.377 393.269 132.836 396.721 133.981C400.215 135.159 403.894 135.688 407.576 135.541C410.906 135.403 414.167 134.55 417.139 133.039C420.22 131.46 422.94 129.276 425.936 127.558C427.605 126.598 429.436 125.641 431.362 125.366C433.007 125.136 434.752 125.332 436.403 125.421C437.955 125.501 439.636 125.374 441.136 125.831C443.741 126.62 444.962 129.095 443.941 131.605L446.558 131.596C446.304 130.158 445.534 128.862 444.394 127.952C443.253 127.043 441.82 126.583 440.365 126.658C438.657 126.736 438.657 129.394 440.374 129.348C442.297 129.279 443.629 130.467 443.962 132.345C444.208 133.846 446.134 133.404 446.578 132.336C447.218 130.731 447.213 128.94 446.563 127.339C445.913 125.739 444.669 124.453 443.092 123.753C440.199 122.418 436.201 122.659 433.062 122.67C424.739 122.698 419.224 130.571 411.354 132.296C406.657 133.325 401.623 132.777 397.106 131.196C393.161 129.815 389.83 127.58 385.515 129.056C383.978 129.521 382.602 130.409 381.543 131.62C380.234 133.261 380.771 134.68 380.424 136.555C380.059 138.525 377.493 138.932 375.84 139.355C373.679 139.829 371.598 140.61 369.658 141.675C366.217 143.704 363.644 147.389 364.127 151.535C364.325 153.202 365.1 155.06 366.539 156.01C367.53 156.675 368.576 156.644 369.726 156.605C371.245 156.508 372.76 156.857 374.085 157.608L374.399 155.123C370.59 155.754 366.444 156.822 364.784 160.75C364.442 161.505 364.261 162.323 364.252 163.153C364.243 163.982 364.407 164.804 364.733 165.566C365.49 167.262 367.005 168.226 368.137 169.625C369.681 171.543 368.15 173.763 368.099 175.942C368.08 177.868 368.65 179.753 369.732 181.344C371.979 184.627 376.008 185.851 379.808 185.345C381.818 185.039 383.758 184.38 385.54 183.398C387.897 182.158 389.885 180.277 392.54 179.681C394.873 179.162 397.257 179.248 399.558 178.501C401.696 177.811 403.684 176.72 405.415 175.284C408.537 172.692 410.595 169.125 413.139 166.005C414.322 164.452 415.755 163.106 417.379 162.023C419.356 160.797 421.675 160.332 423.589 158.981C426.923 156.634 428.529 152.903 429.594 149.097C430.072 147.401 430.923 145.085 430.192 143.361C429.85 142.564 429.03 142.047 428.692 141.277C427.754 139.155 430.915 137.311 431.525 139.286C431.587 139.493 431.7 139.68 431.855 139.83C432.01 139.979 432.201 140.086 432.41 140.141C432.618 140.195 432.837 140.195 433.045 140.139C433.253 140.084 433.443 139.976 433.597 139.826C437.428 136.579 440.243 132.294 441.705 127.483C441.939 126.72 440.752 126.191 440.397 126.936L440.379 126.887Z" fill="#051128"/>
<path d="M372.537 104.746C369.841 98.9604 366.294 93.7237 364.373 87.5693C363.824 85.9626 363.463 84.2962 363.299 82.6044C363.27 82.1528 363.138 79.8046 363.458 79.6047C364.371 79.0461 364.51 80.6672 364.637 81.1636C365.157 83.226 365.565 85.2482 367.621 86.2757C368.582 86.7513 369.44 85.9625 369.294 84.9602C368.97 82.7436 368.628 80.3915 368.995 78.15C369.074 77.6664 369.565 75.1399 370.118 75.1426C370.671 75.1453 370.91 77.1273 370.956 77.4298C371.325 79.7999 371.213 82.3341 373.498 83.7132C374.213 84.1625 375.331 83.5941 375.248 82.6911C375.067 80.932 375.156 79.1552 375.511 77.4236C375.666 76.6343 375.897 75.8621 376.2 75.1178C377.147 72.9421 377.307 74.0256 377.36 75.3127C377.501 78.7991 377.589 82.2948 377.641 85.7861C377.645 87.1411 379.654 87.4461 379.979 86.099C380.09 85.647 380.759 82.9347 381.192 82.9874C381.919 83.0844 381.768 84.5077 381.806 85.1128C381.929 87.2262 381.248 89.0984 380.545 91.0385C379.267 94.5613 380.29 97.6202 381.702 100.926C382.345 102.424 384.518 101.125 383.871 99.6363C383.151 97.9811 382.342 96.1771 382.358 94.3297C382.353 92.7533 383.076 91.432 383.544 89.9715C384.237 87.7922 384.638 84.9227 383.877 82.7075C383.404 81.354 382.154 79.8857 380.563 80.4601C378.78 81.0894 378.067 83.8651 377.68 85.4743L380.023 85.7872C379.968 82.576 379.886 79.3603 379.754 76.1493C379.691 74.519 379.976 71.686 377.851 71.1872C373.068 70.0333 372.682 80.0799 372.919 82.7214L374.669 81.6948C372.988 80.6841 373.464 77.706 373.048 76.0091C372.695 74.5784 371.645 72.6081 369.914 72.6545C367.87 72.711 367.042 76.0065 366.771 77.5612C366.303 80.2321 366.695 82.9544 367.088 85.6045L368.766 84.2935C365.928 82.8396 367.788 77.4132 364.144 76.5356C360.572 75.6712 360.645 81.4118 360.901 83.4706C361.869 91.3446 366.621 99.5267 371.393 105.645C371.94 106.347 372.856 105.45 372.532 104.737L372.537 104.746Z" fill="#051128"/>
<path d="M472.19 86.5477C471.337 83.4922 470.861 80.3427 470.771 77.17C470.74 75.8853 470.655 74.4289 470.956 73.1703C471.128 72.4413 471.482 70.9066 472.792 72.0603C473.323 72.5109 473.033 74.2943 472.968 74.8871C472.833 76.1498 474.979 76.4457 475.186 75.1783C475.654 72.081 476.951 69.1708 478.937 66.7605C479.379 66.2086 479.87 65.6982 480.404 65.2356C481.505 64.3271 482.894 64.9332 482.253 66.478C481.612 68.0228 480.764 69.6497 480.024 71.2174C479.543 72.2414 480.562 73.4775 481.632 72.8271C481.899 72.6598 482.21 72.5767 482.524 72.5884C482.838 72.6001 483.142 72.7061 483.396 72.8928C483.651 73.0795 483.844 73.3384 483.951 73.6364C484.058 73.9343 484.075 74.2578 483.999 74.5654C483.804 75.3803 484.584 76.4001 485.48 76.0443C488.035 75.036 487.401 78.7793 486.943 79.8123C486.626 80.5191 486.202 81.1719 485.845 81.8653C485.135 83.2262 484.54 84.6446 484.064 86.1056C483.127 89.0085 482.412 92.5531 483.041 95.5819C483.324 96.9382 485.099 96.4301 485.239 95.276C485.58 92.5063 485.513 89.8465 486.343 87.1294C487.107 84.6071 488.644 82.5029 489.511 80.0481C490.098 78.3768 490.168 76.5625 489.068 75.0733C488.049 73.7195 486.444 73.0508 484.849 73.694L486.326 75.1774C487.157 71.5555 483.675 68.8528 480.476 70.7725L482.084 72.3822C483.082 70.2074 485.209 67.2146 485.016 64.6819C484.852 62.6964 483.09 61.689 481.256 62.1656C479.013 62.7476 477.347 64.9472 476.105 66.7563C474.507 69.1072 473.449 71.7873 473.007 74.602L475.225 74.8977C475.447 72.8296 475.25 70.324 473.012 69.4764C471.493 68.8979 470.051 69.7125 469.333 71.0947C468.289 73.1022 468.631 75.8606 468.826 78.0134C469.12 81.0681 469.825 84.0685 470.921 86.932C471.215 87.7182 472.421 87.4156 472.19 86.5749L472.19 86.5477Z" fill="#051128"/>
<path d="M454.541 158.233L456.285 141.011C456.516 138.763 456.752 136.484 457.506 134.351C458.772 130.778 461.464 127.714 462.005 123.964C462.837 118.191 458.425 113.082 456.93 107.447C456.287 105.022 456.259 102.218 457.806 100.253C458.416 99.4739 459.234 98.8735 459.825 98.0805C462.645 94.3141 459.409 88.159 462.428 84.5492C463.429 83.4673 464.747 82.7297 466.194 82.4424C470 81.5309 474.078 82.4925 477.516 84.3686C480.953 86.2447 483.835 88.954 486.627 91.704C487.858 92.8113 488.924 94.0898 489.791 95.5C490.897 97.4962 491.197 99.8321 491.286 102.11C491.658 111.21 489.067 120.148 486.228 128.799C480.277 146.953 473.056 164.841 462.582 180.825" fill="white"/>
<path d="M455.201 158.019C455.589 154.567 456.053 151.132 456.513 147.679C456.986 144.015 457.193 140.244 457.989 136.629C459.2 131.138 463.818 126.961 463.238 121.018C462.68 115.357 458.419 110.81 457.866 105.186C457.694 103.42 458.007 101.819 459.197 100.458C460.037 99.4983 460.955 98.7403 461.526 97.57C462.609 95.3465 462.408 92.8037 462.341 90.4132C462.292 87.8564 462.436 85.2944 465.013 84.0635C468.405 82.4434 472.74 83.4356 475.941 85.0202C478.877 86.4709 481.389 88.6196 483.744 90.8632C486.099 93.1067 488.471 95.2289 489.223 98.4844C490.808 105.382 488.926 113.315 487.072 119.976C485.298 126.404 483.053 132.73 480.744 138.988C478.151 146.025 475.301 152.964 472.056 159.729C468.74 166.634 464.839 173.127 461.05 179.768C459.983 181.632 462.65 183.052 463.861 181.403C468.177 175.516 471.593 168.795 474.704 162.206C477.815 155.616 480.53 148.943 483.017 142.144C485.632 134.986 488.14 127.747 490.081 120.353C491.885 113.498 493.368 105.917 492.226 98.8249C491.223 92.5863 485.322 87.7437 480.387 84.3313C475.591 81.0129 468.132 78.5572 462.762 82.0713C460.693 83.4263 459.767 85.6044 459.559 88.0048C459.326 90.6704 460.198 93.8131 458.994 96.3067C458.326 97.702 456.901 98.5606 456.116 99.8754C455.441 101.076 455.069 102.424 455.034 103.802C454.905 106.881 456.158 109.811 457.424 112.553C458.934 115.833 460.965 119.282 460.677 123.053C460.389 126.824 457.778 129.803 456.474 133.142C455.063 136.778 455.045 140.827 454.717 144.665C454.354 149.116 454.073 153.565 453.675 158.011C453.588 158.995 455.087 158.964 455.196 158.006L455.201 158.019Z" fill="#051128"/>
<path d="M423.152 219.446C418.993 208.304 417.173 196.424 417.806 184.546C418.038 180.307 418.621 175.955 420.719 172.267C423.093 168.102 427.146 165.203 431.201 162.659C435.484 159.948 440.014 157.479 444.972 156.496C449.929 155.513 455.436 156.218 459.375 159.396C468.427 166.701 465.04 182.097 472.325 191.187C473.317 192.42 474.496 193.517 475.291 194.885C478.118 199.734 475.198 205.982 471.328 210.04C463.396 218.35 451.997 222.24 440.981 225.423C437.707 226.377 434.321 227.314 430.93 226.93C427.539 226.546 424.112 224.521 423.086 221.266" fill="white"/>
<path d="M463.401 166.56C465.435 172.105 465.679 178.082 467.284 183.745C467.966 186.379 469.08 188.883 470.579 191.154C472.42 193.814 475.03 195.737 475.019 199.276C474.992 205.881 468.746 211.131 463.731 214.446C458.331 218.013 452.264 220.381 446.128 222.355C440.252 224.243 427.703 229.379 424.507 220.908C423.874 219.234 421.175 219.951 421.795 221.665C424.395 228.857 432.603 229.13 438.923 227.509C446.211 225.639 453.586 223.239 460.299 219.821C466.381 216.713 472.715 212.252 475.906 206.022C477.313 203.275 478.171 200.09 477.48 197.014C476.711 193.598 473.878 191.6 472.099 188.765C467.852 181.995 468.016 173.401 464.945 166.134C464.557 165.208 463.039 165.576 463.401 166.565L463.401 166.56Z" fill="#051128"/>
<path d="M423.64 219.529C421.222 212.287 419.691 204.775 419.083 197.159C418.545 190.397 418.138 182.732 420.358 176.208C422.609 169.59 428.656 165.705 434.391 162.363C440.829 158.607 448.19 156.035 455.47 158.928C457.166 159.599 457.852 156.878 456.209 156.193C448.839 153.156 440.989 155.437 434.3 159.066C428.277 162.356 421.469 166.505 418.505 173.017C415.412 179.792 415.75 188.251 416.298 195.523C416.969 203.927 418.919 212.177 422.082 219.985C422.457 220.927 423.966 220.556 423.627 219.529L423.64 219.529Z" fill="#051128"/>
<path d="M437.825 243.573C430.333 240.281 428.998 229.387 433.313 222.451C437.628 215.515 445.609 211.807 453.347 209.137C459.386 207.05 465.738 205.339 472.101 205.936C472.654 205.988 478.367 197.518 479.263 196.574C484.899 190.449 492.709 183.977 500.516 180.857C515.97 174.642 522.573 189.145 517.131 201.828C512.464 212.652 503.194 220.752 493.677 227.688C479.774 237.803 463.393 246.55 446.237 245.056" fill="#051128"/>
<path d="M438.149 243.177C432.06 240.116 430.624 232.325 432.705 226.296C435.253 218.914 442.957 214.514 449.799 211.788C453.783 210.166 457.897 208.886 462.098 207.961C464.425 207.451 466.798 207.178 469.18 207.147C470.46 207.143 472.006 207.65 473.099 206.834C474.514 205.778 475.59 203.754 476.608 202.331C477.762 200.738 478.843 199.045 480.113 197.532C486.24 190.255 508.786 170.942 516.156 186.383C518.946 192.212 517.137 199.03 514.223 204.415C510.381 211.523 504.532 217.295 498.299 222.328C483.741 234.079 465.625 245.034 446.224 243.608C444.167 243.457 444.204 246.632 446.234 246.801C465.447 248.403 483.215 237.849 497.85 226.506C504.679 221.211 511.165 215.199 515.648 207.734C519.194 201.835 521.523 194.83 519.659 187.961C518.141 182.348 513.673 178.259 507.746 178.076C499.291 177.804 491.037 184.064 484.961 189.267C482.32 191.557 479.589 193.982 477.475 196.818C475.866 198.993 474.369 201.252 472.733 203.408C472.493 203.803 472.206 204.168 471.879 204.493C471.162 205.057 471.624 204.867 470.411 204.669C468.111 204.29 465.352 204.87 463.077 205.277C458.309 206.205 453.649 207.621 449.172 209.504C441.393 212.642 432.968 217.642 430.631 226.303C428.835 232.964 430.779 241.257 437.547 244.243C438.257 244.555 438.891 243.538 438.163 243.177L438.149 243.177Z" fill="#051128"/>
<path d="M430.721 164.798C411.628 149.371 399.455 126.474 394.053 102.535C393.524 100.182 393.035 97.7659 391.782 95.6939C390.53 93.6219 388.398 91.9123 385.985 91.9383C383.571 91.9643 381.58 93.5843 380.121 95.4317C378.662 97.279 377.59 99.4262 376 101.166C373.685 103.704 370.458 105.202 367.831 107.417C365.204 109.633 363.103 113.185 364.287 116.417C366.156 121.507 374.37 121.776 376.221 126.871C378.072 131.965 371.977 137.464 373.886 142.526C375.668 147.248 383.209 148.032 384.349 152.944C385.065 156.025 382.756 159.151 383.27 162.268C383.651 164.555 385.491 166.341 387.517 167.467C389.544 168.593 391.807 169.21 393.896 170.201C402.207 174.146 406.999 183.509 415.422 187.206C417.673 188.201 420.273 188.736 422.653 188.049C424.185 187.547 425.59 186.719 426.771 185.622C429.8 182.998 432.055 179.597 433.293 175.786" fill="white"/>
<path d="M430.884 164.24C424.546 158.273 418.587 152.12 413.594 144.942C408.716 137.886 404.644 130.302 401.453 122.334C399.851 118.349 398.453 114.284 397.266 110.155C396.109 106.149 395.496 101.93 394.173 97.9822C393.041 94.6217 390.719 91.292 386.999 90.7122C383.105 90.1062 380.121 93.1126 378.08 96.0397C376.746 97.964 375.582 99.9192 373.777 101.437C371.972 102.955 369.729 104.196 367.79 105.687C365.009 107.831 362.508 111.052 362.65 114.752C362.768 117.892 364.902 120.073 367.396 121.626C369.747 123.09 373.214 124.128 374.59 126.712C376.33 129.949 373.474 133.96 372.568 137.036C371.663 140.111 371.936 143.152 374.125 145.553C376.166 147.789 379.136 148.802 381.337 150.827C384.676 153.902 381.406 158.004 381.718 161.78C382.076 166.099 385.931 168.495 389.556 169.949C393.89 171.629 397.836 174.178 401.154 177.442C406.727 182.861 414.017 191.696 422.839 189.244C424.625 188.745 423.861 186.123 422.07 186.474C414.296 188.012 407.985 179.793 403.086 175.032C400.719 172.738 398.155 170.513 395.214 168.998C391.938 167.313 386.604 166.573 385.094 162.711C384.328 160.749 385.26 158.731 385.7 156.801C386.101 155.037 386.269 153.211 385.584 151.508C384.638 149.129 382.497 147.647 380.419 146.331C378.01 144.805 375.047 143.249 375.188 139.956C375.329 136.663 377.509 133.749 378.034 130.526C379.098 123.992 373.443 121.866 368.88 119.055C365.267 116.825 364.674 113.278 367.509 109.896C370.01 106.904 373.839 105.425 376.565 102.688C379.322 99.8619 381.067 93.9752 385.489 93.3818C390.5 92.7012 391.917 99.2906 392.746 102.894C394.456 110.394 396.826 117.727 399.826 124.806C406.352 140.139 416.373 155.519 430.123 165.257C430.719 165.681 431.422 164.737 430.897 164.245L430.884 164.24Z" fill="#051128"/>
<path d="M368.138 87.1561C368.568 86.7527 368.999 86.354 369.425 85.9461C369.671 85.7123 369.303 85.2979 369.066 85.5499L367.837 86.8328C367.64 87.039 367.929 87.344 368.13 87.1561L368.138 87.1561Z" fill="#051128"/>
<path d="M374.258 84.4958C374.438 84.2185 374.664 83.9885 374.92 83.8197C375.177 83.6509 375.46 83.547 375.751 83.5144C376.111 83.4812 376.109 82.8036 375.749 82.8421C375.376 82.8743 375.013 83.0089 374.69 83.2357C374.367 83.4625 374.091 83.7753 373.884 84.1502C373.739 84.4175 374.086 84.7471 374.258 84.4958Z" fill="#051128"/>
<path d="M377.026 86.7504C376.213 86.9602 375.485 87.3666 374.927 87.9222C374.369 88.4778 374.003 89.1598 373.873 89.8888C373.812 90.243 374.439 90.3867 374.495 90.0366C374.585 89.3901 374.883 88.7787 375.354 88.273C375.826 87.7673 376.453 87.388 377.162 87.179C377.468 87.0863 377.342 86.6702 377.026 86.7629L377.026 86.7504Z" fill="#051128"/>
<path d="M473.574 76.4791C474.498 76.7773 475.322 77.3138 475.96 78.0317C476.597 78.7496 477.024 79.6223 477.196 80.5577C477.263 80.9172 477.829 80.7632 477.757 80.4037C477.562 79.3777 477.081 78.4243 476.367 77.6481C475.653 76.8718 474.733 76.3028 473.71 76.0036C473.398 75.9124 473.272 76.3786 473.574 76.4653L473.574 76.4791Z" fill="#051128"/>
<path d="M480.517 75.6041C479.634 76.9608 478.699 79.3646 480.631 80.2877C480.878 80.4265 481.159 80.4847 481.438 80.4549C481.716 80.425 481.98 80.3085 482.196 80.12C482.877 79.4815 482.565 78.1468 483.315 77.6254L482.857 77.2524C482.434 78.5714 481.937 80.3781 483.08 81.4664C483.773 82.1229 484.918 82.3266 485.551 81.5032C485.586 81.4402 485.6 81.3666 485.591 81.2941C485.582 81.2216 485.551 81.1543 485.502 81.1027C485.453 81.0512 485.389 81.0184 485.32 81.0094C485.252 81.0005 485.182 81.016 485.123 81.0534C484.323 81.7781 483.266 81.01 483.071 80.0855C482.876 79.1611 483.214 78.28 483.489 77.4398C483.503 77.3766 483.5 77.3104 483.479 77.2493C483.458 77.1882 483.421 77.1349 483.372 77.0958C483.323 77.0567 483.264 77.0335 483.203 77.0292C483.141 77.0248 483.08 77.0395 483.027 77.0713C482.38 77.5247 482.365 78.1791 482.179 78.9243C481.83 80.2566 480.476 79.8821 480.143 78.7641C479.828 77.7543 480.461 76.6918 480.897 75.8239C480.917 75.7772 480.919 75.7245 480.904 75.6761C480.889 75.6276 480.857 75.5867 480.816 75.5612C480.774 75.5357 480.725 75.5273 480.677 75.5377C480.63 75.548 480.588 75.5764 480.56 75.6175L480.517 75.6041Z" fill="#051128"/>
<path d="M372.944 123.725C375.24 123.353 378.167 122.441 378.685 119.737C378.872 118.721 378.515 117.851 378.149 116.937C377.412 115.094 377.084 113.622 379.28 112.412C379.736 112.243 380.179 112.041 380.606 111.806C382.147 110.665 382.52 108.401 381.917 106.647C381.067 104.176 378.558 102.855 376.306 101.996C375.89 101.836 375.71 102.515 376.122 102.671C378.875 103.716 382.295 105.91 381.377 109.424C380.721 111.927 378.174 111.163 377.06 112.922C376.47 113.853 376.721 115.051 377.07 116.011C377.365 116.607 377.63 117.217 377.864 117.84C378.102 118.601 378.092 119.419 377.835 120.174C377.579 120.929 377.089 121.579 376.439 122.029C375.388 122.751 374.074 123.016 372.845 123.263C372.544 123.322 372.678 123.77 372.975 123.711L372.944 123.725Z" fill="#051128"/>
<path d="M397.335 117.556C393.694 117.731 388.268 120.927 389.34 125.452C389.568 126.414 390.078 126.896 390.743 127.572C391.519 128.365 392.202 128.869 392.206 130.18C392.21 131.382 391.364 132.099 390.801 133.023C390.331 133.74 390.04 134.566 389.956 135.425C389.872 136.285 389.996 137.153 390.318 137.951C390.652 138.747 391.19 139.435 391.875 139.943C392.559 140.452 393.366 140.762 394.208 140.84C396.684 141.103 399.14 138.193 401.036 140.818C402.106 142.31 403.44 143.431 405.384 143.14C406.252 143.003 407.053 142.584 407.671 141.946C408.288 141.307 408.689 140.483 408.815 139.594C408.888 139.142 408.225 138.918 408.107 139.397C407.67 141.049 406.623 142.399 404.802 142.396C402.981 142.393 402.398 141.143 401.391 139.903C400.792 139.164 400.1 138.308 399.048 138.316C397.479 138.321 396.605 140.001 394.908 140.056C394.268 140.077 393.633 139.943 393.053 139.665C392.474 139.387 391.966 138.973 391.573 138.457C391.179 137.94 390.91 137.336 390.788 136.694C390.665 136.051 390.693 135.388 390.869 134.758C391.266 133.284 392.664 132.397 392.92 130.864C393.006 130.34 392.982 129.803 392.85 129.289C392.717 128.775 392.478 128.296 392.15 127.884C391.781 127.41 391.263 127.127 390.86 126.677C389.586 125.212 389.899 123.425 390.844 121.89C392.25 119.562 394.765 118.306 397.367 118.13C397.721 118.106 397.724 117.546 397.366 117.565L397.335 117.556Z" fill="#051128"/>
<path d="M384.654 160.879C386.056 159.032 388.338 157.169 390.756 156.956C393.495 156.716 393.878 159.02 396.144 159.262C397.286 159.385 398.377 158.859 399.4 158.425C401.771 157.414 404.242 156.771 406.348 158.815C406.841 159.303 407.224 159.893 407.47 160.544C407.717 161.194 407.822 161.891 407.777 162.585C407.696 164.065 406.94 164.694 406.34 165.916C405.918 166.78 405.856 167.184 406.441 167.985C407.13 168.936 408.048 169.409 408.351 170.742C408.625 172.117 408.428 173.544 407.791 174.791C406.894 176.664 405.324 178.003 403.952 179.505C403.89 179.581 403.859 179.678 403.864 179.776C403.869 179.874 403.911 179.967 403.981 180.036C404.05 180.105 404.143 180.146 404.241 180.149C404.339 180.153 404.434 180.12 404.509 180.057C407.435 177.57 410.805 173.302 408.711 169.253C408.03 167.948 406.847 167.734 407.436 165.831C407.722 164.922 408.334 164.339 408.511 163.295C408.667 162.387 408.601 161.454 408.321 160.576C408.041 159.699 407.553 158.902 406.901 158.255C406.285 157.672 405.551 157.229 404.749 156.957C403.948 156.685 403.097 156.59 402.256 156.678C401.349 156.832 400.47 157.118 399.645 157.526C398.901 157.915 398.121 158.23 397.315 158.464C395.804 158.773 395.088 158.045 393.935 157.182C390.636 154.706 386.264 157.802 384.161 160.595C383.941 160.89 384.433 161.17 384.654 160.879V160.879Z" fill="#051128"/>
<path d="M423.385 159.325C422.47 160.538 420.679 163.194 421.952 164.751C422.253 165.114 422.503 165.026 422.847 165.32L423.811 166.514C423.781 166.713 423.75 166.917 423.724 167.117C423.977 167.944 424.05 168.417 424.842 168.995C426.346 170.122 428.981 170.521 430.616 169.409C430.968 169.186 431.267 168.892 431.493 168.548C431.719 168.203 431.867 167.816 431.928 167.412C431.988 167.008 431.959 166.596 431.843 166.204C431.727 165.811 431.526 165.447 431.254 165.136C430.931 164.768 430.393 165.299 430.711 165.667C432.253 167.444 430.124 169.138 428.522 169.269C427.544 169.295 426.577 169.072 425.716 168.623C424.271 167.848 425.03 166.553 424.437 165.488C424.199 165.055 423.811 165.091 423.484 164.819C422.333 163.873 422.094 163.137 422.581 161.817C422.894 161.012 423.309 160.247 423.815 159.541C423.984 159.293 423.585 159.082 423.412 159.312L423.385 159.325Z" fill="#051128"/>
<path d="M422.085 216.006C422.973 212.441 425.478 209.078 429.185 211.467C430.456 212.28 431.916 213.577 433.533 213.186C434.687 212.91 435.026 211.964 435.693 211.069C437.303 208.921 439.871 209.373 441.128 211.615C441.902 213.022 442.064 214.615 442.254 216.165C442.254 216.267 442.293 216.365 442.363 216.437C442.432 216.509 442.526 216.549 442.624 216.549C442.721 216.548 442.815 216.508 442.884 216.435C442.953 216.363 442.991 216.264 442.991 216.162C443.037 213.714 442.244 210.455 439.988 209.199C437.979 208.082 436.055 209.118 434.883 210.907C432.383 214.727 429.394 209.281 426.119 209.907C423.379 210.433 422.108 213.309 421.69 215.895C421.645 216.163 422.019 216.279 422.085 216.006Z" fill="#051128"/>
<path d="M438.553 160.337C438.294 162.267 438.522 164.627 440.267 165.852C441.659 166.825 443.63 166.818 444.802 165.521C445.557 164.685 445.378 163.865 446.892 163.522C447.316 163.426 447.839 163.591 448.29 163.491C449.192 163.257 449.987 162.719 450.539 161.969C452.151 159.882 451.466 157.144 450.439 154.975C450.226 154.525 449.578 154.919 449.778 155.365C450.687 157.394 451.485 160.253 449.534 161.999C448.1 163.279 446.798 162.274 445.543 163.225C444.288 164.175 444.335 166.005 442.053 165.819C439.324 165.594 438.885 162.531 439.013 160.421C439.013 160.155 438.561 160.089 438.54 160.36L438.553 160.337Z" fill="#051128"/>
<path d="M461.388 163.907C460.033 165.101 458.548 166.798 459.008 168.755C459.536 171.015 462.127 170.762 463.595 172.037C463.913 172.312 464.36 171.876 464.046 171.583C463.082 170.619 461.778 170.645 460.652 169.953C458.173 168.396 460.397 165.679 461.675 164.214C461.707 164.173 461.723 164.121 461.719 164.07C461.716 164.018 461.694 163.969 461.657 163.932C461.62 163.895 461.571 163.874 461.519 163.871C461.467 163.868 461.416 163.884 461.375 163.916L461.388 163.907Z" fill="#051128"/>
<path d="M466.135 206.225C465.766 204.299 466.565 202.302 468.537 201.656C469.594 201.314 470.583 201.82 471.614 201.645C471.952 201.585 472.269 201.44 472.538 201.224C473.704 200.441 474.197 199.602 475.706 199.376C476.197 199.302 475.982 198.542 475.495 198.616C474.216 198.809 473.51 199.356 472.539 200.134C471.656 200.83 471.173 200.836 470.079 200.786C469.405 200.734 468.728 200.841 468.102 201.099C466.024 201.957 465.164 204.197 465.746 206.325C465.813 206.582 466.189 206.468 466.135 206.211L466.135 206.225Z" fill="#051128"/>
<path d="M457.924 136.305C461.492 134.057 463.573 138.585 463.411 141.524C463.319 143.138 462.347 144.89 463.15 146.444C463.513 147.132 464.175 147.644 464.552 148.336C465.18 149.493 465.457 150.813 465.348 152.13C465.142 154.98 463.14 156.874 460.665 157.902C460.576 157.937 460.503 158.004 460.46 158.09C460.417 158.177 460.407 158.276 460.433 158.37C460.459 158.463 460.518 158.543 460.598 158.595C460.679 158.646 460.776 158.665 460.87 158.648C462.088 158.335 463.204 157.702 464.105 156.813C465.007 155.924 465.662 154.809 466.005 153.582C466.736 150.945 465.796 148.94 464.481 146.748C462.669 143.722 465.338 139.876 462.919 136.793C462.331 135.97 461.45 135.412 460.463 135.236C459.477 135.06 458.462 135.28 457.632 135.849C457.351 136.043 457.612 136.502 457.906 136.318L457.924 136.305Z" fill="#051128"/>
<path d="M475.102 155.418C475.858 153.366 475.089 151.529 474.293 149.603C473.609 147.967 472.748 146.229 473.311 144.424C473.799 142.86 475.068 142.601 475.884 141.403C477.227 139.434 475.173 137.15 476.304 134.984C476.739 134.186 477.43 133.564 478.263 133.221C479.095 132.877 480.018 132.834 480.878 133.098C481.721 133.355 482.231 134.078 483.086 134.174C483.175 134.172 483.261 134.142 483.332 134.087C483.402 134.032 483.453 133.955 483.478 133.868L483.578 133.622C483.602 133.538 483.597 133.449 483.565 133.368C483.532 133.287 483.475 133.219 483.401 133.175L483.228 133.055C482.879 132.814 482.488 133.353 482.789 133.642C482.822 133.554 482.834 133.459 482.825 133.365C482.817 133.272 482.788 133.181 482.74 133.1C482.692 133.019 482.627 132.95 482.55 132.897C482.473 132.845 482.385 132.811 482.293 132.798C482.095 132.671 481.887 132.562 481.67 132.474C481.273 132.304 480.856 132.186 480.43 132.124C479.368 131.956 478.282 132.155 477.345 132.689C475.497 133.792 474.966 135.691 475.056 137.723C475.123 139.347 475.551 140.693 474.188 141.843C473.864 142.078 473.561 142.341 473.283 142.629C472.672 143.348 472.334 144.265 472.33 145.215C472.21 148.854 475.587 151.554 474.687 155.29C474.68 155.317 474.678 155.346 474.681 155.374C474.684 155.402 474.693 155.429 474.707 155.454C474.721 155.479 474.739 155.5 474.761 155.518C474.784 155.535 474.809 155.548 474.836 155.556C474.863 155.563 474.891 155.565 474.919 155.562C474.946 155.558 474.973 155.549 474.997 155.535C475.022 155.521 475.043 155.502 475.06 155.48C475.077 155.458 475.09 155.432 475.098 155.405L475.102 155.418Z" fill="#051128"/>
<path d="M469.66 105.389C468.124 107.028 466.598 109.159 466.181 111.426C465.716 113.974 468.428 115.084 468.57 117.559C468.661 119.501 468.382 121.405 470.191 122.656C471.754 123.734 473.768 123.513 475.388 122.733C477.172 121.872 478.869 120.3 479.537 118.382C479.953 117.185 479.766 116.107 479.718 114.867C479.649 113.037 480.32 111.956 480.972 110.387C483.019 105.376 475.919 104.016 472.519 103.826C472.027 103.797 472.074 104.526 472.521 104.578C474.51 104.805 477.138 105.042 478.862 106.222C481.943 108.325 479.582 110.249 478.977 112.636C478.66 113.873 479.013 115.098 478.99 116.338C478.998 118.661 477.525 120.604 475.554 121.721C473.132 123.099 469.888 122.966 469.359 119.642C469.135 118.233 469.532 116.804 468.862 115.472C468.084 113.917 466.523 113.242 466.953 111.065C467.34 109.13 468.759 107.214 470.041 105.804C470.281 105.535 469.887 105.142 469.642 105.407L469.66 105.389Z" fill="#051128"/>
<path d="M460.861 94.7485C460.77 95.5656 461.39 95.6346 462.085 95.5879C463.639 95.4495 465.306 94.1921 465.595 92.6285C465.884 91.0649 464.632 91.0291 466.717 89.8502C467.331 89.5063 467.767 89.4827 468.189 88.8598C468.566 88.2409 468.721 87.5123 468.627 86.7941C468.599 86.4834 467.524 83.2863 467.209 83.7712C466.979 84.1227 467.51 84.5338 467.79 84.2132L467.856 84.1375C467.927 84.0666 467.966 83.9706 467.966 83.8708C467.966 83.771 467.926 83.6753 467.855 83.6048L467.747 83.5119C467.705 83.4717 467.653 83.4415 467.597 83.4235C467.541 83.4056 467.481 83.4003 467.423 83.4082C467.364 83.416 467.308 83.4368 467.259 83.4689C467.21 83.501 467.168 83.5437 467.137 83.5939C466.774 84.1101 467.177 84.708 467.361 85.2401C467.901 86.7965 468.364 87.9003 466.523 89.1184C466.163 89.3593 465.668 89.2899 465.29 89.5664C465.104 89.685 464.946 89.8443 464.83 90.0323C464.715 90.2204 464.643 90.4322 464.621 90.6518C464.591 91.0026 464.842 91.2593 464.874 91.5743C465.013 92.1975 464.922 92.8497 464.619 93.4121C464.316 93.9745 463.82 94.4097 463.222 94.6385C462.535 95.2505 461.888 95.2852 461.28 94.7426C461.279 94.4763 460.901 94.4864 460.87 94.744L460.861 94.7485Z" fill="#051128"/>
<path d="M484.111 89.6764C484.491 91.1644 483.097 92.4371 482.525 93.7206C482.148 94.5748 481.681 95.7316 481.735 96.6971C481.818 98.1906 482.834 98.634 484.029 99.3204C486.599 100.806 486.222 103.14 487.56 105.387C488.048 106.194 488.702 106.89 489.479 107.432C490.256 107.973 491.14 108.348 492.073 108.531C492.645 108.651 492.884 107.806 492.312 107.664C489.421 106.947 488.19 105.078 487.354 102.396C486.984 101.224 486.564 100.075 485.556 99.2928C485.006 98.8659 484.247 98.7421 483.724 98.3241C482.203 97.1469 482.693 94.8347 483.447 93.3069C484.078 92.0187 485.007 91.0453 484.554 89.5712C484.534 89.522 484.496 89.4819 484.448 89.4585C484.4 89.435 484.345 89.4299 484.293 89.444C484.241 89.458 484.196 89.4904 484.167 89.5349C484.138 89.5794 484.126 89.6329 484.134 89.6854L484.111 89.6764Z" fill="#051128"/>
<path d="M439.907 138.287C440.08 138.286 440.246 138.194 440.368 138.03C440.489 137.867 440.557 137.645 440.557 137.415C440.556 137.184 440.486 136.963 440.364 136.8C440.241 136.638 440.074 136.547 439.902 136.547C439.729 136.548 439.563 136.64 439.441 136.804C439.319 136.967 439.251 137.188 439.252 137.419C439.253 137.65 439.322 137.871 439.445 138.033C439.568 138.196 439.734 138.287 439.907 138.287Z" fill="#051128"/>
<path d="M438.092 135.582C438.437 135.252 438.89 135.073 439.358 135.083C439.558 135.082 439.75 134.998 439.892 134.85C440.033 134.702 440.112 134.501 440.112 134.292C440.111 134.082 440.031 133.882 439.888 133.735C439.746 133.587 439.553 133.505 439.352 133.505C438.515 133.577 437.737 133.983 437.18 134.637C437.096 134.767 437.059 134.923 437.073 135.079C437.088 135.234 437.154 135.379 437.261 135.49C437.367 135.6 437.507 135.668 437.656 135.682C437.805 135.696 437.955 135.656 438.079 135.568L438.092 135.582Z" fill="#051128"/>
<path d="M443.617 136.338C443.642 136.959 443.817 137.566 444.128 138.113C444.362 138.559 444.97 139.212 444.537 139.695C443.878 140.433 444.771 141.802 445.713 141.135C446.102 140.869 446.392 140.492 446.54 140.059C446.689 139.626 446.688 139.158 446.538 138.725C446.247 137.72 445.22 137.117 444.959 136.132C444.911 135.981 444.807 135.851 444.667 135.767C444.528 135.682 444.361 135.647 444.197 135.669C444.033 135.691 443.882 135.768 443.772 135.887C443.662 136.005 443.6 136.156 443.597 136.314L443.617 136.338Z" fill="#051128"/>
<path d="M439.288 142.283C439.406 142.761 439.618 143.198 439.905 143.556C440.193 143.914 440.547 144.183 440.939 144.34C441.13 144.401 441.334 144.369 441.507 144.25C441.679 144.131 441.805 143.936 441.859 143.705C441.906 143.473 441.877 143.229 441.779 143.021C441.682 142.814 441.522 142.66 441.334 142.59C441.524 142.682 440.989 142.405 441.135 142.478C441.086 142.454 441.046 142.429 441.115 142.478C441.013 142.414 440.914 142.344 440.818 142.268C440.662 142.111 440.534 141.917 440.444 141.697C440.364 141.54 440.24 141.423 440.095 141.367C439.95 141.311 439.793 141.32 439.653 141.392C439.513 141.464 439.399 141.595 439.332 141.76C439.265 141.926 439.25 142.115 439.288 142.293L439.288 142.283Z" fill="#051128"/>
<path d="M444.095 134.268C444.313 134.326 444.537 134.356 444.763 134.357L445.327 134.322C445.453 134.318 445.577 134.289 445.69 134.237C445.803 134.185 445.904 134.111 445.985 134.019C446.066 133.928 446.126 133.821 446.161 133.706C446.196 133.591 446.206 133.471 446.188 133.352C446.171 133.233 446.128 133.12 446.061 133.018C445.995 132.917 445.907 132.829 445.802 132.762C445.698 132.695 445.58 132.65 445.456 132.629C445.332 132.608 445.205 132.612 445.083 132.641L444.532 132.762C444.318 132.825 444.112 132.915 443.922 133.028C443.806 133.099 443.713 133.199 443.655 133.318C443.598 133.437 443.576 133.569 443.595 133.699C443.613 133.828 443.67 133.95 443.758 134.051C443.847 134.151 443.964 134.225 444.095 134.264L444.095 134.268Z" fill="#051128"/>
<path d="M439.893 153.492C442.88 153.295 445.584 152.287 447.692 149.947C448.579 148.988 447.279 147.716 446.351 148.518C444.415 150.238 442.16 151.498 439.737 152.216C439.598 152.262 439.478 152.36 439.399 152.492C439.321 152.625 439.289 152.783 439.31 152.938C439.33 153.093 439.401 153.236 439.51 153.34C439.62 153.444 439.76 153.503 439.906 153.506L439.893 153.492Z" fill="#051128"/>
<path d="M425.703 363.385C427.305 350.155 427.123 336.426 437.603 326.632C448.506 316.449 462.454 310.021 475.036 302.247C506.408 282.862 537.644 263.14 567.098 240.91C575.873 234.288 649.16 179.957 624.247 168.415C615.556 164.375 600.781 170.298 592.509 172.918C583.138 175.901 573.943 179.409 564.965 183.424C522.664 202.343 484.864 228.146 445.843 252.797C433.021 260.899 420.06 268.803 406.769 276.194C382.893 289.484 367.944 272.197 345.584 272.226C329.043 272.25 315.538 283.688 302.988 293.032C302.046 293.728 301.321 294.678 300.899 295.77C300.476 296.862 300.373 298.052 300.601 299.2C300.829 300.349 301.379 301.409 302.187 302.257C302.995 303.105 304.027 303.705 305.163 303.989L305.283 304.011C309.63 304.786 314.006 305.044 318.366 305.488C332.996 306.996 343.376 313.429 351.726 325.615C362.331 341.098 374.068 359.388 380.192 377.219C383.755 387.579 378.735 395.593 373.882 404.605C372.431 407.213 371.286 409.981 370.47 412.852C370.17 414.006 370.209 415.222 370.583 416.354C370.958 417.486 371.651 418.486 372.58 419.234C373.509 419.982 374.634 420.445 375.82 420.569C377.006 420.693 378.202 420.471 379.265 419.932C398.314 410.374 417.573 395.604 423.633 374.266C424.605 370.698 425.297 367.06 425.703 363.385V363.385Z" fill="white"/>
<path d="M427.7 363.434C428.607 355.711 428.883 347.768 431.342 340.319C434.446 330.908 441.89 324.911 449.881 319.555C458.082 314.063 466.917 309.546 475.324 304.411C484.13 299.038 492.869 293.545 501.583 288.006C527.489 271.618 552.943 254.499 577.17 235.702C592.55 223.821 608.09 211.254 620.636 196.325C625.105 191.015 630.463 184.49 631.281 177.317C632.098 170.144 626.309 165.928 619.704 165.181C613.099 164.433 606.315 166.391 600.092 168.335C592.211 170.808 584.35 173.427 576.639 176.405C557.248 183.916 538.659 193.632 520.617 203.95C484.084 224.841 449.709 249.279 413.222 270.252C405.875 274.48 398.633 278.847 389.92 279.151C383.799 279.372 377.891 277.79 372.104 275.965C359.047 271.828 346.293 267.779 332.662 272.396C324.344 275.217 317.016 280.14 309.998 285.305C305.426 288.682 297.635 292.371 298.671 299.19C299.684 305.876 306.433 306.28 311.839 306.824C320.131 307.644 328.106 308.441 335.481 312.636C342.856 316.832 347.851 323.238 352.515 330.15C357.92 338.193 363.186 346.341 367.879 354.835C372.225 362.735 377.447 371.712 379.148 380.665C380.676 388.646 376.449 395.714 372.832 402.448C370.085 407.556 365.595 415.25 370.869 420.258C375.947 425.089 382.107 420.839 386.989 418.045C400.417 410.384 413.133 400.184 420.728 386.499C424.733 379.277 426.682 371.56 427.726 363.41C428.048 360.86 424.052 360.775 423.744 363.297C421.536 380.664 412.714 394.308 399.137 405.119C393.113 410.028 386.526 414.201 379.514 417.551C374.394 419.897 371.444 416.208 373.193 411.227C374.602 407.179 376.911 403.537 378.864 399.747C381.723 394.254 384.027 388.341 383.418 382.031C382.674 374.354 378.438 366.511 375.061 359.714C370.965 351.691 366.435 343.897 361.491 336.365C357.292 329.854 353.206 322.997 347.893 317.383C343.47 312.655 338.055 308.963 332.037 306.573C325.354 303.937 318.381 303.52 311.322 302.767C307.961 302.411 301.104 302.008 302.887 296.626C303.475 294.862 305.405 293.81 306.797 292.76C308.917 291.162 311.037 289.546 313.185 287.981C320.078 282.945 327.427 278.059 335.712 275.678C349.257 271.794 361.483 277.094 374.316 280.805C385.979 284.19 397.078 283.789 407.92 277.913C442.7 259.074 474.968 235.883 508.854 215.527C525.623 205.322 542.917 196.004 560.664 187.613C575.8 180.581 591.907 174.033 608.239 170.263C613.929 168.936 628.403 167.08 627.436 176.795C626.767 183.543 620.992 190.024 616.737 194.903C604.536 208.945 589.879 220.909 575.215 232.308C553.254 249.398 530.274 265.048 506.858 280.028C490.399 290.552 473.744 300.665 456.907 310.574C443.477 318.461 430.265 327.19 426.516 343.18C424.977 349.789 424.596 356.615 423.807 363.341C423.422 365.866 427.4 365.971 427.7 363.434Z" fill="#051128"/>
<path d="M366.949 313.094C368.324 314.72 368.108 317.249 367.027 319.079C365.815 320.835 364.269 322.335 362.477 323.493C353.645 330.117 345.258 337.314 337.37 345.038C334.295 348.052 331.194 351.307 329.953 355.429C328.713 359.552 329.962 364.745 333.826 366.638C337.69 368.531 342.522 366.411 346.393 364.272L381.123 345.167C383.478 343.871 386.729 342.69 388.537 344.675" fill="white"/>
<path d="M365.994 313.62C368.975 319.272 355.607 326.469 352.078 329.302C346.912 333.451 341.905 337.789 337.059 342.318C330.988 348.029 323.172 357.249 329.479 365.756C335.566 373.953 346.023 366.986 352.518 363.364C358.295 360.146 364.065 356.929 369.829 353.713C372.729 352.118 375.603 350.491 378.454 348.831C380.358 347.784 385.024 344.08 387.278 345.878C389.019 347.263 391.615 344.855 389.832 343.395C387.147 341.187 384.214 341.663 381.166 343.017C375.609 345.476 370.296 348.771 364.96 351.667C359.387 354.684 353.837 357.727 348.28 360.755C344.119 363.044 336.098 368.436 332.643 362.369C329.431 356.726 334.822 350.811 338.479 347.055C342.868 342.562 347.477 338.272 352.215 334.147C356.853 330.106 362.464 326.676 366.571 322.152C369.087 319.386 370.149 315.793 367.977 312.558C367.835 312.299 367.595 312.107 367.31 312.024C367.026 311.941 366.721 311.975 366.461 312.118C366.202 312.261 366.01 312.501 365.927 312.785C365.845 313.069 365.878 313.375 366.021 313.634L365.994 313.62Z" fill="#051128"/>
<path d="M567.015 213.072C567.377 210.167 564.808 207.67 562.146 206.43C560.071 205.431 557.801 204.905 555.498 204.887C553.196 204.869 550.918 205.361 548.828 206.327C546.746 207.329 544.975 208.879 543.707 210.811C542.439 212.743 541.721 214.984 541.63 217.294C541.585 224.052 548.069 229.727 554.815 230.054C558.469 230.288 562.068 229.072 564.832 226.67C566.184 225.455 567.216 223.925 567.837 222.216C568.457 220.508 568.647 218.672 568.39 216.872" fill="#5BD3D4"/>
<path d="M567.455 213.124C567.574 205.894 558.016 203.36 552.222 204.479C545.135 205.849 539.424 212.892 541.326 220.215C545.229 235.22 571.018 233.372 569.008 216.748C568.932 216.094 567.799 216.208 567.86 216.87C569.147 230.863 549.505 233.23 543.65 222.23C540.729 216.741 543.545 210.262 548.639 207.283C553.734 204.304 566.349 205.038 566.6 213.084C566.614 213.626 567.437 213.662 567.446 213.109L567.455 213.124Z" fill="#5BD3D4"/>
<path d="M568.288 213.106C568.739 205.017 558.338 201.771 551.861 203.021C544.016 204.544 537.707 212.425 539.87 220.526C541.813 227.798 549.458 232.609 556.834 231.942C564.838 231.224 571.366 224.741 570.134 216.461C569.85 214.52 566.558 214.842 566.685 216.82C567.487 229.287 550.097 231.757 544.913 221.515C542.509 216.771 544.887 211.082 549.343 208.562C553.565 206.171 565.19 206.068 565.734 213.041C565.743 213.368 565.877 213.68 566.109 213.911C566.341 214.142 566.653 214.276 566.98 214.284C567.307 214.292 567.626 214.175 567.869 213.956C568.112 213.736 568.262 213.432 568.288 213.106V213.106Z" fill="#051128"/>
<path d="M520.359 241.59C520.722 238.685 518.16 236.184 515.497 234.944C513.422 233.947 511.152 233.42 508.849 233.401C506.547 233.382 504.268 233.871 502.176 234.833C500.103 235.84 498.343 237.391 497.083 239.32C495.822 241.249 495.109 243.484 495.02 245.787C494.963 252.542 501.446 258.217 508.197 258.552C511.854 258.781 515.453 257.561 518.217 255.156C519.571 253.943 520.603 252.414 521.222 250.705C521.842 248.996 522.029 247.161 521.768 245.362" fill="#5BD3D4"/>
<path d="M520.786 241.6C520.898 234.374 511.34 231.84 505.546 232.959C498.455 234.322 492.748 241.372 494.65 248.695C498.548 263.692 524.341 261.852 522.339 245.224C522.256 244.574 521.123 244.688 521.191 245.346C522.479 259.339 502.832 261.699 496.977 250.699C494.06 245.217 496.864 238.735 501.97 235.759C507.076 232.784 519.669 233.511 519.924 241.564C519.937 242.106 520.769 242.138 520.778 241.585L520.786 241.6Z" fill="#5BD3D4"/>
<path d="M521.64 241.62C522.091 233.531 511.682 230.289 505.206 231.539C497.375 233.054 491.059 240.939 493.23 249.055C495.165 256.331 502.818 261.138 510.194 260.471C518.19 259.757 524.719 253.275 523.494 244.991C523.203 243.053 519.918 243.371 520.045 245.349C520.839 257.82 503.457 260.286 498.262 250.041C495.869 245.3 498.24 239.615 502.699 237.084C506.921 234.692 518.551 234.597 519.086 241.574C519.078 241.914 519.205 242.243 519.44 242.489C519.674 242.735 519.997 242.877 520.337 242.885C520.677 242.894 521.006 242.766 521.251 242.532C521.497 242.297 521.64 241.975 521.648 241.635L521.64 241.62Z" fill="#051128"/>
<path d="M473.666 270.128C474.028 267.224 471.466 264.722 468.804 263.482C466.728 262.485 464.458 261.959 462.156 261.94C459.853 261.921 457.575 262.409 455.483 263.371C453.409 264.377 451.648 265.928 450.388 267.858C449.127 269.787 448.415 272.023 448.327 274.325C448.277 281.076 454.761 286.752 461.511 287.086C465.165 287.318 468.763 286.099 471.524 283.694C472.878 282.481 473.912 280.952 474.533 279.242C475.154 277.533 475.342 275.696 475.082 273.896" fill="#5BD3D4"/>
<path d="M474.131 270.118C474.25 262.888 464.685 260.358 458.891 261.477C451.8 262.84 446.1 269.886 448.002 277.209C451.901 292.206 477.69 290.359 475.684 273.742C475.608 273.088 474.475 273.202 474.531 273.857C475.819 287.85 456.177 290.217 450.322 279.217C447.404 273.735 450.216 267.249 455.315 264.277C460.414 261.306 473.021 262.025 473.276 270.078C473.294 270.627 474.118 270.664 474.126 270.11L474.131 270.118Z" fill="#5BD3D4"/>
<path d="M474.985 270.138C475.456 262.087 465.035 258.803 458.558 260.053C450.712 261.576 444.404 269.457 446.563 277.55C448.509 284.83 456.154 289.641 463.53 288.974C471.534 288.256 478.055 281.778 476.831 273.494C476.543 271.545 473.254 271.874 473.382 273.852C474.183 286.319 456.793 288.79 451.606 278.54C449.206 273.803 451.584 268.114 456.035 265.587C460.257 263.195 471.887 263.1 472.426 270.066C472.421 270.234 472.45 270.401 472.509 270.558C472.569 270.715 472.66 270.859 472.775 270.981C472.891 271.103 473.029 271.201 473.182 271.27C473.336 271.339 473.501 271.376 473.669 271.381C473.837 271.386 474.004 271.357 474.161 271.298C474.318 271.238 474.462 271.147 474.584 271.032C474.706 270.917 474.805 270.778 474.873 270.625C474.942 270.471 474.98 270.306 474.985 270.138V270.138Z" fill="#051128"/>
<path d="M625.918 171.916C615.242 180.23 600.349 181.807 587.74 185.842C576.294 189.536 565.098 193.963 554.221 199.097C531.247 209.893 509.62 223.28 488.126 236.711C466.808 250.036 445.542 263.42 424.699 277.484C415.702 283.56 406.594 290.325 395.997 293.332C390.617 294.973 384.89 295.106 379.44 293.717C374.005 292.248 369.141 289.249 363.879 287.38C344.926 280.704 322.744 286.918 309.759 302.117C309.392 302.535 309.993 303.165 310.377 302.758C324.839 286.04 348.629 281.431 368.576 290.343C377.151 294.172 384.955 296.956 394.408 294.755C403.861 292.554 412.044 287.209 419.896 281.919C440.695 267.9 461.754 254.355 483.024 241.066C504.983 227.34 526.933 213.471 550.25 202.124C563.412 195.672 577.043 190.224 591.026 185.828C602.967 182.111 616.408 180.48 626.44 172.472C626.801 172.185 626.301 171.686 625.943 171.961L625.918 171.916Z" fill="#051128"/>
<path d="M370.935 315.351C373.068 315.56 375.869 316.303 377.376 317.992C377.895 318.328 378.283 318.83 378.478 319.417C378.672 320.003 378.66 320.638 378.445 321.217C379.178 323.192 378.602 324.77 376.717 325.951C374.979 327.939 373.126 329.823 371.166 331.592C366.666 335.723 361.733 339.388 357.059 343.273C352.487 346.909 348.243 350.939 344.376 355.317C340.537 359.81 336.152 367.75 329.019 364.814C328.487 364.596 328.245 365.455 328.768 365.677C334.445 368.033 338.883 363.611 342.164 359.474C348.29 351.742 355.569 345.572 363.209 339.399C366.711 336.571 370.208 333.716 373.431 330.561C375.526 328.507 378.907 325.745 380.002 322.908C381.801 318.126 374.57 315.047 370.968 314.716C370.543 314.675 370.527 315.34 370.951 315.381L370.935 315.351Z" fill="#051128"/>
<path d="M386.364 348.743C379.127 357.929 391.117 368.18 392.953 376.951C395.77 390.427 387.662 402.786 380.457 413.385C380.421 413.451 380.401 413.525 380.401 413.601C380.401 413.676 380.42 413.75 380.456 413.816C380.493 413.883 380.545 413.938 380.609 413.979C380.673 414.019 380.746 414.043 380.821 414.047L383.62 414.467C384.092 414.541 384.232 413.709 383.749 413.632C381.232 413.243 382.209 412.401 383.31 410.767C384.283 409.33 385.253 407.885 386.175 406.408C387.769 403.904 389.206 401.303 390.477 398.621C392.705 394.044 394.027 389.08 394.372 384.002C394.646 378.916 393.47 373.856 390.981 369.411C387.633 363.325 381.612 355.944 386.946 349.089C387.217 348.744 386.627 348.402 386.36 348.736L386.364 348.743Z" fill="#051128"/>
<path d="M473.706 23.6794C460.725 34.4821 458.958 53.7629 469.761 66.7444C480.564 79.7258 499.845 81.4921 512.826 70.6894C525.808 59.8867 527.574 40.6059 516.771 27.6244C505.968 14.643 486.688 12.8768 473.706 23.6794Z" fill="#5BD3D4"/>
<path d="M483.05 60.1269L476.607 72.3625C476.485 72.5477 476.437 72.7724 476.475 72.9911C476.512 73.2098 476.632 73.4059 476.809 73.5397C476.992 73.6679 477.219 73.7186 477.439 73.6808C477.659 73.643 477.856 73.5197 477.986 73.3377L484.406 61.1212C484.53 60.9365 484.578 60.7113 484.54 60.4922C484.503 60.2732 484.382 60.0769 484.204 59.944C484.021 59.8158 483.794 59.7651 483.574 59.8029C483.353 59.8407 483.157 59.964 483.027 60.146L483.05 60.1269Z" fill="white"/>
<path d="M486.687 63.9191L481.875 74.6192C481.428 75.6053 483.009 76.1789 483.456 75.1927L488.269 64.4926C488.716 63.5065 487.134 62.933 486.687 63.9191V63.9191Z" fill="white"/>
<path d="M510.495 24.5115L504.01 42.6299C503.95 42.8356 503.97 43.0566 504.067 43.2479C504.164 43.4392 504.33 43.5863 504.531 43.6594C504.733 43.7325 504.955 43.726 505.152 43.6413C505.349 43.5566 505.506 43.4 505.592 43.2034L512.077 25.085C512.137 24.8793 512.117 24.6583 512.02 24.467C511.923 24.2758 511.757 24.1286 511.556 24.0555C511.354 23.9824 511.132 23.9889 510.935 24.0736C510.738 24.1583 510.581 24.3149 510.495 24.5115V24.5115Z" fill="white"/>
<path d="M505.392 22.0704C503.785 26.3994 502.067 30.68 500.239 34.9124C499.817 35.9092 501.394 36.4782 501.82 35.4859C503.641 31.2443 505.358 26.9637 506.974 22.644C507.034 22.4383 507.014 22.2173 506.917 22.026C506.82 21.8347 506.654 21.6876 506.452 21.6145C506.251 21.5414 506.029 21.5479 505.832 21.6326C505.635 21.7173 505.478 21.8739 505.392 22.0704Z" fill="white"/>
<path d="M522.925 44.9527C523.489 52.6244 521.06 60.2164 516.148 66.1364C511.237 72.0565 504.223 75.8447 496.579 76.7065C488.935 77.5683 481.255 75.4369 475.148 70.7591C469.041 66.0814 464.983 59.2207 463.824 51.6161C462.666 44.0114 464.497 36.2536 468.933 29.9695C473.37 23.6854 480.068 19.3634 487.621 17.9098C495.175 16.4562 502.998 17.9839 509.45 22.1727C515.902 26.3614 520.482 32.8857 522.228 40.3772C522.569 41.8839 522.802 43.4129 522.925 44.9527C523.032 46.015 524.669 45.749 524.58 44.6798C523.922 36.5983 520.16 29.0857 514.082 23.7182C508.005 18.3507 500.085 15.5455 491.984 15.8911C483.883 16.2368 476.231 19.7064 470.633 25.5721C465.035 31.4378 461.927 39.2437 461.96 47.3518C461.992 55.46 465.164 63.2404 470.81 69.0604C476.455 74.8805 484.135 78.288 492.238 78.5679C500.342 78.8479 508.239 75.9785 514.272 70.5619C520.306 65.1452 524.007 57.6023 524.599 49.5157C524.71 47.9054 524.703 46.2892 524.58 44.6798C524.501 43.5946 522.841 43.8797 522.925 44.9527Z" fill="#051128"/>
<path d="M514.03 45.6445C514.428 51.01 512.734 56.3212 509.302 60.4647C505.87 64.6081 500.967 67.2619 495.621 67.8697C490.275 68.4775 484.902 66.9921 480.627 63.7248C476.352 60.4576 473.509 55.6623 472.692 50.3444C471.875 45.0265 473.149 39.5989 476.247 35.1997C479.344 30.8004 484.024 27.7711 489.306 26.7469C494.588 25.7228 500.061 26.7832 504.578 29.706C509.096 32.6287 512.306 37.1868 513.536 42.4245C513.778 43.4846 513.943 44.5607 514.03 45.6445C514.137 46.7068 515.774 46.4408 515.69 45.3678C515.209 39.5917 512.511 34.2259 508.162 30.3944C503.813 26.5628 498.15 24.5629 492.359 24.8135C486.568 25.0641 481.099 27.5457 477.097 31.7386C473.096 35.9315 470.871 41.5103 470.891 47.3064C470.911 53.1025 473.172 58.6662 477.202 62.832C481.232 66.9977 486.718 69.4424 492.51 69.6539C498.303 69.8654 503.952 67.8272 508.275 63.9664C512.598 60.1056 515.26 54.7217 515.702 48.9425C515.785 47.7522 515.781 46.5575 515.69 45.3678C515.606 44.2864 513.95 44.5761 514.03 45.6445Z" fill="#051128"/>
<path d="M496.519 16.2665C495.57 16.3409 494.632 16.4601 493.706 16.6242C501.327 16.7336 508.633 19.6861 514.191 24.9026C519.748 30.1191 523.157 37.2234 523.748 44.8227C524.339 52.422 522.07 59.9681 517.387 65.9814C512.703 71.9947 505.941 76.0415 498.429 77.3283C499.358 77.3328 500.31 77.3181 501.25 77.243C505.291 76.9813 509.239 75.9198 512.866 74.1201C516.493 72.3204 519.727 69.8182 522.379 66.7589C525.031 63.6996 527.049 60.144 528.317 56.2985C529.584 52.453 530.075 48.394 529.761 44.3573C529.447 40.3205 528.335 36.3863 526.488 32.7828C524.642 29.1794 522.098 25.9786 519.005 23.3661C515.911 20.7535 512.33 18.7813 508.468 17.5639C504.607 16.3465 500.542 15.9081 496.509 16.2742L496.519 16.2665Z" fill="#051128"/>
<path d="M496.379 15.4345C495.44 15.5155 494.504 15.6363 493.57 15.7969C492.652 15.9462 492.655 17.4446 493.634 17.4622C501.053 17.5495 508.172 20.4081 513.591 25.4764C519.01 30.5447 522.339 37.4562 522.922 44.8533C523.505 52.2503 521.301 59.5981 516.743 65.4532C512.185 71.3082 505.603 75.2472 498.289 76.4963C497.379 76.6549 497.35 78.1717 498.353 78.1616C502.601 78.2263 506.818 77.4284 510.749 75.8163C514.679 74.2042 518.242 71.8114 521.222 68.7827C524.201 65.754 526.535 62.1523 528.083 58.1955C529.63 54.2388 530.359 50.0092 530.225 45.7628C530.09 41.5163 529.096 37.3412 527.302 33.4902C525.507 29.6391 522.95 26.192 519.786 23.3576C516.621 20.5231 512.914 18.3602 508.889 16.9997C504.864 15.6391 500.605 15.1093 496.37 15.4421C495.293 15.5218 495.578 17.1819 496.646 17.1015C500.651 16.7982 504.675 17.3091 508.476 18.6034C512.278 19.8978 515.778 21.9487 518.765 24.6326C521.753 27.3165 524.166 30.5776 525.858 34.2194C527.551 37.8611 528.488 41.808 528.614 45.8219C528.74 49.8358 528.051 53.8336 526.59 57.5741C525.128 61.3147 522.924 64.7204 520.111 67.586C517.297 70.4515 513.932 72.7175 510.219 74.2472C506.506 75.7769 502.522 76.5387 498.506 76.4865L498.57 78.1518C506.283 76.8311 513.225 72.6789 518.037 66.5083C522.849 60.3377 525.185 52.5931 524.587 44.7908C523.988 36.9885 520.499 29.6906 514.802 24.3259C509.105 18.9612 501.611 15.9162 493.787 15.787L493.846 17.4562C494.773 17.2992 495.706 17.1766 496.655 17.0939C497.734 16.9974 497.452 15.3419 496.379 15.4345V15.4345Z" fill="#051128"/>
<path d="M483.827 38.5316C486.332 45.392 488.331 52.4266 489.81 59.579C490.026 60.6429 491.678 60.357 491.464 59.3061C489.956 52.0105 487.917 44.8348 485.363 37.8362C484.99 36.8173 483.461 37.5219 483.827 38.5316V38.5316Z" fill="#051128"/>
<path d="M484.791 43.0636C486.814 41.4936 489.137 40.3545 491.616 39.7163C493.728 39.1882 496.82 38.5972 498.422 40.5307C500.333 42.8279 497.282 45.0482 495.459 45.9508C493.022 47.1547 490.49 48.1563 487.889 48.9455C486.99 49.2196 487.464 50.8079 488.376 50.5392C490.518 49.8993 492.739 49.2412 494.999 49.304C496.789 49.3702 499.024 49.9442 499.963 51.6431C501.086 53.6558 498.429 54.7621 496.956 55.3741C494.919 56.215 492.739 56.6509 490.536 56.6577C489.461 56.6653 489.299 58.3397 490.381 58.3412C493.043 58.3466 495.677 57.7926 498.111 56.7149C500.202 55.7521 502.648 54.1597 501.729 51.4951C500.937 49.2155 498.444 48.0704 496.216 47.739C493.457 47.3292 490.721 48.1056 488.098 48.8882L488.585 50.4819C491.047 49.7293 493.449 48.7932 495.772 47.6813C497.855 46.671 500.04 45.3348 500.577 42.9054C501.038 40.7407 499.637 38.8043 497.672 38.0132C495.576 37.1676 493.075 37.6005 490.953 38.1616C488.322 38.8755 485.857 40.0973 483.697 41.758C482.838 42.4179 483.913 43.7089 484.771 43.049L484.791 43.0636Z" fill="#051128"/>
<path d="M488.874 34.58L490.103 38.8604C490.145 39.0774 490.269 39.2698 490.45 39.3977C490.63 39.5256 490.853 39.5793 491.071 39.5475C491.29 39.5103 491.486 39.3882 491.615 39.2077C491.744 39.0272 491.797 38.803 491.762 38.5837L490.533 34.3033C490.491 34.0864 490.367 33.894 490.186 33.7661C490.006 33.6381 489.784 33.5845 489.565 33.6162C489.347 33.6549 489.152 33.7773 489.023 33.9574C488.894 34.1375 488.84 34.361 488.874 34.58V34.58Z" fill="#051128"/>
<path d="M495.367 57.3337L496.074 59.7158C496.119 59.9378 496.244 60.1353 496.426 60.2701C496.607 60.3923 496.826 60.4427 497.042 60.4113C497.153 60.392 497.259 60.351 497.354 60.2905C497.449 60.23 497.531 60.1513 497.596 60.0589C497.66 59.9704 497.705 59.8698 497.729 59.7632C497.752 59.6566 497.754 59.5463 497.733 59.4391L497.026 57.057C496.982 56.835 496.856 56.6375 496.674 56.5027C496.494 56.3805 496.274 56.3301 496.059 56.3615C495.836 56.4035 495.637 56.5296 495.504 56.7139C495.442 56.803 495.397 56.9037 495.374 57.0101C495.35 57.1164 495.348 57.2264 495.367 57.3337V57.3337Z" fill="#051128"/>
<path d="M483.39 43.5761C485.426 48.7792 486.723 54.216 488.008 59.6474C488.256 60.693 489.904 60.4025 489.668 59.3708C488.348 53.8046 487.009 48.2239 484.922 42.8846C484.526 41.8764 482.998 42.5725 483.39 43.5761V43.5761Z" fill="white"/>
<path d="M494.885 40.0369C495.093 40.0433 495.301 40.0623 495.507 40.094C495.629 40.1094 495.4 40.0587 495.507 40.094C495.615 40.1292 495.607 40.1201 495.652 40.1369C495.697 40.1538 495.837 40.2006 495.928 40.2343L496.066 40.2979C496.156 40.3317 495.966 40.2336 496.089 40.3255L496.338 40.4841C496.399 40.5576 496.496 40.6089 496.571 40.671C496.521 40.6112 496.51 40.5975 496.571 40.671C496.632 40.7445 496.651 40.7675 496.689 40.8134C496.761 40.8856 496.826 40.964 496.884 41.0477C496.884 41.0477 496.995 41.1809 496.934 41.1074C496.873 41.0339 496.972 41.1534 496.98 41.1626C497.031 41.2515 497.076 41.3435 497.116 41.4382C497.154 41.4841 497.165 41.553 497.185 41.6142C497.205 41.6755 497.242 41.6832 497.185 41.6142C497.24 41.8093 497.279 42.0088 497.3 42.2105C497.316 42.3605 497.323 42.1914 497.327 42.2426L497.321 42.3949C497.318 42.5092 497.306 42.623 497.286 42.7355C497.266 42.9585 497.336 43.1802 497.479 43.3524C497.622 43.5245 497.827 43.633 498.05 43.6543C498.273 43.6723 498.494 43.6023 498.666 43.4594C498.837 43.3165 498.946 43.112 498.969 42.8897C499.048 42.3292 499.006 41.7584 498.846 41.2155C498.686 40.6726 498.412 40.1702 498.042 39.7417C497.672 39.3133 497.215 38.9687 496.701 38.7312C496.188 38.4936 495.629 38.3684 495.063 38.3641C494.841 38.3477 494.621 38.4183 494.449 38.5609C494.278 38.7035 494.169 38.9071 494.144 39.1288C494.125 39.3518 494.194 39.5735 494.337 39.7456C494.481 39.9178 494.686 40.0263 494.909 40.0476L494.885 40.0369Z" fill="white"/>
<path d="M497.398 51.2892C497.523 51.3561 497.642 51.4338 497.754 51.5213C497.781 51.5535 497.804 51.581 497.827 51.6086C497.85 51.6362 497.781 51.5535 497.77 51.5397C497.818 51.5877 497.861 51.64 497.9 51.6959C497.998 51.8003 498.09 51.9108 498.175 52.0267C498.267 52.137 498.087 51.8744 498.133 51.9762L498.19 52.0451L498.29 52.2495C498.329 52.2954 498.343 52.3689 498.367 52.4347C498.375 52.4632 498.385 52.491 498.397 52.5182C498.451 52.6759 498.36 52.3704 498.363 52.4768C498.402 52.6143 498.43 52.7545 498.448 52.8963C498.474 52.9284 498.466 53.1611 498.462 53.0164C498.458 52.8718 498.455 53.0922 498.456 53.1305L498.435 53.3577C498.424 53.4289 498.367 53.6783 498.43 53.4166C498.365 53.6245 498.373 53.8484 498.452 54.0511C498.523 54.205 498.639 54.3341 498.784 54.4217C498.929 54.5094 499.097 54.5516 499.266 54.5429C499.435 54.5342 499.598 54.475 499.734 54.373C499.869 54.2709 499.971 54.1307 500.026 53.9703C500.226 53.1778 500.161 52.3413 499.84 51.5894C499.542 50.8848 499.022 50.2964 498.36 49.9131C498.179 49.7925 497.96 49.7423 497.745 49.7719C497.58 49.7996 497.427 49.8758 497.305 49.9908C497.184 50.1058 497.099 50.2544 497.062 50.4176C497.026 50.5809 497.038 50.7513 497.099 50.9074C497.159 51.0634 497.265 51.1979 497.402 51.2938L497.398 51.2892Z" fill="white"/>
<path d="M487.317 35.7743L487.34 35.8019L487.222 35.6128C487.489 36.0448 487.701 36.5091 487.851 36.9946L487.789 36.7894C487.857 37.0204 487.912 37.255 487.954 37.4921C487.965 37.6066 488.001 37.7175 488.057 37.8179C488.113 37.9183 488.189 38.0061 488.281 38.0759C488.373 38.1457 488.477 38.196 488.589 38.2237C488.701 38.2514 488.817 38.256 488.931 38.2371C489.044 38.2181 489.153 38.1761 489.249 38.1137C489.346 38.0512 489.429 37.9696 489.493 37.8739C489.557 37.7782 489.6 37.6704 489.621 37.5571C489.642 37.4439 489.639 37.3276 489.613 37.2154C489.529 36.7684 489.406 36.3296 489.245 35.9042C489.075 35.4814 488.864 35.0767 488.613 34.6962C488.543 34.6102 488.456 34.5391 488.358 34.4871C488.26 34.4351 488.153 34.4033 488.042 34.3935C487.932 34.3837 487.821 34.3958 487.715 34.4291C487.609 34.4624 487.511 34.5162 487.426 34.5874C487.256 34.7319 487.148 34.9362 487.123 35.1581L487.133 35.3755C487.157 35.5229 487.22 35.661 487.317 35.7743V35.7743Z" fill="white"/>
<path d="M493.984 59.3247C493.962 59.5081 493.963 59.6932 493.984 59.8765C494.005 60.0595 494.045 60.2397 494.105 60.4138C494.141 60.5248 494.187 60.6325 494.241 60.7361C494.337 60.9118 494.452 61.0772 494.582 61.23C494.652 61.3157 494.739 61.3866 494.837 61.4386C494.934 61.4905 495.042 61.5225 495.152 61.5326C495.263 61.5428 495.374 61.5308 495.48 61.4975C495.586 61.4642 495.684 61.4102 495.768 61.3387C495.939 61.1946 496.048 60.9901 496.071 60.768C496.082 60.6575 496.07 60.5461 496.036 60.4403C496.003 60.3344 495.949 60.2364 495.877 60.1518L495.705 59.9451L495.824 60.1342C495.752 60.0124 495.694 59.8833 495.651 59.7491L495.717 59.9588C495.68 59.8278 495.657 59.6934 495.647 59.5578L495.657 59.7751C495.656 59.6848 495.662 59.5945 495.673 59.505C495.684 59.3944 495.672 59.2828 495.639 59.1767C495.607 59.0705 495.553 58.9719 495.482 58.8865C495.411 58.8011 495.324 58.7306 495.225 58.6791C495.127 58.6275 495.019 58.5959 494.909 58.5861C494.798 58.5756 494.687 58.5874 494.581 58.6207C494.475 58.6541 494.377 58.7082 494.292 58.7801C494.123 58.9249 494.015 59.129 493.99 59.3508L493.984 59.3247Z" fill="white"/>
<path d="M477.293 38.2217C477.121 38.3647 477.013 38.57 476.993 38.7926C476.972 39.0152 477.041 39.2368 477.184 39.4086C477.327 39.5804 477.533 39.6884 477.755 39.7088C477.978 39.7292 478.199 39.6603 478.371 39.5173C478.543 39.3743 478.651 39.169 478.671 38.9464C478.692 38.7238 478.623 38.5022 478.48 38.3304C478.337 38.1586 478.132 38.0506 477.909 38.0302C477.686 38.0099 477.465 38.0787 477.293 38.2217V38.2217Z" fill="white"/>
<path d="M481.243 32.7733C481.092 32.9216 481.003 33.121 480.992 33.3319C480.982 33.5429 481.051 33.7501 481.186 33.9125C481.322 34.0749 481.513 34.1806 481.722 34.2087C481.931 34.2368 482.144 34.1853 482.317 34.0643C482.467 33.916 482.557 33.7166 482.567 33.5056C482.577 33.2946 482.508 33.0874 482.373 32.9251C482.238 32.7627 482.047 32.657 481.837 32.6289C481.628 32.6008 481.416 32.6523 481.243 32.7733V32.7733Z" fill="white"/>
<path d="M509.257 47.4396C509.106 47.5879 509.017 47.7873 509.007 47.9983C508.996 48.2092 509.065 48.4164 509.201 48.5788C509.336 48.7412 509.527 48.8469 509.736 48.875C509.946 48.9031 510.158 48.8516 510.331 48.7306C510.481 48.5823 510.571 48.3829 510.581 48.1719C510.591 47.9609 510.522 47.7537 510.387 47.5914C510.252 47.429 510.061 47.3233 509.851 47.2952C509.642 47.2671 509.43 47.3186 509.257 47.4396V47.4396Z" fill="white"/>
<path d="M508.095 53.9583C507.944 54.1066 507.855 54.306 507.845 54.517C507.834 54.728 507.904 54.9352 508.039 55.0976C508.174 55.2599 508.365 55.3657 508.574 55.3938C508.784 55.4219 508.996 55.3703 509.169 55.2493C509.32 55.101 509.409 54.9017 509.419 54.6907C509.43 54.4797 509.36 54.2725 509.225 54.1101C509.09 53.9477 508.899 53.842 508.69 53.8139C508.48 53.7858 508.268 53.8373 508.095 53.9583V53.9583Z" fill="white"/>
<path d="M471.138 33.142C473.021 29.8182 475.699 27.0129 478.931 24.9772C479.131 24.8789 479.285 24.7077 479.361 24.4991C479.438 24.2905 479.432 24.0604 479.344 23.8563C479.297 23.7555 479.232 23.6647 479.15 23.5894C479.069 23.514 478.973 23.4555 478.869 23.4172C478.765 23.3789 478.654 23.3615 478.543 23.3661C478.432 23.3706 478.324 23.397 478.223 23.4438C474.714 25.6042 471.8 28.6065 469.745 32.1784C469.21 33.1055 470.563 34.0952 471.121 33.1405L471.138 33.142Z" fill="white"/>
<path d="M481.17 21.9779C481.02 22.1263 480.931 22.3256 480.92 22.5366C480.91 22.7476 480.979 22.9548 481.114 23.1172C481.249 23.2795 481.441 23.3853 481.65 23.4134C481.859 23.4415 482.072 23.39 482.245 23.269C482.395 23.1207 482.485 22.9213 482.495 22.7103C482.505 22.4993 482.436 22.2921 482.301 22.1297C482.166 21.9674 481.975 21.8617 481.765 21.8335C481.556 21.8054 481.344 21.857 481.17 21.9779V21.9779Z" fill="white"/>
<path d="M467.882 36.2561C467.731 36.4044 467.642 36.6038 467.632 36.8147C467.621 37.0257 467.69 37.2329 467.826 37.3953C467.961 37.5577 468.152 37.6634 468.361 37.6915C468.571 37.7196 468.783 37.6681 468.956 37.5471C469.106 37.3988 469.196 37.1994 469.206 36.9884C469.216 36.7774 469.147 36.5702 469.012 36.4079C468.877 36.2455 468.686 36.1398 468.476 36.1117C468.267 36.0836 468.055 36.1351 467.882 36.2561V36.2561Z" fill="white"/>
<path d="M475.656 42.8889C474.093 46.5229 474.628 50.5954 475.786 54.2582C475.881 54.4607 476.052 54.6177 476.262 54.6949C476.472 54.7722 476.703 54.7635 476.907 54.6707C477.106 54.5724 477.26 54.4012 477.337 54.1926C477.414 53.984 477.408 53.7539 477.319 53.5498C476.279 50.3096 475.836 46.6741 477.229 43.4616C477.659 42.4739 476.078 41.9004 475.648 42.8881L475.656 42.8889Z" fill="white"/>
<path d="M477.951 56.5617C477.801 56.71 477.712 56.9094 477.701 57.1204C477.691 57.3314 477.76 57.5385 477.895 57.7009C478.03 57.8633 478.221 57.969 478.431 57.9971C478.64 58.0252 478.852 57.9737 479.026 57.8527C479.176 57.7044 479.265 57.505 479.276 57.294C479.286 57.083 479.217 56.8759 479.082 56.7135C478.947 56.5511 478.755 56.4454 478.546 56.4173C478.337 56.3892 478.124 56.4407 477.951 56.5617V56.5617Z" fill="white"/>
</svg>
